<?xml version="1.0" standalone="no"?>
<!DOCTYPE svg PUBLIC "-//W3C//DTD SVG 1.1//EN" "http://www.w3.org/Graphics/SVG/1.1/DTD/svg11.dtd" >
<svg xmlns="http://www.w3.org/2000/svg">
<metadata></metadata>
<defs>
<font id="theinhardtregular" horiz-adv-x="1208" >
<font-face units-per-em="2048" ascent="1638" descent="-410" />
<missing-glyph horiz-adv-x="552" />
<glyph horiz-adv-x="0" />
<glyph unicode="&#xd;" horiz-adv-x="0" />
<glyph horiz-adv-x="0" />
<glyph horiz-adv-x="0" />
<glyph unicode=" "  horiz-adv-x="552" />
<glyph unicode="&#x09;" horiz-adv-x="552" />
<glyph unicode="&#xa0;" horiz-adv-x="552" />
<glyph unicode="!" horiz-adv-x="477" d="M147 0v256h183v-256h-183zM154 709v725h170v-725l-25 -355h-119z" />
<glyph unicode="&#x22;" horiz-adv-x="714" d="M127 1284v150h176v-150l-43 -424h-94zM412 1284v150h176v-150l-43 -424h-94z" />
<glyph unicode="#" d="M2 436v152h322l36 231h-315v156h340l74 459h155l-73 -459h227l74 459h155l-73 -459h311v-156h-336l-37 -231h330v-152h-354l-70 -436h-156l70 436h-227l-70 -436h-156l70 436h-297zM479 588h228l36 231h-227z" />
<glyph unicode="$" d="M37 348l164 111q12 -51 35.5 -101.5t61.5 -93.5t89 -75.5t117 -45.5v531l-33 6q-78 14 -148.5 39.5t-123 70t-83 112t-30.5 165.5q0 76 29.5 141.5t84 115.5t131.5 81t173 41v160h158v-160q86 -10 154.5 -37t119.5 -66.5t86 -87t53 -96.5l-143 -110q-35 92 -101.5 155.5 t-168.5 81.5v-459l43 -8q92 -18 169.5 -46t133 -74t86 -113.5t30.5 -163.5q0 -88 -30.5 -164t-89 -133t-144.5 -93t-198 -44v-172h-158v172q-98 10 -175 44t-134.5 83t-95.5 109.5t-62 123.5zM266 1081q0 -98 54.5 -145t183.5 -76v428q-106 -14 -172 -64.5t-66 -142.5z M662 143q137 16 207.5 84t70.5 168q0 106 -69.5 161.5t-204.5 84.5h-4v-498z" />
<glyph unicode="%" horiz-adv-x="1882" d="M82 975q0 86 16.5 172t55.5 155.5t103.5 112.5t162.5 43q102 0 166.5 -45t101.5 -115.5t50.5 -156.5t13.5 -166q0 -88 -19.5 -169t-60.5 -143.5t-104.5 -100.5t-151.5 -38q-92 0 -155.5 39t-103.5 101.5t-57.5 143.5t-17.5 167zM231 989q0 -66 10.5 -127t32 -108 t57.5 -75t87 -28q53 0 89 25.5t58.5 71t31.5 102.5t9 123q0 78 -11 143.5t-33.5 113.5t-58.5 74.5t-85 26.5t-84 -26.5t-57.5 -73.5t-34 -109.5t-11.5 -132.5zM520 -35l682 1503h152l-680 -1503h-154zM1124 430q0 86 16.5 171t54.5 153.5t102.5 111.5t162.5 43 q102 0 167 -45t101.5 -114.5t50 -154.5t13.5 -165q0 -90 -19.5 -172t-60.5 -144.5t-103.5 -100.5t-150.5 -38q-92 0 -156.5 39t-103.5 102.5t-56.5 145.5t-17.5 168zM1272 444q0 -68 10 -129t32.5 -108t57.5 -75t86 -28q53 0 90 26t59.5 71t32 103t9.5 124q0 78 -11.5 143.5 t-35 112.5t-59.5 73.5t-85 26.5q-47 0 -83 -26.5t-58.5 -72.5t-33.5 -108.5t-11 -132.5z" />
<glyph unicode="&#x26;" horiz-adv-x="1273" d="M51 379q0 86 26.5 151.5t72 117.5t106.5 93t133 78q-25 33 -52.5 68t-50 76t-38 88t-15.5 104t23 111.5t67 97.5t107.5 68.5t142.5 25.5q84 0 146.5 -24.5t104.5 -65.5t62.5 -94t20.5 -111q0 -113 -66.5 -209t-205.5 -172l268 -321q16 53 31.5 121.5t26.5 136.5l159 -43 q-16 -96 -40.5 -180t-67.5 -172l282 -324h-221l-158 184q-82 -109 -189.5 -159t-231.5 -50q-96 0 -177 27t-139.5 79t-92.5 127t-34 171zM223 387q0 -61 22.5 -109.5t61.5 -80t91.5 -48t109.5 -16.5q90 0 174 41t135 129l-332 404q-51 -29 -98 -60t-84 -69.5t-58.5 -85 t-21.5 -105.5zM406 1153q0 -57 24.5 -99t54.5 -83l58 -74q86 47 141 109.5t55 142.5q0 78 -51 120t-115 42q-72 0 -119.5 -41t-47.5 -117z" />
<glyph unicode="'" horiz-adv-x="430" d="M127 1284v150h176v-150l-43 -424h-94z" />
<glyph unicode="(" horiz-adv-x="663" d="M180 539q0 252 69.5 490.5t205.5 447.5l147 -21q-129 -213 -193.5 -445.5t-64.5 -467.5q0 -117 19.5 -237t53.5 -235.5t81 -224t102 -202.5l-141 -27q-139 221 -209 443.5t-70 478.5z" />
<glyph unicode=")" horiz-adv-x="657" d="M180 1456l148 21q135 -209 204.5 -447.5t69.5 -490.5q0 -256 -70.5 -478.5t-207.5 -443.5l-142 27q55 94 102.5 202.5t81 224t53 235.5t19.5 237q0 236 -64.5 468t-193.5 445z" />
<glyph unicode="*" horiz-adv-x="763" d="M16 1114l45 139l248 -84v265h146l-2 -265l249 84l46 -139l-252 -80l157 -211l-118 -86l-154 213l-152 -213l-118 86l155 211z" />
<glyph unicode="+" horiz-adv-x="1583" d="M190 530v156h523v528h157v-528h521v-156h-521v-530h-157v530h-523z" />
<glyph unicode="," horiz-adv-x="395" d="M102 0v236h195v-154q0 -66 -2 -126t-16 -110q-16 -59 -57.5 -98t-119.5 -45v94q47 6 68 41q23 39 23 133v29h-91z" />
<glyph unicode="-" horiz-adv-x="692" d="M82 467v178h528v-178h-528z" />
<glyph unicode="." horiz-adv-x="391" d="M98 0v236h195v-236h-195z" />
<glyph unicode="/" horiz-adv-x="954" d="M12 0l758 1434h166l-756 -1434h-168z" />
<glyph unicode="0" d="M84 715q0 156 29.5 291t93 235t162 158.5t235.5 58.5t235.5 -58.5t162 -158.5t93 -235.5t29.5 -290.5q0 -143 -25.5 -276.5t-86 -237t-159.5 -165t-249 -61.5q-147 0 -247.5 61.5t-161 165t-86 236.5t-25.5 277zM268 719q0 -117 15.5 -223.5t53.5 -188.5t102.5 -130 t164.5 -48t166 48t103.5 130t52 188.5t14.5 223.5q0 125 -18.5 232.5t-59.5 186.5t-104.5 124t-153.5 45t-153.5 -45t-104.5 -124t-59.5 -186.5t-18.5 -232.5z" />
<glyph unicode="1" d="M227 999v138h45q84 0 140.5 15t97.5 44q100 74 106 238h152v-1434h-174v999h-367z" />
<glyph unicode="2" d="M125 1014q0 88 32.5 169t94 142t149.5 97t199 36q125 0 215 -38t148.5 -102.5t86 -149.5t27.5 -181q0 -123 -44 -225.5t-115.5 -189.5t-163.5 -161.5t-187 -138.5q-47 -33 -95 -62.5t-95 -57.5h692v-152h-928v145q45 27 104.5 68t125 90t133 103.5t129.5 109.5 q53 49 101 98.5t84 105.5t56.5 120.5t20.5 142.5q0 154 -84 239t-219 85q-76 0 -130 -23.5t-90 -64.5t-53.5 -95.5t-17.5 -113.5q0 -100 43 -199l-184 18q-10 14 -22.5 69.5t-12.5 115.5z" />
<glyph unicode="3" d="M96 401l168 56q2 -90 30 -152.5t72 -101.5t100 -56.5t118 -17.5q152 0 238.5 75t86.5 210q0 78 -27.5 128t-74.5 81q-53 35 -125 47t-156 12h-133v145h115q92 0 161.5 13.5t116.5 46.5q43 29 65.5 74t22.5 110q0 109 -74.5 172.5t-213.5 63.5q-74 0 -127 -22.5t-90 -59.5 t-56.5 -85t-23.5 -102l-158 47q0 49 25.5 114t81 122t143.5 97t213 40q117 0 203 -28.5t142 -79t85 -119t29 -148.5q0 -66 -17.5 -118t-48.5 -91.5t-70.5 -67.5t-85.5 -44q49 -16 96.5 -45t84.5 -72t59.5 -102.5t22.5 -134.5q0 -96 -36 -175t-102.5 -136.5t-161 -89.5 t-212.5 -32q-223 0 -350.5 116t-135.5 310z" />
<glyph unicode="4" d="M68 375v127l665 944h150v-922h252v-149h-252v-375h-168v375h-647zM268 524h447v461q0 41 1 70.5t2 53.5t2 43t3 42q-25 -43 -57.5 -98.5t-73.5 -112.5z" />
<glyph unicode="5" d="M98 324l162 63q31 -127 116 -192.5t199 -65.5q61 0 119 22.5t103 68.5t72.5 114.5t27.5 163.5q0 84 -26.5 146.5t-69.5 103t-98.5 61t-112.5 20.5q-115 0 -198 -60t-113 -183l-144 45l74 803h786l-10 -156h-633l-47 -416q43 45 120 84t191 39q98 0 182.5 -33.5t146 -96 t96 -154t34.5 -207.5q0 -111 -34.5 -206t-100.5 -165t-159 -109t-210 -39q-186 0 -307 91.5t-166 257.5z" />
<glyph unicode="6" d="M102 709q0 176 35 315t102.5 235.5t169 147.5t236.5 51q111 0 188.5 -34.5t129 -88t77 -115t33.5 -114.5l-158 -62q-6 27 -20 71t-45 87t-82 74t-133 31q-168 0 -254 -132.5t-96 -383.5q51 68 145 117.5t225 49.5q106 0 190.5 -35.5t144 -99t91 -149.5t31.5 -187 q0 -96 -30.5 -188t-91 -164t-151.5 -116t-212 -44t-218.5 43t-165 133.5t-104.5 228.5t-37 329zM285 612q4 -223 93 -353t249 -130q66 0 122 24.5t98 69.5t65.5 109.5t23.5 144.5q0 86 -25.5 147.5t-68.5 101.5t-99.5 58.5t-115.5 18.5q-102 0 -196.5 -49t-145.5 -142z" />
<glyph unicode="7" d="M147 999v435h977v-131q-100 -154 -172.5 -291.5t-126.5 -259.5q-86 -199 -126 -382.5t-60 -369.5h-186q20 186 60 347t91 296q74 193 164 354.5t164 280.5h-625v-279h-160z" />
<glyph unicode="8" d="M98 403q0 76 23.5 135.5t59.5 102.5t80 72.5t87 48.5q-43 18 -81 48t-66.5 70t-46 89t-17.5 106q0 82 31 152.5t90 122t146 80t200 28.5t200 -28.5t146.5 -80t90 -122t30.5 -152.5q0 -55 -17.5 -104t-46 -90t-66.5 -72t-79 -49q43 -18 87 -47t80 -72t59.5 -101.5 t23.5 -136.5q0 -84 -30.5 -161.5t-93 -137t-158 -94.5t-226.5 -35t-226 35t-157.5 94.5t-92.5 137t-30 161.5zM281 406q0 -55 20.5 -105.5t60 -88.5t100 -60.5t142.5 -22.5t143.5 22.5t101.5 60.5t60.5 88t20.5 106q0 125 -86 201.5t-240 76.5q-152 0 -237.5 -77t-85.5 -201 zM311 1069q0 -49 19.5 -92t56.5 -76t91 -52.5t126 -19.5t126 19.5t91 52.5t56.5 76t19.5 92q0 111 -80 174.5t-213 63.5t-213 -63.5t-80 -174.5z" />
<glyph unicode="9" d="M84 946q0 96 30.5 188.5t91 164t152 115.5t211.5 44q121 0 218.5 -43t165 -133t104.5 -228.5t37 -328.5q0 -176 -35 -315.5t-102.5 -235.5t-169 -147.5t-236.5 -51.5q-111 0 -188.5 35t-129 88.5t-77 114.5t-33.5 115l158 61q6 -27 20 -71t45 -86t82 -72.5t133 -30.5 q168 0 254 131t96 383q-51 -68 -145 -119t-225 -51q-106 0 -190.5 37t-144 100.5t-91 149.5t-31.5 186zM260 956q0 -86 25.5 -147t68.5 -101t99.5 -58.5t115.5 -18.5q102 0 196.5 49t145.5 141q-2 111 -25.5 201t-67.5 153.5t-106.5 97.5t-142.5 34q-66 0 -123 -25t-98 -71 t-64.5 -110.5t-23.5 -144.5z" />
<glyph unicode=":" horiz-adv-x="399" d="M102 0v236h195v-236h-195zM102 739v236h195v-236h-195z" />
<glyph unicode=";" horiz-adv-x="399" d="M102 0v236h195v-154q0 -66 -2 -126t-16 -110q-16 -59 -57.5 -98t-119.5 -45v94q47 6 68 41q23 39 23 133v29h-91zM102 739v236h195v-236h-195z" />
<glyph unicode="&#x3c;" horiz-adv-x="1583" d="M92 606v164l1389 649v-178l-1172 -551l1172 -553v-184z" />
<glyph unicode="=" horiz-adv-x="1583" d="M104 338v156h1377v-156h-1377zM104 694v156h1377v-156h-1377z" />
<glyph unicode="&#x3e;" horiz-adv-x="1583" d="M102 -47v184l1172 553l-1172 551v178l1389 -649v-164z" />
<glyph unicode="?" horiz-adv-x="983" d="M63 1061q0 82 29 154.5t83 126t133 85t179 31.5q104 0 184.5 -30.5t135.5 -85t83 -127t28 -154.5q0 -72 -14.5 -126t-41 -100.5t-63.5 -86t-82 -78.5l-49 -43q-41 -37 -67 -62.5t-40 -51.5t-19 -55.5t-5 -72.5v-63h-170v77q0 49 5 87t22.5 73t47 70t78.5 78l78 67 q72 63 108.5 128t36.5 151q0 53 -17 100t-50 82t-81 55.5t-108 20.5q-63 0 -111 -20.5t-80 -56.5t-48.5 -83t-16.5 -100q0 -41 6.5 -75t14.5 -58q8 -29 20 -54l-178 27q-8 18 -16 43q-6 23 -10.5 54.5t-4.5 72.5zM365 0v229h174v-229h-174z" />
<glyph unicode="@" horiz-adv-x="1826" d="M123 604q0 193 61.5 349.5t172 268t261 172t328.5 60.5q176 0 312.5 -58.5t228.5 -157.5t139 -233.5t47 -283.5q0 -152 -34.5 -259.5t-90 -176t-124 -100t-138.5 -31.5q-154 0 -170 112q-10 -16 -32.5 -36.5t-58.5 -39t-83 -31t-106 -12.5q-66 0 -122.5 18.5t-98.5 53.5 t-65.5 88t-23.5 123q0 76 30 125t79 80t114.5 48t137.5 30l145 24q27 4 41 9.5t22.5 12.5t10.5 19.5t2 30.5q0 33 -7 62.5t-28.5 51t-60.5 34t-101 12.5q-63 0 -104 -16.5t-65.5 -42t-34 -60.5t-9.5 -72l-141 43q0 68 27.5 119t77 87t116 54.5t142.5 18.5q133 0 202.5 -34 t100.5 -91q25 -45 31 -102.5t6 -131.5v-387q0 -43 12 -62.5t47 -19.5q43 0 82 33t67.5 91.5t45 138t16.5 176.5q0 119 -38 229.5t-112.5 195.5t-184.5 136t-253 51t-266 -52t-212 -146.5t-140.5 -226.5t-51.5 -294q0 -160 49.5 -292t138.5 -225t215 -145.5t279 -52.5 q186 0 339 77t263 218l80 -108q-119 -150 -294 -235t-392 -85q-199 0 -353.5 61.5t-260 173t-159.5 268.5t-54 345zM692 432q0 -78 54.5 -117t132.5 -39q94 0 161.5 52.5t67.5 160.5v154q-25 -16 -125 -37l-90 -16q-37 -6 -74 -16.5t-64.5 -28t-45 -45t-17.5 -68.5z" />
<glyph unicode="A" horiz-adv-x="1232" d="M6 0l512 1440h205l504 -1440h-191l-143 418h-559l-144 -418h-184zM389 575h451l-181 525q-35 102 -45 145h-2q-6 -20 -17 -58t-28 -89z" />
<glyph unicode="B" horiz-adv-x="1347" d="M160 0v1434h571q61 0 107.5 -3.5t82 -10.5t64.5 -17t55 -25q86 -47 135.5 -124.5t49.5 -190.5q0 -117 -61.5 -196t-166.5 -107v-2q127 -35 203 -126t76 -233q0 -117 -51 -201.5t-144 -136.5q-29 -16 -57.5 -27t-67 -18.5t-89 -11.5t-117.5 -4h-590zM340 164h389 q94 0 142.5 6t82.5 20q66 29 105 85.5t39 138.5t-39 140t-105 87q-35 14 -83 20.5t-142 6.5h-389v-504zM340 819h371q47 0 80.5 2t58 5t43 8.5t35.5 13.5q57 25 90 75t33 124q0 72 -33 121t-88 73q-18 8 -37 13.5t-43.5 8.5t-58 5t-80.5 2h-371v-451z" />
<glyph unicode="C" horiz-adv-x="1368" d="M92 717q0 164 45 300t130 234.5t205 152.5t269 54q190 0 329.5 -85t219.5 -236l-147 -103q-53 129 -155.5 200t-246.5 71q-109 0 -194.5 -42t-145 -119t-91 -185.5t-31.5 -241.5t31.5 -241.5t91 -185.5t145.5 -119t194 -42q145 0 248 73.5t156 203.5l158 -84 q-78 -162 -220.5 -254.5t-341.5 -92.5q-141 0 -260 50.5t-206 145.5t-135 232.5t-48 313.5z" />
<glyph unicode="D" horiz-adv-x="1386" d="M160 0v1434h354q86 0 158.5 -2t135 -11.5t118 -30t108.5 -59.5q117 -84 190.5 -241.5t73.5 -368.5q0 -180 -55 -326.5t-153 -244.5q-57 -55 -117 -86t-128.5 -45.5t-151.5 -16.5t-187 -2h-346zM340 162h203q66 0 123 1t106 9t92 26.5t84 51.5q76 61 123 182t47 281 q0 141 -45 264t-131 197q-39 33 -81 52t-92 28.5t-112.5 11.5t-142.5 2h-174v-1106z" />
<glyph unicode="E" horiz-adv-x="1228" d="M160 0v1434h958v-166h-778v-445h707v-166h-707v-489h819v-168h-999z" />
<glyph unicode="F" horiz-adv-x="1134" d="M160 0v1434h942v-166h-762v-445h688v-168h-688v-655h-180z" />
<glyph unicode="G" horiz-adv-x="1452" d="M92 717q0 164 45 300t130 234.5t205 152.5t269 54q190 0 331.5 -85t221.5 -236l-147 -103q-53 129 -157.5 200t-248.5 71q-109 0 -194.5 -42t-145 -119t-91 -185.5t-31.5 -241.5t30.5 -241.5t90 -185.5t145.5 -119t194 -42q111 0 194 40t130 107q39 55 57.5 128t20.5 184 h-492v166h660v-754h-170v182q-25 -41 -64 -77.5t-91 -65.5t-117.5 -46.5t-145.5 -17.5q-137 0 -252 50.5t-199 145.5t-131 232.5t-47 313.5z" />
<glyph unicode="H" horiz-adv-x="1449" d="M160 0v1434h180v-605h770v605h180v-1434h-180v664h-770v-664h-180z" />
<glyph unicode="I" horiz-adv-x="489" d="M154 0v1434h180v-1434h-180z" />
<glyph unicode="J" horiz-adv-x="763" d="M37 -8v180q31 -16 70.5 -25.5t91.5 -9.5q41 0 89 10.5t83 38.5q47 39 54 104.5t7 172.5v971h180v-1082q0 -86 -13 -139t-40 -94q-53 -86 -147.5 -117t-200.5 -31q-68 0 -108 7.5t-66 13.5z" />
<glyph unicode="K" horiz-adv-x="1345" d="M160 0v1434h180v-746l715 746h252l-566 -570l605 -864h-236l-504 731l-266 -268v-463h-180z" />
<glyph unicode="L" horiz-adv-x="1081" d="M160 0v1434h180v-1266h709v-168h-889z" />
<glyph unicode="M" horiz-adv-x="1605" d="M160 0v1434h254l323 -947q27 -76 46.5 -139t27.5 -86q6 27 23.5 88.5t42.5 138.5l311 945h258v-1434h-176v915v101.5t2 101.5q2 53 4 107h-2q-14 -47 -27 -92q-10 -39 -23.5 -81t-23.5 -73l-313 -979h-158l-323 963q-10 31 -23.5 71.5t-24.5 77.5q-12 43 -26 88h-2 q0 -49 2 -102q2 -45 3 -98.5t1 -100.5v-899h-176z" />
<glyph unicode="N" horiz-adv-x="1439" d="M160 0v1434h166l665 -951q18 -25 37 -51t34 -51t25.5 -42t14.5 -24h2q-2 31 -2 68q-2 31 -2 67.5v77.5v906h180v-1434h-166l-661 950q-16 20 -35 48t-35 54.5t-29.5 46t-15.5 25.5h-2q0 -27 2 -55q0 -25 1 -57.5t1 -65.5v-946h-180z" />
<glyph unicode="O" horiz-adv-x="1476" d="M90 717q0 164 45 300t130 234.5t205 152.5t269 54q150 0 269.5 -54t203.5 -152.5t129 -234.5t45 -300t-45 -300t-128 -234.5t-203.5 -153t-270.5 -54.5t-269.5 54.5t-204.5 153t-130 234.5t-45 300zM276 717q0 -133 32 -241.5t91.5 -185.5t145.5 -119t194 -42 q109 0 194 42t144.5 119t91 185.5t31.5 241.5t-30.5 241.5t-90 185.5t-145.5 119t-195 42t-194.5 -42t-145 -119t-91.5 -185.5t-32 -241.5z" />
<glyph unicode="P" horiz-adv-x="1236" d="M160 0v1434h534q109 0 174.5 -10.5t116.5 -32.5q111 -49 175.5 -140.5t64.5 -228.5q0 -117 -50.5 -203t-136.5 -139q-76 -47 -160.5 -58.5t-207.5 -11.5h-330v-610h-180zM340 774h330q98 0 150 9.5t93 25.5q125 55 125 213q0 78 -33.5 131t-95.5 82q-20 8 -41.5 14 t-49 11.5t-64.5 7.5t-86 2h-328v-496z" />
<glyph unicode="Q" horiz-adv-x="1476" d="M90 717q0 164 45 300t130 234.5t205 152.5t269 54q150 0 269.5 -54t203.5 -152.5t129 -234.5t45 -300q0 -147 -36.5 -273.5t-106.5 -222.5l148 -149l-123 -123l-142 151q-78 -59 -174 -92t-213 -33q-150 0 -269.5 54.5t-204.5 153t-130 234.5t-45 300zM276 717 q0 -133 32 -241.5t91.5 -185.5t145.5 -119t194 -42q109 0 194 42t144.5 119t91 185.5t31.5 241.5t-30.5 241.5t-90 185.5t-145.5 119t-195 42t-194.5 -42t-145 -119t-91.5 -185.5t-32 -241.5z" />
<glyph unicode="R" horiz-adv-x="1290" d="M160 0v1434h534q109 0 174.5 -10.5t116.5 -32.5q111 -49 175.5 -140.5t64.5 -228.5q0 -86 -27 -153.5t-75 -118t-114.5 -83t-144.5 -46.5l406 -621h-228l-387 612h-315v-612h-180zM340 774h330q98 0 150 9.5t93 25.5q125 55 125 213q0 78 -33.5 131t-95.5 82 q-20 8 -41.5 14t-49 11.5t-64.5 7.5t-86 2h-328v-496z" />
<glyph unicode="S" horiz-adv-x="1198" d="M31 317l149 107q18 -45 52 -96.5t86.5 -94.5t123 -71.5t162.5 -28.5q162 0 253 74t91 190q0 104 -69.5 159.5t-204.5 84.5l-195 39q-78 14 -148.5 39.5t-122.5 71t-83 112t-31 164.5t41 171t109.5 122t155.5 73.5t180 24.5q102 0 182 -22.5t141.5 -57.5t104.5 -81t71 -91 l-129 -112q-57 100 -154.5 154.5t-220.5 54.5q-59 0 -114 -14.5t-96 -42t-66 -68.5t-25 -97q0 -98 59.5 -147t198.5 -78l181 -37q92 -18 170 -47t133 -74t86 -111.5t31 -162.5q0 -111 -44.5 -195t-117 -140t-167.5 -85t-200 -29q-115 0 -206 28t-161.5 75t-122 108.5 t-83.5 130.5z" />
<glyph unicode="T" horiz-adv-x="1097" d="M16 1266v168h1065v-168h-442v-1266h-180v1266h-443z" />
<glyph unicode="U" horiz-adv-x="1355" d="M131 594v840h180v-844q0 -59 2 -102.5t7.5 -74t11.5 -54t16 -46.5q41 -92 124 -136t206 -44t205 44t123 136q10 23 17 46.5t12 54t7 73.5t2 103v844h181v-840q0 -80 -4 -138.5t-13.5 -103.5t-23 -80.5t-33.5 -70.5q-68 -117 -190.5 -172.5t-282.5 -55.5t-283 55.5 t-190 172.5q-20 35 -33.5 70.5t-23 80.5t-13.5 103.5t-4 138.5z" />
<glyph unicode="V" horiz-adv-x="1202" d="M6 1434h193l348 -1031q16 -45 29.5 -88t21.5 -65h2q8 27 21.5 67.5t29.5 85.5l361 1031h184l-516 -1440h-174z" />
<glyph unicode="W" horiz-adv-x="1767" d="M6 1434h193l219 -779q12 -47 27.5 -100t27.5 -100t21.5 -84t13.5 -52h2q12 51 36.5 145.5t53.5 194.5q29 102 67 235.5t72 254.5q39 141 80 285h137l228 -779q14 -47 28.5 -100t26.5 -100t21.5 -84t13.5 -52h2q12 51 36.5 144.5t53.5 195.5l213 775h182l-413 -1434h-142 l-252 852q-23 80 -40 145.5t-25 104.5h-2q-10 -45 -28.5 -117t-37.5 -137q-49 -168 -94 -326q-20 -68 -40.5 -138.5t-41 -140t-39 -132t-33.5 -111.5h-139z" />
<glyph unicode="X" horiz-adv-x="1349" d="M16 0l547 760l-479 674h233l365 -525l362 525h232l-481 -664l538 -770h-231l-426 625l-445 -625h-215z" />
<glyph unicode="Y" horiz-adv-x="1245" d="M2 1434h209l407 -668l418 668h207l-545 -844v-590h-180v590z" />
<glyph unicode="Z" horiz-adv-x="1163" d="M37 0v131l833 1137h-796v166h1030v-140l-819 -1126h841v-168h-1089z" />
<glyph unicode="[" horiz-adv-x="567" d="M147 -436v1972h388v-143h-224v-1686h224v-143h-388z" />
<glyph unicode="\" horiz-adv-x="948" d="M12 1434h166l758 -1434h-168z" />
<glyph unicode="]" horiz-adv-x="567" d="M33 -293h223v1686h-223v143h387v-1972h-387v143z" />
<glyph unicode="^" horiz-adv-x="1583" d="M352 702l367 732h155l355 -732h-193l-243 529l-244 -529h-197z" />
<glyph unicode="_" horiz-adv-x="1060" d="M-8 -129h1077v-156h-1077v156z" />
<glyph unicode="`" horiz-adv-x="874" d="M172 1434h250l215 -279h-174z" />
<glyph unicode="a" horiz-adv-x="1028" d="M88 279q0 76 26.5 127t72.5 84.5t110.5 53t142.5 31.5l189 33q55 8 68.5 22.5t13.5 55.5q0 37 -8.5 67.5t-31 53t-63.5 36t-106 13.5q-68 0 -113 -16.5t-71.5 -44t-38 -64.5t-11.5 -78l-151 21v19q1 71 27 125q30 62 83.5 101t126 58.5t154.5 19.5q141 0 216 -36.5 t110 -96.5q27 -47 32.5 -109.5t5.5 -142.5v-419q0 -51 20.5 -69t53.5 -18q29 0 45 7v-121q-16 -4 -41.5 -8t-62.5 -4q-82 0 -120 33.5t-44 88.5h-2q-12 -18 -33.5 -39.5t-57.5 -41t-87 -33t-121 -13.5q-72 0 -133.5 19.5t-106.5 57.5t-69.5 95.5t-24.5 131.5zM262 281 q0 -86 58.5 -126t144.5 -40q47 0 92 11t79 37.5t54.5 71t20.5 109.5v154q-25 -12 -127 -31l-107 -21q-41 -8 -79 -18t-68.5 -27.5t-49 -46t-18.5 -73.5z" />
<glyph unicode="b" horiz-adv-x="1150" d="M152 0v1434h170v-603q12 25 38.5 54.5t65.5 54.5t91 41t118 16q92 0 170 -33.5t136 -99t91 -161t33 -218.5q0 -121 -32 -215t-88 -159.5t-134 -100.5t-170 -35q-70 0 -123 17.5t-93 42t-65.5 54.5t-37.5 54v-143h-170zM305 489q0 -92 23.5 -161.5t64.5 -115.5t96.5 -69.5 t118.5 -23.5q133 0 208 97t75 273q0 180 -79 274.5t-208 94.5q-63 0 -117.5 -23.5t-94.5 -69.5t-63.5 -115t-23.5 -161z" />
<glyph unicode="c" horiz-adv-x="1009" d="M86 483q0 117 34 212.5t95 163t147.5 103t188.5 35.5q154 0 255 -68.5t150 -195.5l-143 -86q-29 92 -90 150.5t-172 58.5q-133 0 -212 -97t-79 -274q0 -176 82 -272t211 -96q111 0 176.5 53t99.5 139l136 -84q-59 -123 -165 -186.5t-247 -63.5q-111 0 -197 36t-146 101.5 t-92 160t-32 210.5z" />
<glyph unicode="d" horiz-adv-x="1150" d="M86 485q0 123 33 218.5t91 161t136 99t170 33.5q66 0 118 -16t91 -41t65.5 -54.5t38.5 -54.5v603h170v-1434h-170v143q-12 -25 -37.5 -54.5t-65.5 -54t-93 -42t-123 -17.5q-92 0 -170 35t-134 100.5t-88 160t-32 214.5zM260 489q0 -176 75 -273t208 -97q63 0 118.5 23.5 t96.5 69.5t64.5 115.5t23.5 161.5t-23.5 161t-63.5 115t-94.5 69.5t-117.5 23.5q-129 0 -208 -94t-79 -275z" />
<glyph unicode="e" horiz-adv-x="1081" d="M86 492q0 113 34 206t95 159.5t146 103t188 36.5q111 0 192.5 -39.5t136 -108.5t82 -163t27.5 -203v-34h-729q2 -57 19.5 -116t53.5 -105t93 -75.5t139 -29.5q68 0 117 18.5t85 46t59.5 56t35.5 51.5l123 -92q-14 -23 -46 -61t-84 -74.5t-127 -64.5t-175 -28 q-104 0 -190.5 35t-146.5 101.5t-94 162t-34 218.5zM264 584h547q-10 129 -77.5 202.5t-184.5 73.5q-113 0 -191.5 -73.5t-93.5 -202.5z" />
<glyph unicode="f" horiz-adv-x="604" d="M8 846v129h199v244q0 68 14 108q23 66 79 92.5t149 26.5q45 0 78.5 -5t56.5 -11v-146q-16 4 -45 10t-58 6q-68 0 -88 -36q-10 -16 -13 -38t-3 -63v-188h207v-129h-207v-846h-170v846h-199z" />
<glyph unicode="g" horiz-adv-x="1142" d="M86 496q0 121 33 214t90 157.5t137 97t172 32.5q111 0 192 -50t119 -116v144h170v-920q0 -119 -19 -199.5t-58 -136.5q-57 -82 -153.5 -117.5t-225.5 -35.5q-119 0 -199 31.5t-128 82t-70.5 113t-28.5 125.5l155 41q6 -43 19.5 -88t43.5 -82t80 -60.5t128 -23.5 q86 0 140 19.5t87 58.5q35 41 47 103.5t12 154.5v127q-41 -74 -119.5 -122t-191.5 -48q-96 0 -176 32.5t-136 96t-88 156t-32 213.5zM260 498q0 -176 75 -267.5t208 -91.5q63 0 118.5 21.5t96.5 66.5t64.5 112t23.5 157t-23.5 157.5t-63.5 112.5t-94.5 67.5t-117.5 22.5 q-129 0 -208 -89t-79 -269z" />
<glyph unicode="h" horiz-adv-x="1112" d="M152 0v1434h170v-603q41 72 117.5 120t201.5 48q158 0 244 -94q23 -27 39 -54.5t26.5 -66.5t15.5 -94t5 -135v-555h-170v569q0 160 -56.5 220.5t-164.5 60.5q-61 0 -109.5 -22.5t-81.5 -61.5t-50 -91t-17 -110v-565h-170z" />
<glyph unicode="i" horiz-adv-x="473" d="M152 0v975h170v-975h-170zM152 1186v217h170v-217h-170z" />
<glyph unicode="j" horiz-adv-x="464" d="M-23 -287q10 -2 24.5 -3t35.5 -1q41 0 62.5 9.5t31.5 27.5q10 16 13 37.5t3 62.5v1129h170v-1163q0 -80 -14 -121q-23 -66 -79 -95.5t-154 -29.5q-53 0 -93 6v141zM147 1186v217h170v-217h-170z" />
<glyph unicode="k" horiz-adv-x="985" d="M152 0v1434h170v-893l444 434h213l-399 -381l436 -594h-213l-346 479l-135 -133v-346h-170z" />
<glyph unicode="l" horiz-adv-x="473" d="M152 0v1434h170v-1434h-170z" />
<glyph unicode="m" horiz-adv-x="1662" d="M152 0v975h170v-144q33 72 113.5 120t178.5 48q217 0 279 -184q18 35 48 69t71 59.5t92 40.5t113 15q100 0 174.5 -48t107.5 -152q10 -35 16.5 -79t6.5 -99v-621h-170v557q0 61 -6.5 105.5t-16.5 74.5q-25 66 -70 90.5t-104 24.5q-49 0 -92 -21.5t-74 -60.5t-49 -90 t-18 -111v-569h-170v557q0 61 -6.5 105.5t-16.5 74.5q-25 66 -70 90.5t-104 24.5q-49 0 -92 -21.5t-74 -60.5t-49 -90t-18 -111v-569h-170z" />
<glyph unicode="n" horiz-adv-x="1112" d="M152 0v975h170v-144q41 72 117.5 120t201.5 48q158 0 244 -94q23 -27 39 -54.5t26.5 -66.5t15.5 -94t5 -135v-555h-170v569q0 160 -56.5 220.5t-164.5 60.5q-61 0 -109.5 -22.5t-81.5 -61.5t-50 -91t-17 -110v-565h-170z" />
<glyph unicode="o" horiz-adv-x="1101" d="M86 483q0 117 34 212.5t95 163t147.5 103t188.5 35.5t188 -35.5t147.5 -103t95.5 -163t34 -212.5t-34 -211t-94.5 -159.5t-146.5 -101.5t-190 -36t-190.5 36t-146.5 101.5t-94 159.5t-34 211zM260 485q0 -176 81 -272t210 -96t210 97t81 271q0 178 -79 275.5t-212 97.5 t-212 -98.5t-79 -274.5z" />
<glyph unicode="p" horiz-adv-x="1150" d="M152 -428v1403h170v-144q12 25 38.5 54.5t65.5 54.5t91 41t118 16q92 0 170 -33.5t136 -99t91 -161t33 -218.5q0 -121 -32 -215t-88 -159.5t-134 -100.5t-170 -35q-70 0 -123 17.5t-93 42t-65.5 54.5t-37.5 54v-571h-170zM305 489q0 -92 23.5 -161.5t64.5 -115.5 t96.5 -69.5t118.5 -23.5q133 0 208 97t75 273q0 180 -79 274.5t-208 94.5q-63 0 -117.5 -23.5t-94.5 -69.5t-63.5 -115t-23.5 -161z" />
<glyph unicode="q" horiz-adv-x="1150" d="M86 485q0 123 33 218.5t91 161t136 99t170 33.5q66 0 118 -16t91 -41t65.5 -54.5t38.5 -54.5v144h170v-1403h-170v571q-12 -25 -37.5 -54.5t-65.5 -54t-93 -42t-123 -17.5q-92 0 -170 35t-134 100.5t-88 160t-32 214.5zM260 489q0 -176 75 -273t208 -97q63 0 118.5 23.5 t96.5 69.5t64.5 115.5t23.5 161.5t-23.5 161t-63.5 115t-94.5 69.5t-117.5 23.5q-129 0 -208 -94t-79 -275z" />
<glyph unicode="r" horiz-adv-x="684" d="M152 0v975h170v-184q8 43 36.5 80.5t68.5 66.5t89 45t100 16q33 0 56 -6v-162q-31 6 -64 7q-70 0 -123 -29t-90 -75t-55 -104.5t-18 -119.5v-510h-170z" />
<glyph unicode="s" horiz-adv-x="948" d="M53 168l113 121q45 -74 126 -123t183 -49q96 0 160.5 40t64.5 113q0 70 -48 93.5t-122 37.5l-139 27q-63 12 -117.5 31.5t-95.5 52.5t-64.5 78t-23.5 110q0 78 33 134.5t86 92.5t119.5 53t134.5 17q137 0 229 -49t139 -104l-110 -111q-53 59 -122 91t-144 32 q-37 0 -72 -8t-61.5 -24.5t-43 -40t-16.5 -56.5q0 -72 57.5 -100.5t167.5 -51.5l107 -22q57 -12 108.5 -30.5t90 -49.5t60 -75t21.5 -107q0 -78 -31.5 -136.5t-87 -98.5t-131 -60.5t-161.5 -20.5q-143 0 -246.5 56.5t-163.5 136.5z" />
<glyph unicode="t" horiz-adv-x="604" d="M6 846v129h189v319l170 43v-362h215v-129h-215v-604q0 -33 2 -54.5t12 -37.5t28.5 -24.5t55.5 -8.5q35 0 65.5 6t51.5 12v-135q-37 -12 -83 -18.5t-87 -6.5q-70 0 -125.5 20.5t-77.5 82.5q-12 33 -12 94v674h-189z" />
<glyph unicode="u" horiz-adv-x="1101" d="M143 420v555h170v-561q0 -133 33 -197q27 -51 73 -71.5t116 -20.5q61 0 107 23.5t78 63.5t47 92t15 112v559h170v-975h-170v143q-41 -72 -114.5 -120t-196.5 -48q-76 0 -138.5 22.5t-105.5 70.5q-23 27 -39 54.5t-26 67t-14.5 95t-4.5 135.5z" />
<glyph unicode="v" horiz-adv-x="888" d="M12 975h178l203 -592q20 -59 35.5 -107.5t20.5 -64.5h2q4 16 19 64.5t38 113.5l201 586h168l-355 -975h-162z" />
<glyph unicode="w" horiz-adv-x="1476" d="M18 975h181l178 -535q20 -59 36.5 -116.5t26.5 -92.5h2q10 35 25.5 92.5t36.5 118.5l174 533h147l160 -535q18 -63 34.5 -118.5t27.5 -90.5h2q10 35 26.5 95.5t36.5 119.5l170 529h176l-338 -975h-153l-170 555q-18 61 -33.5 112.5t-20.5 69.5h-2q-4 -18 -18 -69.5 t-35 -114.5l-176 -553h-160z" />
<glyph unicode="x" horiz-adv-x="903" d="M16 0l340 506l-313 469h207l213 -342l215 342h188l-313 -459l334 -516h-205l-233 391l-246 -391h-187z" />
<glyph unicode="y" horiz-adv-x="874" d="M12 975h181l190 -590q10 -31 19.5 -61.5t17.5 -55.5q8 -29 16 -53h2q10 29 19 59q8 27 18 59t23 64l198 578h170l-432 -1184q-29 -78 -57.5 -123t-63.5 -67q-31 -23 -66.5 -29t-80.5 -6q-47 0 -83 9t-52 17v136q23 -10 54.5 -16.5t61.5 -6.5q37 0 60.5 10.5t40.5 30.5 q16 20 31.5 57t27.5 72l43 121z" />
<glyph unicode="z" horiz-adv-x="849" d="M45 0v135l549 699h-522v141h735v-131l-561 -703h567v-141h-768z" />
<glyph unicode="{" horiz-adv-x="696" d="M147 477v137q49 14 77 36t40 54.5t14.5 76.5t2.5 106v213q0 111 8 190.5t59 143.5q51 63 125 81.5t170 22.5v-129q-68 -8 -106.5 -23.5t-58 -44t-23.5 -72.5t-4 -108v-164q0 -121 -3.5 -198.5t-18.5 -126.5t-45 -78t-83 -47q53 -20 83 -48t45 -78t18.5 -129t3.5 -198 v-168q0 -63 4 -107t23.5 -73t58 -44t106.5 -24v-129q-47 2 -90 7.5t-80 15.5t-67.5 29.5t-57.5 52.5q-51 63 -59 143t-8 191v217q0 61 -2.5 105t-14.5 77t-39.5 54.5t-77.5 35.5z" />
<glyph unicode="|" horiz-adv-x="456" d="M147 -436v1972h162v-1972h-162z" />
<glyph unicode="}" horiz-adv-x="696" d="M53 -322q68 8 107 23.5t58.5 44.5t23.5 73t4 107v168q0 119 3 198t18.5 129t45 77.5t82.5 48.5q-53 18 -82.5 47t-45 78t-18.5 127t-3 198v164q0 63 -4 107.5t-23.5 73t-58.5 44t-107 23.5v129q94 -4 168 -22.5t127 -81.5q51 -63 59.5 -143.5t8.5 -190.5v-213 q0 -61 2 -105.5t14 -77t40 -54t77 -36.5v-137q-49 -14 -77 -35.5t-40 -54.5t-14 -77t-2 -105v-217q0 -111 -8.5 -191t-59.5 -143q-27 -33 -58.5 -52.5t-68.5 -29.5t-79 -15.5t-89 -7.5v129z" />
<glyph unicode="~" horiz-adv-x="1583" d="M293 569q14 20 36.5 52t56.5 62t78 50.5t99 20.5q66 0 125.5 -23.5t122.5 -54.5q47 -23 89 -42.5t81 -19.5q31 0 57.5 13.5t51 35t46 46t40.5 47.5l81 -140q-55 -70 -123.5 -122t-158.5 -52q-57 0 -110.5 19.5t-127.5 60.5q-41 23 -85 40.5t-91 17.5q-49 0 -87 -34 t-95 -110z" />
<glyph unicode="&#xa1;" horiz-adv-x="477" d="M147 719v256h183v-256h-183zM154 266l26 355h119l25 -355v-725h-170v725z" />
<glyph unicode="&#xa2;" d="M168 483q0 106 27.5 194.5t79 154t123 106.5t159.5 53v197h148v-195q123 -16 206.5 -82.5t126.5 -177.5l-143 -86q-23 74 -69 128t-121 73v-725q78 16 128 65.5t78 120.5l136 -84q-53 -106 -140.5 -167.5t-201.5 -77.5v-211h-148v213q-186 23 -287.5 155.5t-101.5 345.5z M342 485q0 -147 58.5 -239t156.5 -119v719q-100 -27 -157.5 -119t-57.5 -242z" />
<glyph unicode="&#xa3;" d="M70 0v147q63 4 106 20.5t69.5 53.5t39 97.5t12.5 154.5q0 37 -2 73t-6 91h-219v162h206q-2 47 -3 95t-1 95q0 94 18.5 180t63.5 149.5t122 101.5t196 38q113 0 189.5 -36t121.5 -92t64.5 -123.5t19.5 -131.5l-160 -47q-2 125 -58 200t-179 75q-74 0 -119 -25t-69.5 -67 t-33 -97t-8.5 -117q0 -33 2 -65.5t4 -65.5q2 -14 3.5 -33.5t1.5 -33.5h313v-162h-303q2 -37 3 -73t1 -70q0 -100 -17.5 -188.5t-66.5 -147.5q29 2 62.5 2h72.5h520v-160h-966z" />
<glyph unicode="&#xa4;" horiz-adv-x="1091" d="M82 231l125 125q-29 47 -46.5 102.5t-17.5 121.5t17.5 123t48.5 104q-31 33 -64.5 64.5t-62.5 60.5l117 117l125 -127q94 63 223 63q63 0 120.5 -15.5t104.5 -47.5l123 122l115 -114l-121 -123q31 -49 47 -105.5t16 -121.5q0 -133 -61 -228l60.5 -60.5l58.5 -58.5 l-115 -114l-121 123q-96 -66 -227 -66q-63 0 -121.5 15.5t-106.5 48.5l-122 -123zM295 580q0 -53 19.5 -99.5t53 -81t80 -55t99.5 -20.5q55 0 101 20.5t80 55t53.5 80.5t19.5 100q0 53 -19.5 100t-53.5 82t-80 55.5t-101 20.5q-53 0 -99.5 -19.5t-80 -54.5t-53 -82 t-19.5 -102z" />
<glyph unicode="&#xa5;" d="M37 1434h203l372 -670l355 670h204l-389 -670h310v-148h-396v-137h396v-147h-396v-332h-180v332h-399v147h399v137h-399v148h313z" />
<glyph unicode="&#xa6;" horiz-adv-x="462" d="M147 348h168v-784h-168v784zM147 752v784h168v-784h-168z" />
<glyph unicode="&#xa7;" d="M117 66l131 108q14 -23 45 -54.5t75 -60t101 -48t129 -19.5q111 0 166 44t55 116q0 43 -19.5 73.5t-52 55t-73.5 44t-84 37.5l-94 41q-68 29 -129.5 61t-107.5 74t-73.5 97t-27.5 131q0 51 17.5 98t46 87t65.5 71t78 51q-41 33 -81 88.5t-40 141.5q0 55 23.5 106t68.5 92 t110.5 65.5t149.5 24.5q74 0 134.5 -15t107.5 -39t81.5 -51.5t57.5 -53.5l-117 -119q-12 12 -35.5 33.5t-57.5 41t-78 34t-99 14.5q-90 0 -130 -39t-40 -92q0 -41 20.5 -72t55 -54.5t80 -43t92.5 -37.5q66 -27 131 -58.5t118.5 -74.5t87 -102.5t33.5 -141.5 q0 -57 -15 -105.5t-41 -86t-57.5 -67.5t-64.5 -48q23 -14 47.5 -36t44 -52.5t32.5 -68.5t13 -87q0 -68 -26.5 -128t-77.5 -105.5t-128 -72t-175 -26.5q-92 0 -169 23.5t-136.5 57.5t-101.5 74t-66 73zM334 784q0 -80 60.5 -127t158.5 -92l156 -71q78 33 115.5 89t37.5 119 q0 80 -64.5 130.5t-162.5 95.5q-33 14 -64.5 27.5t-66.5 27.5q-80 -31 -125 -83t-45 -116z" />
<glyph unicode="&#xa8;" horiz-adv-x="993" d="M225 1155v221h174v-221h-174zM594 1155v221h174v-221h-174z" />
<glyph unicode="&#xa9;" horiz-adv-x="1624" d="M72 717q0 156 56 292t156.5 235t235.5 156.5t293 57.5t293 -57.5t234.5 -156.5t155.5 -235t56 -292q0 -158 -56 -293t-155.5 -234.5t-234.5 -157t-293 -57.5t-293 57.5t-235.5 157t-156.5 234.5t-56 293zM217 717q0 -125 46 -235.5t126 -192.5t188.5 -130t235.5 -48 t235.5 48t188.5 130t125 192.5t45 235.5t-45 235.5t-125 192.5t-188.5 130t-235.5 48t-235.5 -48t-188.5 -130t-126 -192.5t-46 -235.5zM430 717q0 100 26.5 183t77 141.5t121 90t158.5 31.5q125 0 210 -64.5t128 -174.5l-119 -72q-31 90 -86 138t-133 48q-111 0 -175.5 -85 t-64.5 -234q0 -150 67 -233t173 -83q158 0 223 164l115 -73q-49 -100 -134 -157.5t-204 -57.5q-88 0 -158.5 30.5t-121 88t-77 138t-26.5 181.5z" />
<glyph unicode="&#xaa;" horiz-adv-x="645" d="M20 991q0 53 23 88t58.5 56.5t80.5 34t92 20.5l101 18q31 6 39 13.5t8 29.5q0 41 -23.5 71t-105.5 30q-72 0 -105.5 -36t-33.5 -99l-111 36q0 51 20.5 89t55.5 64t82 39t100 13q94 0 141 -23.5t72 -64.5q18 -35 22.5 -74t4.5 -92v-268q0 -29 11 -38t32 -9q29 0 41 6v-92 q-16 -4 -34 -7t-46 -3q-111 0 -117 94q-16 -31 -62.5 -65t-129.5 -34q-92 0 -154 54.5t-62 148.5zM150 991q0 -51 34.5 -73.5t83.5 -22.5q47 0 87 23.5t57 70.5q10 31 10 72v65q-14 -6 -29.5 -10t-44.5 -10l-65 -14q-49 -10 -91 -30t-42 -71z" />
<glyph unicode="&#xab;" horiz-adv-x="958" d="M102 518v213l310 258v-196l-201 -158l201 -174v-191zM516 518v213l309 258v-196l-200 -158l200 -174v-191z" />
<glyph unicode="&#xac;" horiz-adv-x="1583" d="M287 795v135h934v-565h-154v430h-780z" />
<glyph unicode="&#xad;" horiz-adv-x="692" d="M82 467v178h528v-178h-528z" />
<glyph unicode="&#xae;" horiz-adv-x="1624" d="M72 717q0 156 56 292t156.5 235t235.5 156.5t293 57.5t293 -57.5t234.5 -156.5t155.5 -235t56 -292q0 -158 -56 -293t-155.5 -234.5t-234.5 -157t-293 -57.5t-293 57.5t-235.5 157t-156.5 234.5t-56 293zM217 717q0 -125 46 -235.5t126 -192.5t188.5 -130t235.5 -48 t235.5 48t188.5 130t125 192.5t45 235.5t-45 235.5t-125 192.5t-188.5 130t-235.5 48t-235.5 -48t-188.5 -130t-126 -192.5t-46 -235.5zM483 293v856h353q113 0 172 -27q59 -29 102 -85t43 -140q0 -86 -41 -140.5t-104 -82.5q-14 -6 -34 -11.5t-36 -9.5q59 -86 130 -181 t130 -179h-168l-252 354h-162v-354h-133zM616 768h197q55 0 86 4t51 14q68 33 68 111q0 82 -68 115q-20 10 -50 12t-87 2h-197v-258z" />
<glyph unicode="&#xaf;" horiz-adv-x="964" d="M205 1214v138h555v-138h-555z" />
<glyph unicode="&#xb0;" horiz-adv-x="757" d="M41 1151q0 70 26.5 131t72.5 107.5t107.5 73t131.5 26.5t131 -26.5t107.5 -73t73 -107.5t26.5 -131t-26.5 -131.5t-73 -107.5t-107.5 -72.5t-131 -26.5t-131.5 26.5t-107.5 72.5t-72.5 107.5t-26.5 131.5zM227 1151q0 -63 44 -107.5t108 -44.5q63 0 107 44t44 108 q0 63 -44 107.5t-107 44.5t-107.5 -44.5t-44.5 -107.5z" />
<glyph unicode="&#xb1;" horiz-adv-x="1583" d="M190 0v156h1201v-156h-1201zM190 639v156h523v426h157v-426h521v-156h-521v-428h-157v428h-523z" />
<glyph unicode="&#xb2;" horiz-adv-x="737" d="M41 1165q0 59 22.5 112.5t63.5 93.5t99.5 63.5t129.5 23.5q82 0 142.5 -24.5t99.5 -66.5t57.5 -98.5t18.5 -119.5q0 -92 -38 -166t-96.5 -135.5t-130 -112.5t-139.5 -94v-2h402v-125h-617v115q29 18 67 43.5t79 56.5t84 64.5t82 68.5q66 57 113.5 125t47.5 158 q0 92 -49 139t-127 47q-90 0 -128 -50t-38 -116q0 -31 11.5 -70.5t33.5 -80.5l-163 22q-27 72 -27 129z" />
<glyph unicode="&#xb3;" horiz-adv-x="737" d="M27 786l139 74q-4 -66 10 -112t41 -73.5t61.5 -39.5t71.5 -12q88 0 139.5 43t51.5 120q0 45 -16.5 75t-43.5 46q-31 20 -76 27.5t-92 7.5h-98v121h86q57 0 97 7t69 26q23 16 37 41.5t14 62.5q0 61 -43 97t-125 36q-47 0 -79.5 -16.5t-54 -44t-31 -64.5t-7.5 -75l-131 67 q0 31 15.5 75t51.5 85t94 69.5t142 28.5q156 0 231.5 -71.5t75.5 -178.5q0 -78 -31.5 -126t-82.5 -74q53 -27 96 -82.5t43 -143.5q0 -125 -89 -204.5t-245 -79.5q-145 0 -229 77.5t-92 210.5z" />
<glyph unicode="&#xb4;" horiz-adv-x="915" d="M225 1155l215 279h250l-291 -279h-174z" />
<glyph unicode="&#xb6;" horiz-adv-x="1544" d="M143 1028q0 205 138 313q27 23 58.5 40.5t72.5 28.5t94 17.5t125 6.5h700v-134h-162v-1611h-145v1611h-227v-1611h-148v934h-18q-72 0 -125 6t-94 17t-73 28.5t-58 40.5q-137 109 -138 313z" />
<glyph unicode="&#xb7;" horiz-adv-x="350" d="M78 539v233h194v-233h-194z" />
<glyph unicode="&#xb8;" horiz-adv-x="735" d="M205 -117l96 131h113l-60 -84h6q72 0 121 -36.5t49 -112.5q0 -47 -17 -80t-46 -54.5t-64.5 -31.5t-74.5 -10q-29 0 -57.5 5t-53.5 15l25 78q31 -12 71 -12q39 0 68 16.5t29 56.5q0 39 -27 55.5t-61 16.5q-45 0 -76 -18z" />
<glyph unicode="&#xb9;" horiz-adv-x="737" d="M96 1133v114h43q49 0 83 9.5t57 25.5q31 23 45 60.5t16 91.5h123v-928h-137v627h-230z" />
<glyph unicode="&#xba;" horiz-adv-x="714" d="M63 1124q0 154 80 244t215 90t214 -90t79 -244q0 -156 -78.5 -244.5t-214.5 -88.5q-135 0 -215 88.5t-80 244.5zM186 1124q0 -109 49.5 -168t122.5 -59q72 0 121 60.5t49 166.5t-47 167t-123 61t-124 -62t-48 -166z" />
<glyph unicode="&#xbb;" horiz-adv-x="958" d="M133 270v191l201 174l-201 158v196l309 -258v-213zM547 270v191l201 174l-201 158v196l309 -258v-213z" />
<glyph unicode="&#xbc;" horiz-adv-x="1787" d="M104 1133v114h43q49 0 83 9.5t57 25.5q31 23 45 60.5t16 91.5h123v-928h-137v627h-230zM397 0l746 1434h149l-743 -1434h-152zM981 236v98l422 598h119v-576h155v-120h-155v-236h-138v236h-403zM1137 356h247v150q0 39 1 79t4 72l4 74l-19 -37q-10 -16 -20.5 -32.5 t-20.5 -32.5l-84 -123q-23 -31 -42 -57.5t-36 -47.5q-18 -23 -34 -45z" />
<glyph unicode="&#xbd;" horiz-adv-x="1787" d="M61 1133v114h43q49 0 83 9.5t57 25.5q31 23 45 60.5t16 91.5h123v-928h-137v627h-230zM328 0l745 1434h150l-744 -1434h-151zM1038 651q0 59 22.5 112.5t63.5 93.5t99.5 63.5t130.5 23.5q82 0 142 -24.5t99 -66.5t57.5 -98.5t18.5 -119.5q0 -92 -38 -166t-96 -135.5 t-130 -112.5t-139 -94v-2h401v-125h-616v115q29 18 66.5 43.5t78.5 56.5t84 64.5t82 68.5q66 57 114 125t48 158q0 92 -49.5 139t-126.5 47q-90 0 -128 -50t-38 -116q0 -31 11 -70.5t34 -80.5l-164 22q-27 72 -27 129z" />
<glyph unicode="&#xbe;" horiz-adv-x="1787" d="M37 786l139 74q-4 -66 10.5 -112t41 -73.5t61.5 -39.5t71 -12q88 0 139.5 43t51.5 120q0 45 -16.5 75t-42.5 46q-31 20 -76 27.5t-92 7.5h-99v121h86q57 0 97.5 7t68.5 26q23 16 37 41.5t14 62.5q0 61 -43 97t-125 36q-47 0 -79.5 -16.5t-54 -44t-31 -64.5t-7.5 -75 l-131 67q0 31 15.5 75t51.5 85t94 69.5t142 28.5q156 0 232 -71.5t76 -178.5q0 -78 -32 -126t-83 -74q53 -27 96 -82.5t43 -143.5q0 -125 -89 -204.5t-245 -79.5q-145 0 -229 77.5t-92 210.5zM502 0l745 1434h150l-744 -1434h-151zM1040 236v98l422 598h119v-576h156v-120 h-156v-236h-137v236h-404zM1196 356h248v150q0 39 1 79t3 72l4 74l-18 -37q-10 -16 -20.5 -32.5t-20.5 -32.5l-84 -123q-23 -31 -42.5 -57.5t-35.5 -47.5q-18 -23 -35 -45z" />
<glyph unicode="&#xbf;" horiz-adv-x="995" d="M49 -86q0 70 14.5 125t41 101t63.5 85t82 80l49 43q41 37 66.5 62.5t40 51t19.5 55.5t5 73v63h170v-78q0 -49 -5 -86.5t-22.5 -72.5t-47 -70t-79.5 -78l-77 -67q-72 -63 -109 -128t-37 -151q0 -53 17.5 -100t50.5 -82t81 -55.5t107 -20.5q63 0 110.5 20.5t80 56.5t49 83 t16.5 100q0 41 -6 75t-14 58q-8 29 -21 54l178 -27q6 -18 15 -43q6 -23 11 -54.5t5 -72.5q0 -82 -28.5 -154.5t-83 -126t-133 -85t-179.5 -31.5q-104 0 -184 30.5t-135.5 85t-83 126t-27.5 155.5zM428 745v230h174v-230h-174z" />
<glyph unicode="&#xc0;" horiz-adv-x="1232" d="M6 0l512 1440h205l504 -1440h-191l-143 418h-559l-144 -418h-184zM358 1841h250l215 -278h-174zM389 575h451l-181 525q-35 102 -45 145h-2q-6 -20 -17 -58t-28 -89z" />
<glyph unicode="&#xc1;" horiz-adv-x="1232" d="M6 0l512 1440h205l504 -1440h-191l-143 418h-559l-144 -418h-184zM389 575h451l-181 525q-35 102 -45 145h-2q-6 -20 -17 -58t-28 -89zM475 1563l215 278h250l-291 -278h-174z" />
<glyph unicode="&#xc2;" horiz-adv-x="1232" d="M6 0l512 1440h205l504 -1440h-191l-143 418h-559l-144 -418h-184zM330 1565l217 276h158l219 -276h-170l-129 147l-121 -147h-174zM389 575h451l-181 525q-35 102 -45 145h-2q-6 -20 -17 -58t-28 -89z" />
<glyph unicode="&#xc3;" horiz-adv-x="1232" d="M6 0l512 1440h205l504 -1440h-191l-143 418h-559l-144 -418h-184zM266 1612q8 23 24.5 58.5t43 69.5t63.5 57.5t88 23.5q37 0 71 -12.5t67 -30.5q29 -16 57.5 -31.5t56.5 -15.5q35 0 54.5 31.5t29.5 64.5l135 -35q-16 -37 -34.5 -74t-44 -66.5t-58.5 -48t-78 -18.5 t-85 16.5t-74 34.5q-23 10 -49.5 26.5t-55.5 16.5q-16 0 -28.5 -10t-21.5 -24.5t-15 -32t-9 -29.5zM389 575h451l-181 525q-35 102 -45 145h-2q-6 -20 -17 -58t-28 -89z" />
<glyph unicode="&#xc4;" horiz-adv-x="1232" d="M6 0l512 1440h205l504 -1440h-191l-143 418h-559l-144 -418h-184zM354 1563v221h174v-221h-174zM389 575h451l-181 525q-35 102 -45 145h-2q-6 -20 -17 -58t-28 -89zM723 1563v221h174v-221h-174z" />
<glyph unicode="&#xc5;" horiz-adv-x="1232" d="M6 0l512 1440h205l504 -1440h-191l-143 418h-559l-144 -418h-184zM389 575h451l-181 525q-35 102 -45 145h-2q-6 -20 -17 -58t-28 -89zM416 1718q0 86 58 143.5t144 57.5t144.5 -57.5t58.5 -143.5t-58 -143t-145 -57q-86 0 -144 57t-58 143zM537 1718q0 -35 23.5 -57.5 t55.5 -22.5q33 0 56.5 22.5t23.5 57.5t-23.5 57.5t-56.5 22.5t-56 -22.5t-23 -57.5z" />
<glyph unicode="&#xc6;" horiz-adv-x="1943" d="M-82 0l854 1434h1061v-166h-778v-445h706v-166h-706v-489h819v-168h-1000v385h-528l-223 -385h-205zM438 547h436v471v127t3 88q0 41 2 70h-2q-29 -55 -67 -118t-79 -134z" />
<glyph unicode="&#xc7;" horiz-adv-x="1368" d="M92 717q0 164 45 300t130 234.5t205 152.5t269 54q190 0 328.5 -85t220.5 -236l-147 -103q-53 129 -155.5 200t-246.5 71q-109 0 -194.5 -42t-145 -119t-90 -185.5t-30.5 -241.5t30.5 -241.5t90 -185.5t145.5 -119t194 -42q145 0 248 73.5t156 203.5l158 -84 q-76 -154 -207 -244t-316 -101l-32 -47h6q72 0 121 -36.5t49 -112.5q0 -47 -17.5 -80t-46.5 -54.5t-64.5 -31.5t-74.5 -10q-29 0 -57.5 5t-53.5 15l25 78q31 -12 72 -12q39 0 67.5 16.5t28.5 56.5q0 39 -26.5 55.5t-61.5 16.5q-45 0 -76 -18l-41 65l76 97 q-135 12 -242.5 70.5t-183.5 154.5t-116 227t-40 285z" />
<glyph unicode="&#xc8;" horiz-adv-x="1228" d="M160 0v1434h958v-166h-778v-445h707v-166h-707v-489h819v-168h-999zM358 1841h250l215 -278h-174z" />
<glyph unicode="&#xc9;" horiz-adv-x="1228" d="M160 0v1434h958v-166h-778v-445h707v-166h-707v-489h819v-168h-999zM492 1563l215 278h249l-290 -278h-174z" />
<glyph unicode="&#xca;" horiz-adv-x="1228" d="M160 0v1434h958v-166h-778v-445h707v-166h-707v-489h819v-168h-999zM344 1565l217 276h158l219 -276h-170l-129 147l-121 -147h-174z" />
<glyph unicode="&#xcb;" horiz-adv-x="1228" d="M160 0v1434h958v-166h-778v-445h707v-166h-707v-489h819v-168h-999zM379 1563v221h174v-221h-174zM748 1563v221h174v-221h-174z" />
<glyph unicode="&#xcc;" horiz-adv-x="489" d="M-18 1841h249l215 -278h-174zM154 0v1434h180v-1434h-180z" />
<glyph unicode="&#xcd;" horiz-adv-x="489" d="M80 1563l215 278h250l-291 -278h-174zM154 0v1434h180v-1434h-180z" />
<glyph unicode="&#xce;" horiz-adv-x="489" d="M-45 1565l217 276h158l219 -276h-170l-129 147l-121 -147h-174zM154 0v1434h180v-1434h-180z" />
<glyph unicode="&#xcf;" horiz-adv-x="489" d="M-23 1563v221h175v-221h-175zM154 0v1434h180v-1434h-180zM346 1563v221h174v-221h-174z" />
<glyph unicode="&#xd0;" horiz-adv-x="1394" d="M8 690v160h160v584h354q86 0 159 -2t135.5 -11.5t117.5 -30t108 -59.5q117 -84 191 -241.5t74 -368.5q0 -180 -54.5 -326.5t-154.5 -244.5q-57 -55 -116.5 -86t-128.5 -45.5t-152 -16.5t-187 -2h-346v690h-160zM348 162h203q66 0 123 1t106 8t92 25.5t84 53.5 q74 63 122 183t48 280q0 141 -45 264t-131 197q-39 33 -81 52t-92 28.5t-112.5 11.5t-142.5 2h-174v-418h436v-160h-436v-528z" />
<glyph unicode="&#xd1;" horiz-adv-x="1439" d="M160 0v1434h166l665 -951q18 -25 35.5 -50t33 -48t26 -39t14.5 -22h2q-2 29 -2 63v141v906h180v-1434h-166l-661 950q-16 20 -34 47t-35 50.5t-29.5 42t-14.5 24.5h-2v-51q0 -23 1 -53.5t1 -63.5v-946h-180zM389 1612q8 23 24.5 58.5t43 69.5t63.5 57.5t88 23.5 q37 0 71 -12.5t66 -30.5q29 -16 57.5 -31.5t57.5 -15.5q35 0 54.5 31.5t29.5 64.5l135 -35q-16 -37 -34.5 -74t-44 -66.5t-58.5 -48t-78 -18.5t-85 16.5t-74 34.5q-23 10 -49.5 26.5t-55.5 16.5q-16 0 -28.5 -10t-21.5 -24.5t-15.5 -32t-8.5 -29.5z" />
<glyph unicode="&#xd2;" horiz-adv-x="1476" d="M90 717q0 164 45 300t130 234.5t205 152.5t269 54q150 0 269.5 -54t203.5 -152.5t129 -234.5t45 -300t-45 -300t-128 -234.5t-203.5 -153t-270.5 -54.5t-269.5 54.5t-204.5 153t-130 234.5t-45 300zM276 717q0 -133 32 -241.5t91.5 -185.5t145.5 -119t194 -42 q109 0 194 42t144.5 119t91 185.5t31.5 241.5t-30.5 241.5t-90 185.5t-145.5 119t-195 42t-194.5 -42t-145 -119t-91.5 -185.5t-32 -241.5zM461 1841h250l215 -278h-174z" />
<glyph unicode="&#xd3;" horiz-adv-x="1476" d="M90 717q0 164 45 300t130 234.5t205 152.5t269 54q150 0 269.5 -54t203.5 -152.5t129 -234.5t45 -300t-45 -300t-128 -234.5t-203.5 -153t-270.5 -54.5t-269.5 54.5t-204.5 153t-130 234.5t-45 300zM276 717q0 -133 32 -241.5t91.5 -185.5t145.5 -119t194 -42 q109 0 194 42t144.5 119t91 185.5t31.5 241.5t-30.5 241.5t-90 185.5t-145.5 119t-195 42t-194.5 -42t-145 -119t-91.5 -185.5t-32 -241.5zM571 1563l215 278h250l-291 -278h-174z" />
<glyph unicode="&#xd4;" horiz-adv-x="1476" d="M90 717q0 164 45 300t130 234.5t205 152.5t269 54q150 0 269.5 -54t203.5 -152.5t129 -234.5t45 -300t-45 -300t-128 -234.5t-203.5 -153t-270.5 -54.5t-269.5 54.5t-204.5 153t-130 234.5t-45 300zM276 717q0 -133 32 -241.5t91.5 -185.5t145.5 -119t194 -42 q109 0 194 42t144.5 119t91 185.5t31.5 241.5t-30.5 241.5t-90 185.5t-145.5 119t-195 42t-194.5 -42t-145 -119t-91.5 -185.5t-32 -241.5zM451 1565l217 276h157l219 -276h-170l-129 147l-120 -147h-174z" />
<glyph unicode="&#xd5;" horiz-adv-x="1476" d="M90 717q0 164 45 300t130 234.5t205 152.5t269 54q150 0 269.5 -54t203.5 -152.5t129 -234.5t45 -300t-45 -300t-128 -234.5t-203.5 -153t-270.5 -54.5t-269.5 54.5t-204.5 153t-130 234.5t-45 300zM276 717q0 -133 32 -241.5t91.5 -185.5t145.5 -119t194 -42 q109 0 194 42t144.5 119t91 185.5t31.5 241.5t-30.5 241.5t-90 185.5t-145.5 119t-195 42t-194.5 -42t-145 -119t-91.5 -185.5t-32 -241.5zM401 1612q8 23 24.5 58.5t43.5 69.5t63.5 57.5t88.5 23.5q37 0 70.5 -12.5t66.5 -30.5q29 -16 57.5 -31.5t56.5 -15.5 q35 0 54.5 31.5t29.5 64.5l136 -35q-16 -37 -35 -74t-44.5 -66.5t-58 -48t-77.5 -18.5t-85 16.5t-75 34.5q-23 10 -49.5 26.5t-55.5 16.5q-16 0 -28.5 -10t-21.5 -24.5t-15 -32t-8 -29.5z" />
<glyph unicode="&#xd6;" horiz-adv-x="1476" d="M90 717q0 164 45 300t130 234.5t205 152.5t269 54q150 0 269.5 -54t203.5 -152.5t129 -234.5t45 -300t-45 -300t-128 -234.5t-203.5 -153t-270.5 -54.5t-269.5 54.5t-204.5 153t-130 234.5t-45 300zM276 717q0 -133 32 -241.5t91.5 -185.5t145.5 -119t194 -42 q109 0 194 42t144.5 119t91 185.5t31.5 241.5t-30.5 241.5t-90 185.5t-145.5 119t-195 42t-194.5 -42t-145 -119t-91.5 -185.5t-32 -241.5zM477 1563v221h174v-221h-174zM846 1563v221h174v-221h-174z" />
<glyph unicode="&#xd7;" horiz-adv-x="1583" d="M225 150l453 452l-451 453l111 110l450 -452l455 454l113 -112l-455 -455l453 -450l-111 -111l-452 450l-453 -452z" />
<glyph unicode="&#xd8;" horiz-adv-x="1478" d="M31 33l188 211q-61 94 -94 213t-33 260q0 164 45 300t130 234.5t205 152.5t269 54q129 0 236.5 -41t189.5 -119l166 187l123 -109l-184 -207q55 -92 86 -205.5t31 -246.5q0 -164 -45.5 -300t-128 -234.5t-203.5 -153t-271 -54.5q-125 0 -228 37t-183 107l-174 -195z M279 717q0 -197 65 -334l711 791q-59 63 -137 97t-177 34q-109 0 -194.5 -42t-145 -119t-91 -185.5t-31.5 -241.5zM442 244q57 -55 132 -85t167 -30q109 0 194 42t144.5 119t91 185.5t31.5 241.5q0 174 -57 311z" />
<glyph unicode="&#xd9;" horiz-adv-x="1355" d="M131 594v840h180v-844q0 -59 2 -102.5t7.5 -74t11.5 -54t16 -46.5q41 -92 124 -136t206 -44t205 44t123 136q10 23 17 46.5t12 54t7 73.5t2 103v844h181v-840q0 -80 -4 -138.5t-13.5 -103.5t-23 -80.5t-33.5 -70.5q-68 -117 -190.5 -172.5t-282.5 -55.5t-283 55.5 t-190 172.5q-20 35 -33.5 70.5t-23 80.5t-13.5 103.5t-4 138.5zM358 1841h250l215 -278h-174z" />
<glyph unicode="&#xda;" horiz-adv-x="1355" d="M131 594v840h180v-844q0 -59 2 -102.5t7.5 -74t11.5 -54t16 -46.5q41 -92 124 -136t206 -44t205 44t123 136q10 23 17 46.5t12 54t7 73.5t2 103v844h181v-840q0 -80 -4 -138.5t-13.5 -103.5t-23 -80.5t-33.5 -70.5q-68 -117 -190.5 -172.5t-282.5 -55.5t-283 55.5 t-190 172.5q-20 35 -33.5 70.5t-23 80.5t-13.5 103.5t-4 138.5zM535 1563l215 278h249l-290 -278h-174z" />
<glyph unicode="&#xdb;" horiz-adv-x="1355" d="M131 594v840h180v-844q0 -59 2 -102.5t7.5 -74t11.5 -54t16 -46.5q41 -92 124 -136t206 -44t205 44t123 136q10 23 17 46.5t12 54t7 73.5t2 103v844h181v-840q0 -80 -4 -138.5t-13.5 -103.5t-23 -80.5t-33.5 -70.5q-68 -117 -190.5 -172.5t-282.5 -55.5t-283 55.5 t-190 172.5q-20 35 -33.5 70.5t-23 80.5t-13.5 103.5t-4 138.5zM387 1565l217 276h158l219 -276h-170l-129 147l-121 -147h-174z" />
<glyph unicode="&#xdc;" horiz-adv-x="1355" d="M131 594v840h180v-844q0 -59 2 -102.5t7.5 -74t11.5 -54t16 -46.5q41 -92 124 -136t206 -44t205 44t123 136q10 23 17 46.5t12 54t7 73.5t2 103v844h181v-840q0 -80 -4 -138.5t-13.5 -103.5t-23 -80.5t-33.5 -70.5q-68 -117 -190.5 -172.5t-282.5 -55.5t-283 55.5 t-190 172.5q-20 35 -33.5 70.5t-23 80.5t-13.5 103.5t-4 138.5zM408 1563v221h174v-221h-174zM776 1563v221h174v-221h-174z" />
<glyph unicode="&#xdd;" horiz-adv-x="1245" d="M2 1434h209l407 -668l418 668h207l-545 -844v-590h-180v590zM492 1563l215 278h249l-290 -278h-174z" />
<glyph unicode="&#xde;" horiz-adv-x="1255" d="M160 0v1434h180v-199h354q109 0 174.5 -10.5t116.5 -32.5q111 -49 175.5 -140t64.5 -229q0 -117 -50.5 -202.5t-136.5 -139.5q-76 -47 -160.5 -58t-207.5 -11h-330v-412h-180zM340 575h330q98 0 150 9.5t93 25.5q125 55 125 213q0 78 -33.5 131.5t-95.5 81.5 q-20 8 -41.5 14.5t-49 11.5t-64.5 7t-86 2h-328v-496z" />
<glyph unicode="&#xdf;" horiz-adv-x="1056" d="M152 0v958q0 72 3 123.5t9 89t15 64.5t22 51q45 86 128 129t195 43q92 0 161 -26.5t114 -71.5t66.5 -105.5t21.5 -130.5q0 -109 -33 -172t-90 -96q33 -16 65.5 -43t58 -75t41 -118.5t15.5 -173.5q0 -127 -22.5 -215t-64.5 -142t-101.5 -78.5t-132.5 -24.5 q-88 0 -138.5 25.5t-78.5 72.5q-31 47 -38.5 107.5t-7.5 168.5v21h127v-35q0 -53 3.5 -90t13.5 -66q10 -31 36.5 -51t75.5 -20q92 0 125 82t33 248q0 98 -15.5 169.5t-64.5 110.5q-27 23 -75 33t-142 10h-61v135h47q76 0 109.5 5.5t56.5 15.5q49 23 70.5 79t21.5 115 q0 78 -50 135.5t-149 57.5q-139 0 -178 -109q-6 -16 -10 -34.5t-7 -46t-4 -68.5t-1 -103v-954h-170z" />
<glyph unicode="&#xe0;" horiz-adv-x="1028" d="M88 279q0 76 26.5 127t72.5 84.5t110.5 53t142.5 31.5l189 33q55 8 68.5 22.5t13.5 55.5q0 37 -8.5 67.5t-31 53t-63.5 36t-106 13.5q-68 0 -113 -16.5t-71.5 -44t-38 -64.5t-11.5 -78l-151 21q-4 82 26.5 143.5t84 101t126 59t154.5 19.5q141 0 216 -36.5t110 -96.5 q27 -47 32.5 -109.5t5.5 -142.5v-419q0 -51 20.5 -69t53.5 -18q29 0 45 7v-121q-16 -4 -41.5 -8t-62.5 -4q-82 0 -120 33.5t-44 88.5h-2q-12 -18 -33.5 -39.5t-57.5 -41t-87 -33t-121 -13.5q-72 0 -133.5 19.5t-106.5 57.5t-69.5 95.5t-24.5 131.5zM221 1434h250l215 -279 h-174zM262 281q0 -86 58.5 -126t144.5 -40q47 0 92 11t79 37.5t54.5 71t20.5 109.5v154q-25 -12 -127 -31l-107 -21q-41 -8 -79 -18t-68.5 -27.5t-49 -46t-18.5 -73.5z" />
<glyph unicode="&#xe1;" horiz-adv-x="1028" d="M88 279q0 76 26.5 127t72.5 84.5t110.5 53t142.5 31.5l189 33q55 8 68.5 22.5t13.5 55.5q0 37 -8.5 67.5t-31 53t-63.5 36t-106 13.5q-68 0 -113 -16.5t-71.5 -44t-38 -64.5t-11.5 -78l-151 21q-4 82 26.5 143.5t84 101t126 59t154.5 19.5q141 0 216 -36.5t110 -96.5 q27 -47 32.5 -109.5t5.5 -142.5v-419q0 -51 20.5 -69t53.5 -18q29 0 45 7v-121q-16 -4 -41.5 -8t-62.5 -4q-82 0 -120 33.5t-44 88.5h-2q-12 -18 -33.5 -39.5t-57.5 -41t-87 -33t-121 -13.5q-72 0 -133.5 19.5t-106.5 57.5t-69.5 95.5t-24.5 131.5zM262 281q0 -86 58.5 -126 t144.5 -40q47 0 92 11t79 37.5t54.5 71t20.5 109.5v154q-25 -12 -127 -31l-107 -21q-41 -8 -79 -18t-68.5 -27.5t-49 -46t-18.5 -73.5zM365 1155l215 279h249l-290 -279h-174z" />
<glyph unicode="&#xe2;" horiz-adv-x="1028" d="M88 279q0 76 26.5 127t72.5 84.5t110.5 53t142.5 31.5l189 33q55 8 68.5 22.5t13.5 55.5q0 37 -8.5 67.5t-31 53t-63.5 36t-106 13.5q-68 0 -113 -16.5t-71.5 -44t-38 -64.5t-11.5 -78l-151 21q-4 82 26.5 143.5t84 101t126 59t154.5 19.5q141 0 216 -36.5t110 -96.5 q27 -47 32.5 -109.5t5.5 -142.5v-419q0 -51 20.5 -69t53.5 -18q29 0 45 7v-121q-16 -4 -41.5 -8t-62.5 -4q-82 0 -120 33.5t-44 88.5h-2q-12 -18 -33.5 -39.5t-57.5 -41t-87 -33t-121 -13.5q-72 0 -133.5 19.5t-106.5 57.5t-69.5 95.5t-24.5 131.5zM215 1157l217 277h158 l219 -277h-170l-129 148l-121 -148h-174zM262 281q0 -86 58.5 -126t144.5 -40q47 0 92 11t79 37.5t54.5 71t20.5 109.5v154q-25 -12 -127 -31l-107 -21q-41 -8 -79 -18t-68.5 -27.5t-49 -46t-18.5 -73.5z" />
<glyph unicode="&#xe3;" horiz-adv-x="1028" d="M88 279q0 76 26.5 127t72.5 84.5t110.5 53t142.5 31.5l189 33q55 8 68.5 22.5t13.5 55.5q0 37 -8.5 67.5t-31 53t-63.5 36t-106 13.5q-68 0 -113 -16.5t-71.5 -44t-38 -64.5t-11.5 -78l-151 21q-4 82 26.5 143.5t84 101t126 59t154.5 19.5q141 0 216 -36.5t110 -96.5 q27 -47 32.5 -109.5t5.5 -142.5v-419q0 -51 20.5 -69t53.5 -18q29 0 45 7v-121q-16 -4 -41.5 -8t-62.5 -4q-82 0 -120 33.5t-44 88.5h-2q-12 -18 -33.5 -39.5t-57.5 -41t-87 -33t-121 -13.5q-72 0 -133.5 19.5t-106.5 57.5t-69.5 95.5t-24.5 131.5zM176 1202q8 23 24.5 58.5 t43 69.5t63.5 57.5t88 23.5q37 0 71 -12.5t66 -30.5q29 -16 57.5 -31.5t57.5 -15.5q35 0 54.5 31.5t29.5 64.5l135 -35q-16 -37 -34.5 -73.5t-44 -66.5t-58.5 -48t-78 -18t-85 16t-74 35q-23 10 -49.5 26.5t-55.5 16.5q-16 0 -28.5 -10.5t-21.5 -24.5t-15.5 -31.5 t-8.5 -29.5zM262 281q0 -86 58.5 -126t144.5 -40q47 0 92 11t79 37.5t54.5 71t20.5 109.5v154q-25 -12 -127 -31l-107 -21q-41 -8 -79 -18t-68.5 -27.5t-49 -46t-18.5 -73.5z" />
<glyph unicode="&#xe4;" horiz-adv-x="1028" d="M88 279q0 76 26.5 127t72.5 84.5t110.5 53t142.5 31.5l189 33q55 8 68.5 22.5t13.5 55.5q0 37 -8.5 67.5t-31 53t-63.5 36t-106 13.5q-68 0 -113 -16.5t-71.5 -44t-38 -64.5t-11.5 -78l-151 21q-4 82 26.5 143.5t84 101t126 59t154.5 19.5q141 0 216 -36.5t110 -96.5 q27 -47 32.5 -109.5t5.5 -142.5v-419q0 -51 20.5 -69t53.5 -18q29 0 45 7v-121q-16 -4 -41.5 -8t-62.5 -4q-82 0 -120 33.5t-44 88.5h-2q-12 -18 -33.5 -39.5t-57.5 -41t-87 -33t-121 -13.5q-72 0 -133.5 19.5t-106.5 57.5t-69.5 95.5t-24.5 131.5zM244 1155v221h174v-221 h-174zM262 281q0 -86 58.5 -126t144.5 -40q47 0 92 11t79 37.5t54.5 71t20.5 109.5v154q-25 -12 -127 -31l-107 -21q-41 -8 -79 -18t-68.5 -27.5t-49 -46t-18.5 -73.5zM612 1155v221h174v-221h-174z" />
<glyph unicode="&#xe5;" horiz-adv-x="1028" d="M88 279q0 76 26.5 127t72.5 84.5t110.5 53t142.5 31.5l189 33q55 8 68.5 22.5t13.5 55.5q0 37 -8.5 67.5t-31 53t-63.5 36t-106 13.5q-68 0 -113 -16.5t-71.5 -44t-38 -64.5t-11.5 -78l-151 21q-4 82 26.5 143.5t84 101t126 59t154.5 19.5q141 0 216 -36.5t110 -96.5 q27 -47 32.5 -109.5t5.5 -142.5v-419q0 -51 20.5 -69t53.5 -18q29 0 45 7v-121q-16 -4 -41.5 -8t-62.5 -4q-82 0 -120 33.5t-44 88.5h-2q-12 -18 -33.5 -39.5t-57.5 -41t-87 -33t-121 -13.5q-72 0 -133.5 19.5t-106.5 57.5t-69.5 95.5t-24.5 131.5zM262 281q0 -86 58.5 -126 t144.5 -40q47 0 92 11t79 37.5t54.5 71t20.5 109.5v154q-25 -12 -127 -31l-107 -21q-41 -8 -79 -18t-68.5 -27.5t-49 -46t-18.5 -73.5zM307 1290q0 86 58.5 143.5t144.5 57.5t144.5 -57.5t58.5 -143.5t-58.5 -143t-144.5 -57t-144.5 57t-58.5 143zM428 1290 q0 -35 23.5 -57.5t56.5 -22.5t56.5 22.5t23.5 57.5t-23.5 57.5t-56.5 22.5t-56.5 -22.5t-23.5 -57.5z" />
<glyph unicode="&#xe6;" horiz-adv-x="1683" d="M88 279q0 76 26.5 127t72.5 84.5t110.5 53t142.5 31.5l189 33q55 8 68.5 22.5t13.5 55.5q0 37 -8.5 67.5t-31 53t-63.5 36t-106 13.5q-68 0 -113 -16.5t-71.5 -44t-38 -64.5t-11.5 -78l-151 21q-4 82 26.5 143.5t84 101t126 59t154.5 19.5q137 0 212 -34.5t109 -92.5 q61 59 142.5 93t179.5 34q111 0 192.5 -39.5t136 -108.5t82 -163t27.5 -203v-34h-729q2 -57 19.5 -116t53.5 -105t93 -75.5t139 -29.5q68 0 117 18.5t85 46t59.5 56t35.5 51.5l123 -92q-14 -23 -46 -61t-84 -74.5t-127 -64.5t-175 -28q-117 0 -209 43t-153 123 q-12 -18 -38 -46.5t-68 -55.5t-105.5 -45.5t-153.5 -18.5q-74 0 -135.5 19.5t-106.5 57.5t-70.5 95.5t-25.5 131.5zM262 281q0 -86 58.5 -126t144.5 -40q47 0 92 11t79 37.5t54.5 71t20.5 109.5v154q-25 -12 -127 -31l-107 -21q-41 -8 -79 -18t-68.5 -27.5t-49 -46 t-18.5 -73.5zM866 584h547q-10 129 -77.5 202.5t-184.5 73.5q-113 0 -191.5 -73.5t-93.5 -202.5z" />
<glyph unicode="&#xe7;" horiz-adv-x="1007" d="M86 483q0 117 34 212.5t95 163t147.5 103t188.5 35.5q154 0 255 -68.5t150 -195.5l-143 -86q-29 92 -90 150.5t-172 58.5q-133 0 -212 -97t-79 -274q0 -176 82 -272t211 -96q111 0 176.5 53t99.5 139l136 -84q-117 -231 -377 -248l-33 -47h6q72 0 121 -36.5t49 -112.5 q0 -47 -17.5 -80t-46 -54.5t-64.5 -31.5t-75 -10q-29 0 -57.5 5t-52.5 15l24 78q31 -12 72 -12q39 0 67.5 16.5t28.5 56.5q0 39 -26.5 55.5t-61.5 16.5q-45 0 -76 -18l-40 65l77 97q-188 23 -292.5 154.5t-104.5 348.5z" />
<glyph unicode="&#xe8;" horiz-adv-x="1081" d="M86 492q0 113 34 206t95 159.5t146 103t188 36.5q111 0 192.5 -39.5t136 -108.5t82 -163t27.5 -203v-34h-729q2 -57 19.5 -116t53.5 -105t93 -75.5t139 -29.5q68 0 117 18.5t85 46t59.5 56t35.5 51.5l123 -92q-14 -23 -46 -61t-84 -74.5t-127 -64.5t-175 -28 q-104 0 -190.5 35t-146.5 101.5t-94 162t-34 218.5zM260 1434h250l215 -279h-174zM264 584h547q-10 129 -77.5 202.5t-184.5 73.5q-113 0 -191.5 -73.5t-93.5 -202.5z" />
<glyph unicode="&#xe9;" horiz-adv-x="1081" d="M86 492q0 113 34 206t95 159.5t146 103t188 36.5q111 0 192.5 -39.5t136 -108.5t82 -163t27.5 -203v-34h-729q2 -57 19.5 -116t53.5 -105t93 -75.5t139 -29.5q68 0 117 18.5t85 46t59.5 56t35.5 51.5l123 -92q-14 -23 -46 -61t-84 -74.5t-127 -64.5t-175 -28 q-104 0 -190.5 35t-146.5 101.5t-94 162t-34 218.5zM264 584h547q-10 129 -77.5 202.5t-184.5 73.5q-113 0 -191.5 -73.5t-93.5 -202.5zM387 1155l215 279h250l-291 -279h-174z" />
<glyph unicode="&#xea;" horiz-adv-x="1081" d="M86 492q0 113 34 206t95 159.5t146 103t188 36.5q111 0 192.5 -39.5t136 -108.5t82 -163t27.5 -203v-34h-729q2 -57 19.5 -116t53.5 -105t93 -75.5t139 -29.5q68 0 117 18.5t85 46t59.5 56t35.5 51.5l123 -92q-14 -23 -46 -61t-84 -74.5t-127 -64.5t-175 -28 q-104 0 -190.5 35t-146.5 101.5t-94 162t-34 218.5zM254 1157l217 277h158l219 -277h-170l-129 148l-121 -148h-174zM264 584h547q-10 129 -77.5 202.5t-184.5 73.5q-113 0 -191.5 -73.5t-93.5 -202.5z" />
<glyph unicode="&#xeb;" horiz-adv-x="1081" d="M86 492q0 113 34 206t95 159.5t146 103t188 36.5q111 0 192.5 -39.5t136 -108.5t82 -163t27.5 -203v-34h-729q2 -57 19.5 -116t53.5 -105t93 -75.5t139 -29.5q68 0 117 18.5t85 46t59.5 56t35.5 51.5l123 -92q-14 -23 -46 -61t-84 -74.5t-127 -64.5t-175 -28 q-104 0 -190.5 35t-146.5 101.5t-94 162t-34 218.5zM264 584h547q-10 129 -77.5 202.5t-184.5 73.5q-113 0 -191.5 -73.5t-93.5 -202.5zM287 1155v221h174v-221h-174zM655 1155v221h174v-221h-174z" />
<glyph unicode="&#xec;" horiz-adv-x="473" d="M-45 1434h250l215 -279h-174zM152 0v975h170v-975h-170z" />
<glyph unicode="&#xed;" horiz-adv-x="473" d="M115 1155l215 279h250l-291 -279h-174zM152 0v975h170v-975h-170z" />
<glyph unicode="&#xee;" horiz-adv-x="473" d="M-55 1157l217 277h157l220 -277h-170l-129 148l-121 -148h-174zM152 0v975h170v-975h-170z" />
<glyph unicode="&#xef;" horiz-adv-x="473" d="M-37 1155v221h174v-221h-174zM152 0v975h170v-975h-170zM332 1155v221h174v-221h-174z" />
<glyph unicode="&#xf0;" horiz-adv-x="1081" d="M86 492q0 119 33 212t92 157.5t141 99t183 34.5q51 0 114.5 -17t114.5 -52q-20 55 -44 111.5t-52 97.5q-78 -25 -161 -53.5t-159 -51.5l-43 119l289 90q-39 51 -81 93t-73 69l131 80q98 -100 170 -195l211 70l43 -117l-182 -57q86 -143 132 -303t46 -353 q0 -115 -26.5 -215t-82 -175t-141.5 -118t-204 -43q-102 0 -186.5 36t-142.5 103.5t-90 163t-32 214.5zM256 494q0 -174 77 -271.5t204 -97.5q129 0 205.5 97t76.5 272q0 176 -76.5 266t-205.5 90t-205 -91t-76 -265z" />
<glyph unicode="&#xf1;" horiz-adv-x="1112" d="M152 0v975h170v-144q41 72 117.5 120t201.5 48q158 0 244 -94q23 -27 39 -54.5t26.5 -66.5t15.5 -94t5 -135v-555h-170v569q0 160 -56.5 220.5t-164.5 60.5q-61 0 -109.5 -22.5t-81.5 -61.5t-50 -91t-17 -110v-565h-170zM268 1202q8 23 24.5 58.5t43 69.5t63.5 57.5 t88 23.5q37 0 71 -12.5t67 -30.5q29 -16 57.5 -31.5t56.5 -15.5q35 0 54.5 31.5t29.5 64.5l135 -35q-16 -37 -34.5 -73.5t-44 -66.5t-58.5 -48t-78 -18t-85 16t-74 35q-23 10 -49.5 26.5t-55.5 16.5q-16 0 -28.5 -10.5t-21.5 -24.5t-15 -31.5t-8 -29.5z" />
<glyph unicode="&#xf2;" horiz-adv-x="1101" d="M86 483q0 117 34 212.5t95 163t147.5 103t188.5 35.5t188 -35.5t147.5 -103t95.5 -163t34 -212.5t-34 -211t-94.5 -159.5t-146.5 -101.5t-190 -36t-190.5 36t-146.5 101.5t-94 159.5t-34 211zM260 485q0 -176 81 -272t210 -96t210 97t81 271q0 178 -79 275.5t-212 97.5 t-212 -98.5t-79 -274.5zM268 1434h250l215 -279h-174z" />
<glyph unicode="&#xf3;" horiz-adv-x="1101" d="M86 483q0 117 34 212.5t95 163t147.5 103t188.5 35.5t188 -35.5t147.5 -103t95.5 -163t34 -212.5t-34 -211t-94.5 -159.5t-146.5 -101.5t-190 -36t-190.5 36t-146.5 101.5t-94 159.5t-34 211zM260 485q0 -176 81 -272t210 -96t210 97t81 271q0 178 -79 275.5t-212 97.5 t-212 -98.5t-79 -274.5zM387 1155l215 279h250l-291 -279h-174z" />
<glyph unicode="&#xf4;" horiz-adv-x="1101" d="M86 483q0 117 34 212.5t95 163t147.5 103t188.5 35.5t188 -35.5t147.5 -103t95.5 -163t34 -212.5t-34 -211t-94.5 -159.5t-146.5 -101.5t-190 -36t-190.5 36t-146.5 101.5t-94 159.5t-34 211zM260 485q0 -176 81 -272t210 -96t210 97t81 271q0 178 -79 275.5t-212 97.5 t-212 -98.5t-79 -274.5zM264 1157l217 277h158l219 -277h-170l-129 148l-121 -148h-174z" />
<glyph unicode="&#xf5;" horiz-adv-x="1101" d="M86 483q0 117 34 212.5t95 163t147.5 103t188.5 35.5t188 -35.5t147.5 -103t95.5 -163t34 -212.5t-34 -211t-94.5 -159.5t-146.5 -101.5t-190 -36t-190.5 36t-146.5 101.5t-94 159.5t-34 211zM207 1202q8 23 24.5 58.5t43 69.5t63.5 57.5t88 23.5q37 0 70.5 -12.5 t66.5 -30.5q29 -16 57.5 -31.5t57.5 -15.5q35 0 54.5 31.5t29.5 64.5l135 -35q-16 -37 -34.5 -73.5t-44 -66.5t-58.5 -48t-78 -18t-85 16t-75 35q-23 10 -49.5 26.5t-54.5 16.5q-16 0 -28.5 -10.5t-22 -24.5t-15.5 -31.5t-8 -29.5zM260 485q0 -176 81 -272t210 -96t210 97 t81 271q0 178 -79 275.5t-212 97.5t-212 -98.5t-79 -274.5z" />
<glyph unicode="&#xf6;" horiz-adv-x="1101" d="M86 483q0 117 34 212.5t95 163t147.5 103t188.5 35.5t188 -35.5t147.5 -103t95.5 -163t34 -212.5t-34 -211t-94.5 -159.5t-146.5 -101.5t-190 -36t-190.5 36t-146.5 101.5t-94 159.5t-34 211zM260 485q0 -176 81 -272t210 -96t210 97t81 271q0 178 -79 275.5t-212 97.5 t-212 -98.5t-79 -274.5zM281 1155v221h174v-221h-174zM649 1155v221h174v-221h-174z" />
<glyph unicode="&#xf7;" horiz-adv-x="1583" d="M102 410v155h1379v-155h-1379zM694 0v223h195v-223h-195zM694 752v223h195v-223h-195z" />
<glyph unicode="&#xf8;" horiz-adv-x="1101" d="M86 12l100 131q-47 66 -73.5 151t-26.5 189q0 117 34 212.5t95 163t147.5 103t188.5 35.5q137 0 244 -65l98 127l125 -90l-109 -142q51 -66 79 -152.5t28 -191.5q0 -117 -34 -211t-94.5 -159.5t-146.5 -101.5t-190 -36q-139 0 -248 64l-94 -125zM260 485q0 -119 37 -198 l408 526q-68 45 -154 45q-133 0 -212 -98t-79 -275zM397 162q68 -45 154 -45q129 0 210 97t81 271q0 117 -39 205z" />
<glyph unicode="&#xf9;" horiz-adv-x="1101" d="M143 420v555h170v-561q0 -133 33 -197q27 -51 73 -71.5t116 -20.5q61 0 107 23.5t78 63.5t47 92t15 112v559h170v-975h-170v143q-41 -72 -114.5 -120t-196.5 -48q-76 0 -138.5 22.5t-105.5 70.5q-23 27 -39 54.5t-26 67t-14.5 95t-4.5 135.5zM227 1434h250l215 -279h-174 z" />
<glyph unicode="&#xfa;" horiz-adv-x="1101" d="M143 420v555h170v-561q0 -133 33 -197q27 -51 73 -71.5t116 -20.5q61 0 107 23.5t78 63.5t47 92t15 112v559h170v-975h-170v143q-41 -72 -114.5 -120t-196.5 -48q-76 0 -138.5 22.5t-105.5 70.5q-23 27 -39 54.5t-26 67t-14.5 95t-4.5 135.5zM406 1155l215 279h249 l-290 -279h-174z" />
<glyph unicode="&#xfb;" horiz-adv-x="1101" d="M143 420v555h170v-561q0 -133 33 -197q27 -51 73 -71.5t116 -20.5q61 0 107 23.5t78 63.5t47 92t15 112v559h170v-975h-170v143q-41 -72 -114.5 -120t-196.5 -48q-76 0 -138.5 22.5t-105.5 70.5q-23 27 -39 54.5t-26 67t-14.5 95t-4.5 135.5zM254 1157l217 277h158 l219 -277h-170l-129 148l-121 -148h-174z" />
<glyph unicode="&#xfc;" horiz-adv-x="1101" d="M143 420v555h170v-561q0 -133 33 -197q27 -51 73 -71.5t116 -20.5q61 0 107 23.5t78 63.5t47 92t15 112v559h170v-975h-170v143q-41 -72 -114.5 -120t-196.5 -48q-76 0 -138.5 22.5t-105.5 70.5q-23 27 -39 54.5t-26 67t-14.5 95t-4.5 135.5zM281 1155v221h174v-221h-174 zM649 1155v221h174v-221h-174z" />
<glyph unicode="&#xfd;" horiz-adv-x="874" d="M12 975h181l190 -582q10 -31 19.5 -61.5t17.5 -55.5q8 -29 16 -53h2q10 29 19 60q8 27 18 58.5t23 64.5l198 569h170l-432 -1184q-18 -51 -34.5 -88t-37.5 -63q-29 -39 -73.5 -56.5t-118.5 -17.5q-47 0 -85 9t-54 17v140q23 -10 54.5 -16.5t61.5 -6.5q37 0 60.5 10.5 t40.5 30.5q16 20 28.5 48t24.5 63l49 135zM309 1155l215 279h250l-291 -279h-174z" />
<glyph unicode="&#xfe;" horiz-adv-x="1103" d="M152 -426v1860h170v-603q39 66 120.5 116t198.5 50q92 0 171 -33.5t136.5 -98t90 -161t32.5 -219.5q0 -121 -31.5 -215t-89 -159.5t-137.5 -100.5t-174 -35q-113 0 -195 47.5t-122 120.5v-569h-170zM315 487q0 -90 22.5 -158.5t62.5 -115.5t95.5 -71.5t118.5 -24.5 q133 0 208 97t75 273q0 180 -79 274.5t-208 94.5q-63 0 -116.5 -23.5t-93.5 -70.5t-62.5 -116t-22.5 -159z" />
<glyph unicode="&#xff;" horiz-adv-x="874" d="M12 975h181l190 -582q10 -31 19.5 -61.5t17.5 -55.5q8 -29 16 -53h2q10 29 19 60q8 27 18 58.5t23 64.5l198 569h170l-432 -1184q-18 -51 -34.5 -88t-37.5 -63q-29 -39 -73.5 -56.5t-118.5 -17.5q-47 0 -85 9t-54 17v140q23 -10 54.5 -16.5t61.5 -6.5q37 0 60.5 10.5 t40.5 30.5q16 20 28.5 48t24.5 63l49 135zM184 1155v221h174v-221h-174zM553 1155v221h174v-221h-174z" />
<glyph unicode="&#x152;" horiz-adv-x="2066" d="M90 713q0 172 50 310t143.5 235.5t226.5 148.5t299 51q115 0 238 -24h909v-166h-778v-445h706v-166h-706v-489h819v-168h-950q-121 -25 -240 -25q-164 0 -296 47.5t-225 140.5t-144.5 230t-51.5 320zM274 713q0 -145 42 -254t115 -182.5t171 -110.5t211 -37q74 0 119 7 t74 16v1124q-100 20 -195 20q-121 0 -220 -35.5t-170 -107.5t-109 -182.5t-38 -257.5z" />
<glyph unicode="&#x153;" horiz-adv-x="1822" d="M86 483q0 117 34 212.5t95 163t147.5 103t188.5 35.5q119 0 214 -49t157 -137q61 88 156.5 137t213.5 49q111 0 193 -39.5t136 -108.5t82 -163t28 -203v-34h-730q2 -57 19.5 -116t53.5 -105t93.5 -75.5t139.5 -29.5q68 0 117 18.5t84.5 46t59 56t36.5 51.5l122 -92 q-14 -23 -45.5 -61t-84 -74.5t-127 -64.5t-175.5 -28q-123 0 -217 46.5t-155 134.5q-61 -86 -155.5 -133.5t-215.5 -47.5q-104 0 -190.5 36t-146.5 101.5t-94 160t-34 210.5zM260 485q0 -176 81 -272t210 -96t210 97t81 271q0 178 -79 275.5t-212 97.5t-212 -98.5 t-79 -274.5zM1008 584h546q-10 129 -77.5 202.5t-184.5 73.5q-113 0 -191.5 -73.5t-92.5 -202.5z" />
<glyph unicode="&#x178;" horiz-adv-x="1245" d="M2 1434h209l407 -668l418 668h207l-545 -844v-590h-180v590zM350 1563v221h174v-221h-174zM719 1563v221h174v-221h-174z" />
<glyph unicode="&#x2c6;" horiz-adv-x="1038" d="M223 1157l217 277h158l219 -277h-170l-129 148l-121 -148h-174z" />
<glyph unicode="&#x2dc;" horiz-adv-x="1099" d="M205 1202q8 23 24.5 58.5t43 69.5t63.5 57.5t88 23.5q37 0 70.5 -12.5t66.5 -30.5q29 -16 57.5 -31.5t57.5 -15.5q35 0 54.5 31.5t29.5 64.5l135 -35q-16 -37 -34.5 -73.5t-44 -66.5t-58.5 -48t-78 -18t-85 16t-75 35q-23 10 -49.5 26.5t-54.5 16.5q-16 0 -28.5 -10.5 t-22 -24.5t-15.5 -31.5t-8 -29.5z" />
<glyph unicode="&#x2000;" horiz-adv-x="959" />
<glyph unicode="&#x2001;" horiz-adv-x="1919" />
<glyph unicode="&#x2002;" horiz-adv-x="959" />
<glyph unicode="&#x2003;" horiz-adv-x="1919" />
<glyph unicode="&#x2004;" horiz-adv-x="639" />
<glyph unicode="&#x2005;" horiz-adv-x="479" />
<glyph unicode="&#x2006;" horiz-adv-x="319" />
<glyph unicode="&#x2007;" horiz-adv-x="319" />
<glyph unicode="&#x2008;" horiz-adv-x="239" />
<glyph unicode="&#x2009;" horiz-adv-x="383" />
<glyph unicode="&#x200a;" horiz-adv-x="106" />
<glyph unicode="&#x2010;" horiz-adv-x="692" d="M82 467v178h528v-178h-528z" />
<glyph unicode="&#x2011;" horiz-adv-x="692" d="M82 467v178h528v-178h-528z" />
<glyph unicode="&#x2012;" horiz-adv-x="692" d="M82 467v178h528v-178h-528z" />
<glyph unicode="&#x2013;" horiz-adv-x="1284" d="M123 479v156h1038v-156h-1038z" />
<glyph unicode="&#x2014;" horiz-adv-x="1554" d="M61 479v156h1432v-156h-1432z" />
<glyph unicode="&#x2018;" horiz-adv-x="348" d="M78 922v153q0 66 2 126.5t16 109.5q16 59 57.5 98t118.5 45v-94q-47 -6 -67 -41q-23 -39 -23 -133v-29h90v-235h-194z" />
<glyph unicode="&#x2019;" horiz-adv-x="348" d="M78 901v94q47 6 67 41q23 39 23 133v29h-90v236h194v-154q0 -66 -2 -126t-16 -110q-16 -59 -57 -98t-119 -45z" />
<glyph unicode="&#x201a;" horiz-adv-x="632" d="M78 0v236h194v-154q0 -66 -2 -126t-16 -110q-16 -59 -57 -98t-119 -45v94q47 6 67 41q23 39 23 133v29h-90zM371 0v236h194v-154q0 -66 -2 -126t-16 -110q-16 -59 -57 -98t-119 -45v94q47 6 67 41q23 39 23 133v29h-90z" />
<glyph unicode="&#x201c;" horiz-adv-x="641" d="M78 922v153q0 66 2 126.5t16 109.5q16 59 57.5 98t118.5 45v-94q-47 -6 -67 -41q-23 -39 -23 -133v-29h90v-235h-194zM371 922v153q0 66 2 126.5t16 109.5q16 59 57 98t119 45v-94q-47 -6 -67 -41q-23 -39 -23 -133v-29h90v-235h-194z" />
<glyph unicode="&#x201d;" horiz-adv-x="641" d="M78 901v94q47 6 67 41q23 39 23 133v29h-90v236h194v-154q0 -66 -2 -126t-16 -110q-16 -59 -57 -98t-119 -45zM371 901v94q47 6 67 41q23 39 23 133v29h-90v236h194v-154q0 -66 -2 -126t-16 -110q-16 -59 -57 -98t-119 -45z" />
<glyph unicode="&#x201e;" horiz-adv-x="339" d="M78 0v236h194v-154q0 -66 -2 -126t-16 -110q-16 -59 -57 -98t-119 -45v94q47 6 67 41q23 39 23 133v29h-90z" />
<glyph unicode="&#x2022;" horiz-adv-x="737" d="M82 702q0 59 22.5 111.5t61.5 91.5t91 61.5t112 22.5q59 0 111 -22.5t91 -61.5t61.5 -91t22.5 -112q0 -59 -22.5 -111t-61.5 -91t-91 -61.5t-111 -22.5t-111.5 22.5t-91.5 61.5t-61.5 91t-22.5 111z" />
<glyph unicode="&#x2026;" horiz-adv-x="2023" d="M227 0v233h195v-233h-195zM913 0v233h195v-233h-195zM1599 0v233h195v-233h-195z" />
<glyph unicode="&#x202f;" horiz-adv-x="383" />
<glyph unicode="&#x2039;" horiz-adv-x="544" d="M102 518v213l310 258v-196l-193 -158l193 -174v-191z" />
<glyph unicode="&#x203a;" horiz-adv-x="544" d="M133 270v191l193 174l-193 158v196l309 -258v-213z" />
<glyph unicode="&#x205f;" horiz-adv-x="479" />
<glyph unicode="&#x20ac;" d="M6 502l64 151h92q-2 12 -2 28.5v33.5v33.5t2 27.5h-156l64 152h106q18 115 57 212t101.5 167.5t148.5 110.5t199 40q92 0 166 -26.5t129 -74.5t95 -117t67 -150l-148 -97q-33 141 -107.5 227.5t-201.5 86.5q-139 0 -217 -105.5t-105 -273.5h519l-64 -152h-469 q-2 -14 -2 -34.5v-36.5v-26.5t2 -25.5h533l-64 -151h-455q12 -80 35 -148.5t62 -118t94 -78t131 -28.5q133 0 204.5 83t102.5 214l156 -72q-23 -82 -60.5 -151.5t-93 -119.5t-132.5 -79t-177 -29q-121 0 -209 41t-148.5 113t-96 167t-52.5 206h-170z" />
<glyph unicode="&#x2122;" horiz-adv-x="1761" d="M20 1292v142h695v-142h-273v-772h-149v772h-273zM801 518h145v457q0 45 -2 90t-4 80q-2 41 -4 80q12 -47 22 -92q10 -39 21.5 -80t21.5 -72l160 -463h121l150 465q10 37 23 81t24 83q12 45 22 92q-4 -43 -6 -88q-4 -39 -5 -86t-1 -92v-455h145v916h-194l-137 -441 q-16 -53 -31 -102t-25 -90q-12 -47 -24 -88q-10 41 -23 88q-10 41 -26.5 90t-32.5 102l-150 441h-190v-916z" />
<glyph unicode="&#x25fc;" horiz-adv-x="1024" d="M0 0z" />
<glyph unicode="&#xfb01;" horiz-adv-x="1077" d="M8 846v129h199v244q0 68 14 108q23 66 79 92.5t149 26.5q45 0 78.5 -5t56.5 -11v-146q-16 4 -45 10t-58 6q-68 0 -88 -36q-10 -16 -13 -38t-3 -63v-188h207v-129h-207v-846h-170v846h-199zM756 0v975h170v-975h-170zM756 1186v217h170v-217h-170z" />
<glyph unicode="&#xfb02;" horiz-adv-x="1077" d="M8 846v129h199v244q0 68 14 108q23 66 79 92.5t149 26.5q45 0 78.5 -5t56.5 -11v-146q-16 4 -45 10t-58 6q-68 0 -88 -36q-10 -16 -13 -38t-3 -63v-188h207v-129h-207v-846h-170v846h-199zM756 0v1434h170v-1434h-170z" />
</font>
</defs>
</svg>
