<?xml version="1.0" standalone="no"?>
<!DOCTYPE svg PUBLIC "-//W3C//DTD SVG 1.1//EN" "http://www.w3.org/Graphics/SVG/1.1/DTD/svg11.dtd" >
<svg xmlns="http://www.w3.org/2000/svg">
<metadata></metadata>
<defs>
<font id="theinhardtregular_italic" horiz-adv-x="1208" >
<font-face units-per-em="2048" ascent="1638" descent="-410" />
<missing-glyph horiz-adv-x="552" />
<glyph horiz-adv-x="0" />
<glyph unicode="&#xd;" horiz-adv-x="0" />
<glyph horiz-adv-x="0" />
<glyph horiz-adv-x="0" />
<glyph unicode=" "  horiz-adv-x="552" />
<glyph unicode="&#x09;" horiz-adv-x="552" />
<glyph unicode="&#xa0;" horiz-adv-x="552" />
<glyph unicode="!" horiz-adv-x="495" d="M49 0l53 256h183l-56 -256h-180zM156 354l49 355l153 725h170l-153 -725l-101 -355h-118z" />
<glyph unicode="&#x22;" horiz-adv-x="718" d="M256 860l51 424l31 150h176l-31 -150l-133 -424h-94zM541 860l51 424l31 150h176l-31 -150l-133 -424h-94z" />
<glyph unicode="#" d="M8 444l10 148h324l53 225h-317l10 150h340l109 467h161l-108 -467h213l108 467h162l-108 -467h313l-10 -150h-336l-53 -225h329l-10 -148h-352l-103 -444h-161l102 444h-213l-102 -444h-162l102 444h-301zM504 592h213l53 225h-213z" />
<glyph unicode="$" d="M37 326l149 102q25 -92 91.5 -163.5t177.5 -102.5l108 514l-76 26q-45 16 -94 40t-91 63t-68.5 94t-26.5 133q0 94 38 170t104.5 130t157.5 83t198 29h20l35 162h158l-39 -187q111 -31 192.5 -95t122.5 -146l-133 -111q-33 61 -85 114.5t-132 82.5l-99 -471l56 -21 q61 -23 117.5 -49.5t100.5 -66.5t70.5 -95t26.5 -133q0 -92 -31.5 -172t-97 -139.5t-166 -93t-235.5 -33.5h-11l-36 -174h-158l41 192q-135 33 -239.5 116t-145.5 202zM389 1067q0 -47 16.5 -82t45 -60.5t66.5 -45t81 -33.5l94 442h-6q-59 0 -113.5 -13t-95.5 -40t-64.5 -69 t-23.5 -99zM608 143q156 2 240 69.5t84 190.5q0 47 -17.5 81t-48 58.5t-71.5 44t-86 36.5z" />
<glyph unicode="%" horiz-adv-x="1882" d="M117 872q0 104 27.5 209t81 188t130 134t176.5 51q45 0 96.5 -14.5t94.5 -53t71.5 -104t28.5 -168.5q0 -104 -26.5 -209.5t-78.5 -189.5t-129 -137.5t-177 -53.5q-150 0 -222.5 94.5t-72.5 253.5zM260 879q0 -121 46 -174.5t114 -53.5q61 0 108 41t81 105.5t52.5 144.5 t18.5 158q0 98 -39 161.5t-117 63.5q-70 0 -120 -43t-81.5 -109.5t-47 -145t-15.5 -148.5zM414 0l956 1434h168l-958 -1434h-166zM1151 324q0 104 27.5 208.5t81 187.5t130.5 134t177 51q45 0 96 -14t94 -53t72 -104.5t29 -168.5q0 -104 -27 -209.5t-79 -189.5t-129 -137.5 t-177 -53.5q-150 0 -222.5 94.5t-72.5 254.5zM1294 330q0 -121 46 -174.5t114 -53.5q61 0 108.5 41t81 105.5t52 144.5t18.5 158q0 98 -39 161.5t-116 63.5q-70 0 -120 -43t-82 -109.5t-47.5 -145t-15.5 -148.5z" />
<glyph unicode="&#x26;" horiz-adv-x="1292" d="M39 348q0 88 30.5 156.5t87 123t134.5 99.5t172 88q-35 74 -52.5 139.5t-17.5 147.5q0 70 22.5 133t66.5 112.5t108.5 78t150.5 28.5q74 0 130.5 -22.5t93 -61.5t56 -89t19.5 -105q0 -68 -21.5 -124.5t-66.5 -106.5t-114.5 -96t-167.5 -95q41 -78 97 -170t118 -178 q41 68 82 150.5t71 156.5l125 -92q-41 -94 -87 -179.5t-97 -154.5q45 -61 100.5 -132t128.5 -155h-213q-31 39 -61.5 77t-65.5 85q-27 -29 -64.5 -61.5t-91 -60.5t-121 -46.5t-151.5 -18.5q-92 0 -166.5 27t-127 76t-80 117.5t-27.5 152.5zM211 362q0 -61 19.5 -105 t53 -73.5t79 -43t96.5 -13.5q104 0 187 42t136 107q-70 96 -138.5 205t-117.5 207q-61 -31 -117.5 -62.5t-100.5 -70.5t-70.5 -85.5t-26.5 -107.5zM555 1112q0 -59 15.5 -117.5t41.5 -117.5q119 55 194 128.5t75 159.5q0 74 -44 110t-102 36q-86 0 -133 -57.5t-47 -141.5z " />
<glyph unicode="'" horiz-adv-x="434" d="M256 860l51 424l31 150h176l-31 -150l-133 -424h-94z" />
<glyph unicode="(" horiz-adv-x="608" d="M88 313q0 178 38 335t106.5 299.5t165 275.5t210.5 262l144 -21q-111 -133 -201 -275t-154.5 -294t-100.5 -315.5t-36 -341.5q0 -176 25.5 -347.5t81.5 -336.5l-131 -21q-33 82 -61 180.5t-47 201.5t-29.5 205.5t-10.5 192.5z" />
<glyph unicode=")" horiz-adv-x="608" d="M-143 -446q111 133 200.5 275t154 293.5t100.5 315.5t36 342q0 176 -25.5 347t-80.5 337l131 21q33 -82 60.5 -180.5t47 -202t29.5 -205.5t10 -192q0 -178 -38 -335t-106.5 -299.5t-164.5 -275.5t-211 -262z" />
<glyph unicode="*" horiz-adv-x="702" d="M197 1212l84 138l151 -97l35 191l156 -33l-43 -182l170 31l20 -160l-182 -15l78 -157l-148 -72l-59 168l-125 -129l-115 127l139 111z" />
<glyph unicode="+" horiz-adv-x="1583" d="M190 530v156h523v528h157v-528h521v-156h-521v-530h-157v530h-523z" />
<glyph unicode="," horiz-adv-x="446" d="M-20 -297l20 94q61 10 89 61.5t48 141.5h-94l49 236h195l-33 -154q-14 -68 -28.5 -127t-39.5 -109q-31 -59 -79 -98t-127 -45z" />
<glyph unicode="-" horiz-adv-x="692" d="M61 467l39 178h529l-39 -178h-529z" />
<glyph unicode="." horiz-adv-x="440" d="M41 0l51 236h195l-51 -236h-195z" />
<glyph unicode="/" horiz-adv-x="954" d="M12 0l758 1434h166l-756 -1434h-168z" />
<glyph unicode="0" d="M98 526q0 168 44 334t128 299t207 216t281 83q70 0 148.5 -23.5t145 -84t110.5 -165t44 -263.5q0 -166 -43 -334t-126 -304.5t-204.5 -221.5t-279.5 -85q-115 0 -200 39t-142 111t-85 173t-28 226zM274 539q0 -113 22.5 -191t62.5 -126t92.5 -69.5t111.5 -21.5 q109 0 196 69.5t146.5 180.5t92 247t32.5 271q0 90 -17.5 165t-53 128t-89 83t-122.5 30q-121 0 -210 -74t-147.5 -187.5t-87.5 -248.5t-29 -256z" />
<glyph unicode="1" d="M307 995l31 142h45q84 0 143.5 15t106.5 44q61 39 99 98.5t59 139.5h157l-305 -1434h-180l211 995h-367z" />
<glyph unicode="2" d="M14 0l27 143q49 29 116.5 70t142.5 89t155 103.5t153 110.5q70 51 136.5 107.5t118.5 120t85 136t33 158.5q0 121 -73.5 194t-207.5 73q-80 0 -140 -27t-100 -72t-59.5 -105.5t-19.5 -129.5q0 -72 22 -152l-176 37q-18 68 -18 135q0 94 33.5 178t98.5 148.5t157 102.5 t209 38q104 0 189 -30.5t143.5 -85t90 -129t31.5 -162.5q0 -125 -48 -227.5t-125 -188.5t-173 -160t-192 -139q-98 -68 -171 -113t-128 -73q39 2 97 3t157 1h448l-35 -154h-977z" />
<glyph unicode="3" d="M70 408l161 67q6 -68 27 -131t59.5 -110.5t99 -76t148.5 -28.5q90 0 153.5 24.5t104.5 65.5t59.5 94.5t18.5 110.5q0 186 -199 244q-37 10 -89 14t-126 4h-122l28 145h170q102 0 162.5 11.5t105.5 34.5q61 31 96.5 83t35.5 127q0 94 -71 157t-194 63t-207.5 -72 t-101.5 -201l-160 60q6 70 40 136t95.5 116.5t146.5 81t194 30.5q113 0 195.5 -29.5t134.5 -79t78 -112.5t26 -131q0 -125 -71 -222.5t-200 -135.5q102 -47 154.5 -133.5t52.5 -192.5q0 -82 -29.5 -162t-91 -143.5t-157 -102.5t-228.5 -39t-225 38t-150.5 98.5t-88 138.5 t-35.5 158z" />
<glyph unicode="4" d="M39 375l27 127l866 944h164l-197 -922h256l-33 -149h-256l-80 -375h-174l80 375h-653zM291 524h434l92 428q10 45 17.5 76t13.5 55.5t11 46t11 46.5q-31 -43 -69.5 -93.5t-106.5 -121.5z" />
<glyph unicode="5" d="M100 344l160 84q6 -61 29.5 -114.5t63.5 -94.5t94.5 -64.5t123.5 -23.5q70 0 134.5 25.5t113.5 76t79 126t30 178.5q0 76 -21.5 131t-59.5 92t-88 54t-106 17q-113 0 -198.5 -58t-124.5 -185l-156 59l209 787h799l-39 -162h-637l-119 -404q57 59 132 89t173 30 q82 0 158 -27.5t133 -83t92 -138.5t35 -193q0 -141 -45 -249t-120 -178.5t-171 -106.5t-201 -36q-182 0 -306 92.5t-167 276.5z" />
<glyph unicode="6" d="M141 508q0 193 45 364.5t130 302t207 207t274 76.5q109 0 184.5 -34.5t125.5 -88t76.5 -115t37.5 -114.5l-158 -86q-8 51 -26.5 102.5t-50.5 91t-81 65.5t-117 26q-90 0 -160.5 -42t-123.5 -109t-91 -150.5t-59 -169.5q18 20 50 43.5t75 43t96.5 32t114.5 12.5 q90 0 171 -28t141.5 -83t96.5 -138t36 -194q0 -98 -34 -196.5t-99.5 -176t-164 -126t-227.5 -48.5q-102 0 -188 34t-148.5 101.5t-97.5 167t-35 230.5zM313 530q0 -86 18.5 -157.5t55.5 -124.5t93.5 -83t133.5 -30q82 0 146.5 33t108.5 86t66.5 119.5t22.5 134.5 q0 80 -24.5 136t-66.5 93t-96 54.5t-112 17.5q-100 0 -195 -48t-145 -134q-2 -20 -4 -48t-2 -49z" />
<glyph unicode="7" d="M223 999l92 435h985l-30 -134q-117 -129 -234.5 -286.5t-218.5 -323.5q-47 -78 -89 -156.5t-80 -162.5t-71.5 -175.5t-64.5 -195.5h-195q53 176 126 340t155 305q111 188 232.5 350t220.5 283h-592l-62 -279h-174z" />
<glyph unicode="8" d="M98 375q0 141 80 253.5t242 162.5q-72 41 -112 110.5t-40 173.5q0 76 31 145.5t91.5 123t147.5 85t197 31.5q100 0 185.5 -24.5t145.5 -70.5t94 -110.5t34 -144.5q0 -131 -68.5 -225t-197.5 -135q94 -51 144 -138.5t50 -197.5q0 -94 -34.5 -174t-103.5 -138.5t-169 -92.5 t-231 -34q-119 0 -210 30t-152.5 82t-92.5 126t-31 162zM268 395q0 -117 85 -190.5t235 -73.5q166 0 262 78t96 215q0 123 -87 194.5t-236 71.5q-90 0 -157 -24.5t-111 -65.5t-65.5 -94.5t-21.5 -110.5zM436 1067q0 -45 16.5 -85t50.5 -70.5t85 -48t123 -17.5 q154 0 229.5 70.5t75.5 181.5q0 92 -74 151.5t-203 59.5q-76 0 -132 -20.5t-94 -54.5t-57.5 -77t-19.5 -90z" />
<glyph unicode="9" d="M96 328l158 86q8 -51 26.5 -102.5t50 -91.5t81 -64.5t116.5 -24.5q88 0 160 41t125 107.5t90 150.5t60 170q-18 -23 -50 -45.5t-75 -41.5t-96.5 -31.5t-114.5 -12.5q-90 0 -171 27.5t-141.5 83t-96.5 138.5t-36 193q0 98 34 196.5t99.5 176.5t164 126t227.5 48 q102 0 188 -33.5t148.5 -101.5t97.5 -167t35 -230q0 -193 -45.5 -365t-130.5 -302t-206.5 -207t-273.5 -77q-109 0 -184.5 35t-125.5 88.5t-78 114.5t-36 115zM358 928q0 -80 25 -136.5t67 -93t95 -54t112 -17.5q100 0 195.5 48t144.5 134q2 20 4.5 48t2.5 48 q0 86 -18.5 158t-55.5 125t-94.5 82.5t-133.5 29.5q-84 0 -147 -32.5t-107.5 -86t-67 -119.5t-22.5 -134z" />
<glyph unicode=":" horiz-adv-x="600" d="M41 0l47 236h195l-50 -236h-192zM197 739l49 236h194l-49 -236h-194z" />
<glyph unicode=";" horiz-adv-x="606" d="M-10 -297l20 94q61 10 89 61.5t48 141.5h-94l49 236h195l-33 -154q-14 -68 -28.5 -127t-38.5 -109q-31 -59 -79 -98t-128 -45zM209 739l49 236h195l-50 -236h-194z" />
<glyph unicode="&#x3c;" horiz-adv-x="1583" d="M92 606v164l1389 649v-178l-1172 -551l1172 -553v-184z" />
<glyph unicode="=" horiz-adv-x="1583" d="M104 338v156h1377v-156h-1377zM104 694v156h1377v-156h-1377z" />
<glyph unicode="&#x3e;" horiz-adv-x="1583" d="M102 -47v184l1172 553l-1172 551v178l1389 -649v-164z" />
<glyph unicode="?" horiz-adv-x="935" d="M141 1030q0 86 32 164t92.5 136.5t147.5 93t197 34.5q100 0 175 -29.5t124 -79t74 -114t25 -133.5q0 -66 -18.5 -127.5t-59.5 -120.5q-23 -33 -52.5 -64.5t-76.5 -66.5l-180 -137q-37 -29 -59.5 -52.5t-36 -45t-20.5 -45t-13 -54.5l-15 -72h-180q12 76 26.5 130.5 t39 97.5t63.5 81t100 83l158 116q23 16 41 34t29 30q43 49 61.5 101t18.5 102q0 43 -14.5 81.5t-45.5 69.5t-77 49.5t-107 18.5q-72 0 -125 -25.5t-88 -68.5t-52.5 -98.5t-17.5 -114.5q0 -88 39 -179l-184 66q-20 68 -21 139zM227 0l56 252h186l-51 -252h-191z" />
<glyph unicode="@" horiz-adv-x="1826" d="M131 492q0 113 27.5 227.5t82 222t133.5 200.5t181 162.5t226 109.5t270 40q178 0 304 -54t205.5 -144.5t117.5 -205t38 -235.5q0 -123 -37 -243.5t-102.5 -216t-157.5 -155t-202 -59.5q-145 0 -152 121q-39 -47 -106.5 -84t-163.5 -37q-51 0 -99.5 14.5t-86.5 45 t-60.5 77t-22.5 107.5q0 78 26 131t72 89t112.5 56.5t150.5 32.5l184 27q27 4 49.5 12t32.5 33q8 16 11 36.5t3 35.5q0 47 -34.5 80.5t-139.5 33.5q-115 0 -167 -49t-72 -131l-131 55q8 57 40.5 103.5t85 80t120 52t147.5 18.5q66 0 120 -11t94 -37.5t61.5 -69.5t21.5 -105 q0 -29 -6.5 -62.5t-10.5 -58.5l-77 -356q-4 -10 -7.5 -27.5t-3.5 -34.5q0 -16 7.5 -28t33.5 -12q59 0 116.5 44t101.5 117.5t72 169t28 195.5q0 96 -29 188t-91.5 165t-163.5 117t-245 44q-178 0 -318 -74t-236.5 -191.5t-147.5 -264t-51 -291.5q0 -121 34.5 -230.5 t107.5 -193.5t183.5 -133.5t263.5 -49.5q82 0 170.5 18.5t174.5 55.5t164.5 92.5t144.5 128.5l35 -143q-63 -72 -144.5 -126t-171.5 -91t-187 -55.5t-194 -18.5q-190 0 -329.5 60.5t-229.5 163t-133 235.5t-43 281zM684 401q0 -68 45 -94t121 -26q86 0 151.5 43t88.5 149 l30 145q-20 -12 -46.5 -16t-49.5 -8l-100 -16q-47 -8 -91.5 -18.5t-77 -30t-52 -50t-19.5 -78.5z" />
<glyph unicode="A" horiz-adv-x="1155" d="M-143 0l815 1434h202l199 -1434h-180l-55 418h-559l-232 -418h-190zM369 575h450l-69 525q-4 25 -6.5 50.5t-4.5 47.5q-2 25 -4 49h-2l-24 -49q-10 -23 -23.5 -49.5t-28.5 -50.5z" />
<glyph unicode="B" horiz-adv-x="1386" d="M57 0l305 1434h543q59 0 104.5 -3.5t81 -10.5t64.5 -17t55 -25q78 -41 112 -113.5t34 -158.5q0 -121 -56.5 -218t-181.5 -147q86 -43 125 -122.5t39 -165.5q0 -59 -16.5 -120t-46 -113t-71.5 -94t-95 -67q-29 -14 -63 -25t-75 -18.5t-93 -11.5t-120 -4h-645zM272 162h443 q111 0 172 13t102 42q53 35 86 94.5t33 149.5q0 78 -35 123t-88 61q-37 12 -88 16.5t-104 4.5h-414zM414 817h405q104 0 162.5 13.5t93.5 37.5q47 33 77 89.5t30 140.5q0 68 -30 104.5t-81 52.5q-35 10 -78 14.5t-96 4.5h-387z" />
<glyph unicode="C" horiz-adv-x="1300" d="M96 580q0 162 45 318.5t134.5 281.5t224.5 201.5t317 76.5q113 0 198 -30.5t146.5 -81t100 -115t61.5 -129.5l-152 -107q-12 55 -38.5 110.5t-70.5 99.5t-108.5 71t-150.5 27q-137 0 -235.5 -66t-162 -169t-93 -232t-29.5 -256q0 -207 103 -328t284 -121q84 0 149.5 24.5 t116.5 63.5t91 89t75 100l125 -111q-47 -68 -103.5 -127t-127 -102t-154.5 -68t-187 -25q-129 0 -232.5 44t-176 124t-111.5 191.5t-39 245.5z" />
<glyph unicode="D" horiz-adv-x="1396" d="M57 0l305 1434h332q180 0 297 -27t207 -88q92 -63 141.5 -165.5t49.5 -254.5q0 -113 -25 -230.5t-72 -224t-119.5 -195.5t-166.5 -145q-61 -35 -116.5 -56t-113 -31.5t-122 -13.5t-142.5 -3h-455zM268 162h252q123 0 222.5 16.5t181.5 71.5q74 49 127 127t86.5 166 t50 177t16.5 161q0 219 -143 313q-80 53 -186.5 63.5t-221.5 10.5h-147z" />
<glyph unicode="E" horiz-adv-x="1222" d="M57 0l305 1434h959l-35 -166h-778l-94 -445h706l-37 -166h-706l-103 -489h820l-37 -168h-1000z" />
<glyph unicode="F" horiz-adv-x="1171" d="M57 0l305 1434h943l-35 -166h-762l-94 -445h688l-37 -168h-688l-139 -655h-181z" />
<glyph unicode="G" horiz-adv-x="1392" d="M94 573q0 164 45 323t135.5 284t225.5 201.5t317 76.5q113 0 198 -30.5t146.5 -81t100 -115t61.5 -129.5l-152 -107q-12 55 -38.5 110.5t-70.5 99.5t-108.5 71t-150.5 27q-137 0 -235.5 -66t-162 -169t-94 -231t-30.5 -255q0 -100 21.5 -183.5t65.5 -142.5t112.5 -92 t162.5 -33q190 0 320 139q49 53 84.5 129t62.5 191h-494l35 162h658l-160 -752h-170l29 133q-59 -61 -151.5 -109.5t-235.5 -48.5q-254 0 -390.5 159.5t-136.5 438.5z" />
<glyph unicode="H" horiz-adv-x="1464" d="M57 0l305 1434h181l-129 -605h770l129 605h180l-305 -1434h-180l141 664h-770l-141 -664h-181z" />
<glyph unicode="I" horiz-adv-x="514" d="M57 0l305 1434h181l-305 -1434h-181z" />
<glyph unicode="J" horiz-adv-x="710" d="M-102 -12l32 157q41 -8 78 -12t70 -4q53 0 93 9t71 36q35 29 58.5 83t45.5 161l217 1016h180l-235 -1115q-12 -57 -25.5 -98t-28 -70.5t-30.5 -51t-37 -40.5q-59 -53 -139 -70.5t-178 -17.5q-51 0 -97.5 5.5t-74.5 11.5z" />
<glyph unicode="K" horiz-adv-x="1355" d="M57 0l305 1434h181l-158 -740l866 740h258l-694 -580l428 -854h-219l-356 733l-332 -270l-98 -463h-181z" />
<glyph unicode="L" horiz-adv-x="1132" d="M57 0l305 1434h181l-269 -1266h709l-37 -168h-889z" />
<glyph unicode="M" horiz-adv-x="1632" d="M57 0l305 1434h252l123 -938q10 -72 16.5 -139.5t8.5 -90.5q6 14 18.5 40t27.5 55.5t32.5 62.5t33.5 63l515 947h272l-305 -1434h-180l188 889q10 47 22.5 101t22.5 100q12 53 27 102h-2q-20 -45 -43 -88q-18 -37 -40 -79t-38 -73l-514 -952h-174l-121 944q-4 31 -7 70 t-8 73q-4 41 -8 84h-2q-8 -45 -16 -96q-8 -43 -17.5 -95t-19.5 -99l-188 -881h-181z" />
<glyph unicode="N" horiz-adv-x="1441" d="M57 0l305 1434h158l453 -951q12 -25 24.5 -51t22.5 -51t18.5 -42t10.5 -24h2q4 31 12 68q6 31 12 67.5t17 77.5l192 906h180l-305 -1434h-153l-453 950q-10 20 -22.5 48t-24.5 54.5t-20.5 46t-10.5 25.5h-2q-4 -27 -10 -55q-4 -25 -11.5 -57.5t-13.5 -65.5l-200 -946 h-181z" />
<glyph unicode="O" horiz-adv-x="1433" d="M96 573q0 166 46 325t140.5 283t234.5 200.5t329 76.5q131 0 236.5 -43t179 -122t112.5 -188.5t39 -244.5q0 -164 -47 -321.5t-142.5 -283.5t-237.5 -203t-331 -77q-133 0 -236.5 43t-175 122t-109.5 189.5t-38 243.5zM283 580q0 -207 101 -328t292 -121 q137 0 240.5 65.5t173 169t103.5 231.5t34 255q0 209 -105 330t-295 121q-145 0 -247.5 -66t-169 -169t-97 -232t-30.5 -256z" />
<glyph unicode="P" horiz-adv-x="1280" d="M57 0l305 1434h506q119 0 192 -15.5t128 -46.5q66 -37 113 -109.5t47 -179.5q0 -131 -59.5 -239.5t-168.5 -167.5q-27 -14 -58.5 -25.5t-72.5 -19.5t-94 -12.5t-125 -4.5h-401l-131 -614h-181zM401 774h383q109 0 170.5 13.5t102.5 41.5q53 35 86 97.5t33 150.5 q0 74 -35 116t-88 60q-37 12 -87.5 16.5t-103.5 4.5h-352z" />
<glyph unicode="Q" horiz-adv-x="1433" d="M96 573q0 166 46 325t140.5 283t234.5 200.5t329 76.5q131 0 236.5 -43t179 -122t112.5 -188.5t39 -244.5q0 -166 -48 -324.5t-146 -285.5l143 -197l-152 -114l-125 176q-86 -66 -193.5 -103t-236.5 -37q-133 0 -236.5 43t-175 122t-109.5 189.5t-38 243.5zM283 580 q0 -207 101 -328t292 -121q137 0 240.5 65.5t173 169t103.5 231.5t34 255q0 209 -105 330t-295 121q-145 0 -247.5 -66t-169 -169t-97 -232t-30.5 -256z" />
<glyph unicode="R" horiz-adv-x="1333" d="M57 0l305 1434h506q119 0 192 -15.5t128 -46.5q66 -37 113 -109.5t47 -179.5q0 -131 -59.5 -239.5t-168.5 -167.5q-35 -18 -77 -31.5t-101 -21.5l248 -623h-197l-235 614h-389l-131 -614h-181zM401 774h383q109 0 170.5 13.5t102.5 41.5q53 35 86 97.5t33 150.5 q0 74 -35 116t-88 60q-37 12 -87.5 16.5t-103.5 4.5h-352z" />
<glyph unicode="S" horiz-adv-x="1216" d="M35 317l149 105q16 -59 50 -112.5t86.5 -93.5t123 -62.5t160.5 -22.5q156 0 241 69.5t85 196.5q0 51 -20.5 87t-54.5 62.5t-79 46t-94 38.5l-197 71q-45 16 -94 41t-91 64t-68.5 95t-26.5 136q0 96 38 174t103.5 132.5t154.5 84t191 29.5q94 0 173 -20.5t142.5 -57.5 t109.5 -86t75 -106l-133 -113q-23 45 -56.5 86t-79.5 72t-105.5 49t-133.5 18q-59 0 -112.5 -13t-94.5 -40.5t-65.5 -70.5t-24.5 -103q0 -51 18.5 -87t49 -61.5t71.5 -45t86 -35.5l187 -70q61 -23 117.5 -50.5t100.5 -68.5t70.5 -97t26.5 -136q0 -92 -32.5 -174t-98 -142.5 t-163 -95.5t-226.5 -35q-104 0 -195.5 25t-163 69t-123 107.5t-77.5 140.5z" />
<glyph unicode="T" horiz-adv-x="1048" d="M131 1268l37 166h1065l-37 -166h-442l-269 -1268h-180l268 1268h-442z" />
<glyph unicode="U" horiz-adv-x="1394" d="M137 387q0 39 7.5 92t19.5 111q33 164 67 319q14 66 29.5 136.5t30 140t29 133t24.5 115.5h180l-174 -813q-12 -59 -22.5 -111.5t-10.5 -101.5q0 -274 320 -275q92 0 162.5 21.5t124.5 70.5q49 47 83.5 120t61.5 200l188 889h179l-187 -885q-35 -168 -82 -275.5 t-127 -173.5q-70 -57 -179 -92t-240 -35q-123 0 -213.5 31t-150.5 85t-90 130t-30 168z" />
<glyph unicode="V" horiz-adv-x="1095" d="M147 1434h185l123 -988q10 -72 15 -128t9 -78h2q14 33 41 84t66 118l557 992h196l-819 -1434h-180z" />
<glyph unicode="W" horiz-adv-x="1681" d="M147 1434h189l57 -764q4 -47 7 -101.5t6.5 -103.5t4.5 -87t1 -52h2q12 25 28.5 63.5t38 85.5t46 98.5t48.5 100.5l383 760h150l66 -764q12 -137 17 -226.5t5 -117.5h2q12 25 28.5 63.5t38 85.5t45 98.5t48.5 100.5l375 760h194l-713 -1434h-170l-61 786q-4 55 -7 110.5 t-5 98.5q-2 51 -2 99h-2q-31 -66 -60 -123q-25 -51 -49 -102.5t-41 -84.5l-399 -784h-154z" />
<glyph unicode="X" horiz-adv-x="1210" d="M-172 0l723 780l-330 654h201l264 -535l488 535h231l-641 -691l381 -743h-209l-311 625l-568 -625h-229z" />
<glyph unicode="Y" horiz-adv-x="1130" d="M133 1434h184l269 -676l567 676h213l-717 -844l-125 -590h-180l125 590z" />
<glyph unicode="Z" horiz-adv-x="1167" d="M-72 0l29 131l1073 1137h-797l35 166h1043l-31 -140l-1057 -1126h830l-37 -168h-1088z" />
<glyph unicode="[" horiz-adv-x="651" d="M0 -436l418 1972h387l-31 -143h-223l-358 -1686h223l-31 -143h-385z" />
<glyph unicode="\" horiz-adv-x="948" d="M12 1434h166l758 -1434h-168z" />
<glyph unicode="]" horiz-adv-x="651" d="M-154 -436l31 143h221l359 1686h-224l31 143h387l-420 -1972h-385z" />
<glyph unicode="^" horiz-adv-x="1583" d="M352 702l367 732h155l355 -732h-193l-243 529l-244 -529h-197z" />
<glyph unicode="_" horiz-adv-x="1069" d="M-143 -285l32 156h1078l-35 -156h-1075z" />
<glyph unicode="`" horiz-adv-x="874" d="M172 1434h250l215 -279h-174z" />
<glyph unicode="a" horiz-adv-x="976" d="M16 240q0 84 28 142t79 97t123.5 62.5t163.5 36.5l198 28q29 4 54.5 12.5t35.5 36.5q8 18 11.5 40t3.5 38q0 25 -8.5 47.5t-30 40t-57 27.5t-93.5 10q-63 0 -107 -14.5t-75 -40t-49.5 -62t-28.5 -79.5l-143 59q10 61 46 112.5t91 88t130 56t161 19.5q70 0 129 -12 t102 -41t67.5 -76t24.5 -114q0 -31 -6 -67t-12 -64l-74 -338q-6 -29 -14 -65t-8 -58q0 -20 12 -36.5t53 -16.5q16 0 37 4q8 2 17 4l-23 -123q-14 -4 -42 -9t-62 -5q-68 0 -110 27.5t-42 94.5q-31 -45 -107.5 -86t-181.5 -41q-55 0 -107 16.5t-94 48.5t-67 82t-25 118z M188 258q0 -74 47.5 -108.5t126.5 -34.5q90 0 166 53t101 168l33 158q-23 -12 -50.5 -17.5t-54.5 -9.5l-108 -16q-51 -8 -98.5 -20.5t-83.5 -34t-57.5 -54.5t-21.5 -84z" />
<glyph unicode="b" horiz-adv-x="1105" d="M37 0l305 1434h170l-129 -592q43 68 120 111.5t173 43.5q68 0 131 -24.5t111.5 -73.5t77 -124t28.5 -175q0 -121 -35 -233.5t-99.5 -198.5t-156.5 -138.5t-207 -52.5q-119 0 -188.5 51.5t-97.5 121.5l-33 -150h-170zM295 387q0 -121 53 -194.5t170 -73.5q80 0 142.5 43 t105.5 110.5t65.5 148.5t22.5 157q0 123 -54 199.5t-173 76.5q-84 0 -146.5 -45t-103.5 -113.5t-61.5 -151.5t-20.5 -157z" />
<glyph unicode="c" horiz-adv-x="983" d="M70 379q0 119 33.5 230.5t98 197.5t158 138t213.5 52q143 0 236.5 -71.5t128.5 -186.5l-141 -84q-20 82 -75.5 142.5t-160.5 60.5q-80 0 -141.5 -42t-102.5 -107.5t-62.5 -144.5t-21.5 -152q0 -145 64.5 -220t175.5 -75q53 0 96 16.5t77 42t60.5 59t47.5 70.5l120 -96 q-20 -35 -56 -76t-87 -75.5t-119.5 -58.5t-154.5 -24q-184 0 -285.5 106.5t-101.5 297.5z" />
<glyph unicode="d" horiz-adv-x="1112" d="M70 373q0 121 34.5 233.5t99 198.5t157 138t206.5 52q119 0 188.5 -51t98.5 -121l129 611h170l-303 -1434h-170l31 131q-12 -25 -39 -51.5t-66 -50t-87 -39t-105 -15.5q-68 0 -129.5 25t-109.5 74t-76.5 123.5t-28.5 175.5zM240 395q0 -123 54 -199.5t173 -76.5 q84 0 146.5 45t103.5 113.5t61.5 151.5t20.5 157q0 121 -53.5 194.5t-170.5 73.5q-80 0 -142 -43t-105 -110.5t-65.5 -148.5t-22.5 -157z" />
<glyph unicode="e" horiz-adv-x="1075" d="M70 397q0 109 32.5 216.5t98 192.5t164 138t227.5 53q102 0 174 -35.5t118 -95t66.5 -136.5t20.5 -157q0 -59 -13 -120h-722q-2 -14 -2.5 -29.5t-0.5 -28.5q0 -72 21.5 -123t56.5 -84.5t82 -50t99 -16.5q57 0 105 15.5t88 41t69.5 59t52.5 68.5l119 -84q-23 -35 -60 -78 t-92 -79.5t-129 -62.5t-172 -26q-186 0 -294.5 109t-108.5 313zM262 584h539q-1 276 -230 276q-119 0 -196.5 -77.5t-112.5 -198.5z" />
<glyph unicode="f" horiz-adv-x="589" d="M39 846l29 129h221l55 258q14 61 32.5 98t47.5 62q35 33 85 47t99 14q47 0 92 -6t74 -16l-33 -144q-29 8 -54 12.5t-54 4.5q-59 0 -90 -31q-16 -16 -25.5 -39t-19.5 -68l-43 -192h221l-27 -129h-221l-178 -846h-168l178 846h-221z" />
<glyph unicode="g" horiz-adv-x="1107" d="M-6 -110.5q0 10.5 4 24.5l158 37q-2 -10 -2 -18.5v-18.5q0 -106 60 -156.5t165 -50.5q80 0 132 22.5t88 68.5t59.5 117t41.5 165l13 59q-12 -25 -38 -50.5t-64 -47t-86 -35.5t-103 -14q-68 0 -131.5 25.5t-111.5 76.5t-76.5 127t-28.5 176q0 121 35.5 229.5t100 190.5 t157 130t202.5 48q119 0 188.5 -51t98.5 -121l33 152h170l-199 -930q-23 -98 -48.5 -178t-66.5 -139q-57 -84 -144 -122t-224 -38q-113 0 -186.5 27.5t-117.5 70.5t-61.5 96.5t-17.5 106.5v20.5zM244 420q0 -123 53 -204t174 -81q84 0 145.5 42t102.5 108.5t61.5 146.5 t20.5 154q0 121 -53.5 194.5t-169.5 73.5q-78 0 -139.5 -39t-104.5 -101.5t-66.5 -140t-23.5 -153.5z" />
<glyph unicode="h" horiz-adv-x="1077" d="M35 0l305 1434h172l-133 -605q47 74 131 121t182 47q51 0 99.5 -13t85 -42t58 -77t21.5 -115q0 -35 -7 -84.5t-17 -102.5l-119 -563h-168l115 532q10 43 18 87.5t8 85.5q0 61 -31.5 105t-123.5 44q-63 0 -115.5 -28.5t-92.5 -73.5t-65.5 -101.5t-38.5 -109.5l-114 -541 h-170z" />
<glyph unicode="i" horiz-adv-x="464" d="M37 0l207 975h170l-207 -975h-170zM289 1186l45 217h170l-45 -217h-170z" />
<glyph unicode="j" horiz-adv-x="477" d="M-274 -401l36 133q35 -12 68 -17.5t57 -5.5q49 0 78 29q14 16 24.5 40.5t20.5 69.5l242 1127h170l-217 -1014q-16 -76 -28.5 -129t-25 -91t-27.5 -64.5t-36 -49.5q-35 -35 -81 -48t-95 -13q-53 0 -102.5 8t-83.5 25zM295 1186l47 217h166l-43 -217h-170z" />
<glyph unicode="k" horiz-adv-x="1011" d="M37 0l303 1434h170l-191 -887l525 428h237l-497 -393l309 -582h-197l-243 477l-174 -141l-74 -336h-168z" />
<glyph unicode="l" horiz-adv-x="468" d="M37 0l303 1434h170l-305 -1434h-168z" />
<glyph unicode="m" horiz-adv-x="1630" d="M33 0l207 975h172l-33 -139q43 74 116.5 117.5t163.5 43.5q86 0 158 -44t96 -136q41 74 125 127t201 53q51 0 100.5 -16t86 -48t59 -82t22.5 -118q0 -74 -22 -182l-117 -551h-170l113 526q8 39 17 84t9 88q0 61 -31.5 105.5t-123.5 44.5q-55 0 -101.5 -23.5t-81 -61.5 t-58 -86t-34.5 -99l-121 -578h-168l113 526q8 39 17.5 84t9.5 88q0 61 -32 105.5t-124 44.5q-61 0 -109.5 -27.5t-83 -71.5t-57 -99.5t-35.5 -108.5l-114 -541h-170z" />
<glyph unicode="n" horiz-adv-x="1075" d="M35 0l207 975h172l-35 -146q47 74 131 121t182 47q51 0 99.5 -13t85 -42t58 -77t21.5 -115q0 -35 -7 -84.5t-17 -102.5l-119 -563h-168l115 532q10 43 18 87.5t8 85.5q0 61 -31.5 105t-123.5 44q-63 0 -115.5 -28.5t-92.5 -73.5t-65.5 -101.5t-38.5 -109.5l-114 -541 h-170z" />
<glyph unicode="o" horiz-adv-x="1101" d="M104 387q0 115 34 224.5t99.5 195.5t165 138t228.5 52q94 0 165.5 -30.5t121 -87t75 -134t25.5 -170.5q0 -109 -33 -216t-97.5 -192t-162.5 -138.5t-229 -53.5q-180 0 -286 111t-106 301zM270 399q0 -135 66.5 -208.5t177.5 -73.5q86 0 150.5 42t105.5 108.5t61.5 148.5 t20.5 162q0 135 -63.5 207.5t-178.5 72.5q-86 0 -149.5 -42t-105.5 -108.5t-63.5 -148.5t-21.5 -160z" />
<glyph unicode="p" horiz-adv-x="1120" d="M-41 -434l299 1407h170l-31 -131q43 68 120 111.5t173 43.5q68 0 131.5 -24.5t111.5 -73.5t76.5 -124t28.5 -175q0 -121 -34.5 -233.5t-99 -198.5t-157 -138.5t-206.5 -52.5q-119 0 -188.5 51.5t-98.5 121.5l-125 -584h-170zM309 387q0 -121 53.5 -194.5t169.5 -73.5 q80 0 142.5 43t105.5 110.5t65.5 148.5t22.5 157q0 123 -54 199.5t-173 76.5q-84 0 -146.5 -45t-103.5 -113.5t-61.5 -151.5t-20.5 -157z" />
<glyph unicode="q" horiz-adv-x="1116" d="M70 373q0 121 34.5 233.5t99 198.5t157 138t206.5 52q119 0 188.5 -51t98.5 -121l33 152h170l-299 -1409h-170l123 565q-43 -68 -120 -112t-173 -44q-68 0 -131.5 25t-111.5 74t-76.5 123.5t-28.5 175.5zM240 395q0 -123 54 -199.5t173 -76.5q84 0 146.5 45t103.5 113.5 t61.5 151.5t20.5 157q0 121 -53.5 194.5t-170.5 73.5q-80 0 -142 -43t-105 -110.5t-65.5 -148.5t-22.5 -157z" />
<glyph unicode="r" horiz-adv-x="669" d="M33 0l207 975h170l-41 -187q20 45 56 84t82 67t96 43t99 15q31 0 60 -6l-35 -162q-31 6 -61 7q-70 0 -129.5 -29t-105.5 -76t-77.5 -106.5t-44.5 -120.5l-106 -504h-170z" />
<glyph unicode="s" horiz-adv-x="915" d="M12 219l129 84q12 -35 36 -68.5t58.5 -60.5t80.5 -43t104 -16q100 0 154.5 40t54.5 111q0 33 -11.5 55.5t-32 39t-48 27.5t-60.5 22l-131 43q-35 12 -74 29.5t-71.5 47t-53 72.5t-20.5 105q0 72 28.5 126t78 91t114 55t135.5 18q129 0 225.5 -59t137.5 -158l-121 -88 q-31 72 -95.5 120t-156.5 48q-80 0 -130 -34.5t-50 -100.5q0 -61 40 -90t101 -49l131 -41q45 -14 86 -33.5t73 -48.5t51.5 -71t19.5 -101q0 -80 -31 -138.5t-83 -98.5t-119.5 -59.5t-141.5 -19.5q-82 0 -147.5 19.5t-117 52.5t-87 77t-56.5 95z" />
<glyph unicode="t" horiz-adv-x="606" d="M53 846l27 129h188l70 321l176 33l-76 -354h213l-26 -129h-213l-131 -610q-4 -16 -6.5 -32t-2.5 -26q0 -29 17.5 -45t68.5 -16q31 0 63 5t52 9l-29 -139q-27 -6 -64.5 -11.5t-84.5 -5.5q-104 0 -152.5 28t-48.5 106q0 29 10 79l140 658h-191z" />
<glyph unicode="u" horiz-adv-x="1048" d="M82 246q0 70 22 178l117 551h168l-113 -526q-10 -43 -18 -87.5t-8 -85.5q0 -61 30.5 -105t120.5 -44q61 0 112.5 27.5t89.5 71.5t63.5 99.5t38.5 108.5l114 541h170l-207 -975h-172l35 145q-47 -74 -121.5 -121t-179.5 -47q-53 0 -100 16.5t-83 49.5t-57.5 83t-21.5 120z " />
<glyph unicode="v" horiz-adv-x="860" d="M76 975h176l74 -555q4 -31 8 -64.5t7 -63.5t6 -51.5t3 -29.5h2q4 8 15.5 28.5t26 49t31.5 62.5t36 67l303 557h188l-561 -975h-168z" />
<glyph unicode="w" horiz-adv-x="1427" d="M76 975h180l61 -535q6 -59 13.5 -115.5t11.5 -91.5h2q16 35 43 94.5t62 121.5l286 526h154l45 -529q6 -66 9 -123t7 -92h2q8 16 20.5 42t28 55.5t32 61.5t32.5 63l281 522h182l-545 -975h-158l-53 551q-6 63 -8 118.5t-2 73.5h-2q-10 -18 -35 -74.5t-59 -119.5l-293 -549 h-170z" />
<glyph unicode="x" horiz-adv-x="907" d="M-119 0l469 520l-211 455h189l141 -332l289 332h200l-426 -471l228 -504h-187l-161 377l-328 -377h-203z" />
<glyph unicode="y" horiz-adv-x="866" d="M-174 -408l31 140q20 -10 50 -16.5t58 -6.5q37 0 62.5 10.5t48.5 30.5q20 20 37.5 48t38.5 63l86 147l-140 967h178l72 -576q4 -33 7 -63.5t5 -54.5q2 -29 5 -56h2l30 62q14 27 31.5 59.5t36.5 65.5l319 563h185l-690 -1184q-29 -51 -53.5 -88t-51.5 -63 q-72 -74 -217 -74q-45 0 -81 9t-50 17z" />
<glyph unicode="z" horiz-adv-x="886" d="M-61 0l28 135l695 699h-523l31 141h748l-29 -131l-709 -703h568l-31 -141h-778z" />
<glyph unicode="{" horiz-adv-x="704" d="M127 -229q0 41 10 96t21 108l73 344q18 82 19 134q0 39 -22.5 66.5t-80.5 37.5l29 119q49 4 79 22.5t49.5 51t32.5 80t25 108.5l50 238q20 96 43.5 165.5t61.5 113.5t94.5 65.5t142.5 21.5h32.5t51.5 -4l-29 -139h-39q-55 0 -88 -11.5t-52.5 -38t-30.5 -69.5t-24 -104 l-71 -340q-14 -68 -31.5 -111t-39 -68.5t-46 -39t-51.5 -21.5q37 -25 54.5 -59.5t17.5 -90.5q0 -47 -11.5 -108.5t-29.5 -147.5l-58 -262q-10 -43 -14 -71.5t-4 -53.5q0 -51 35.5 -75.5t130.5 -28.5l-29 -133q-61 0 -115.5 5t-96.5 25.5t-65.5 61.5t-23.5 113z" />
<glyph unicode="|" horiz-adv-x="456" d="M147 -436v1972h162v-1972h-162z" />
<glyph unicode="}" horiz-adv-x="704" d="M-133 -430l29 139h38q55 0 88 11.5t52.5 38t31 69.5t23.5 104l78 377q14 68 31.5 111t39 68.5t45 39t52.5 21.5q-37 25 -54.5 59.5t-17.5 89.5q0 47 11.5 108.5t29.5 147.5l51 226q10 43 14.5 71.5t4.5 53.5q0 51 -36 75.5t-130 28.5l28 133q61 0 115.5 -5t96.5 -25.5 t66 -61.5t24 -113q0 -41 -10.5 -96t-20.5 -108l-68 -308q-18 -84 -18 -133q0 -39 22.5 -66.5t79.5 -37.5l-28 -119q-49 -4 -79 -22.5t-50.5 -51.5t-33 -80t-24.5 -108l-55 -275q-20 -98 -44 -166.5t-61.5 -113.5t-94 -65.5t-142.5 -20.5h-32.5t-51.5 4z" />
<glyph unicode="~" horiz-adv-x="1583" d="M305 569q14 20 37 52t56.5 62t77.5 50.5t99 20.5q66 0 125.5 -23.5t122.5 -54.5q47 -23 89 -42.5t81 -19.5q31 0 57.5 13.5t51 35t46 46t40.5 47.5l82 -140q-55 -70 -124 -122t-159 -52q-57 0 -110.5 19.5t-126.5 60.5q-41 23 -85 40.5t-92 17.5q-49 0 -86.5 -34 t-95.5 -110z" />
<glyph unicode="&#xa1;" horiz-adv-x="477" d="M-47 -459l153 725l103 355h119l-52 -355l-153 -725h-170zM197 719l55 256h182l-55 -256h-182z" />
<glyph unicode="&#xa2;" d="M199 379q0 115 31.5 223.5t92 193.5t148.5 139t203 60l41 193h147l-43 -205q94 -27 156.5 -91.5t91.5 -152.5l-141 -84q-16 59 -49 108.5t-89 74.5l-153 -721q92 10 151.5 66.5t96.5 121.5l121 -96q-20 -35 -54.5 -75t-83.5 -73.5t-114.5 -58.5t-147.5 -27l-43 -206h-147 l47 223q-127 33 -194.5 133t-67.5 254zM362 412q0 -104 34 -173t96 -100l151 715q-68 -12 -121 -57t-88 -107.5t-53.5 -136t-18.5 -141.5z" />
<glyph unicode="&#xa3;" d="M20 0l29 139q63 4 109.5 21.5t81 55.5t59.5 100.5t47 156.5q8 35 14.5 74t12.5 96h-221l34 150h209l23 135q18 115 51 214t88 171q53 68 133 106.5t189 38.5q88 0 152.5 -26.5t106.5 -71.5t61.5 -107.5t19.5 -132.5v-16l-154 -53v24q0 45 -9 87t-33 76t-62.5 54.5 t-98.5 20.5q-82 0 -132 -39t-81 -98q-27 -53 -41 -116t-24 -128l-23 -139h316l-33 -150h-301q0 -8 -4 -31q-4 -18 -9.5 -50t-15.5 -85q-20 -102 -55 -182t-97 -137h58q29 0 64.5 1t80.5 1h467l-35 -160h-977z" />
<glyph unicode="&#xa4;" horiz-adv-x="1091" d="M82 231l125 125q-29 47 -46.5 102.5t-17.5 121.5t17.5 123t48.5 104q-31 33 -64.5 64.5t-62.5 60.5l117 117l125 -127q94 63 223 63q63 0 120.5 -15.5t104.5 -47.5l123 122l115 -114l-121 -123q31 -49 47 -105.5t16 -121.5q0 -133 -61 -228l60.5 -60.5l58.5 -58.5 l-115 -114l-121 123q-96 -66 -227 -66q-63 0 -121.5 15.5t-106.5 48.5l-122 -123zM303 580q0 -51 18.5 -96.5t51.5 -79t78 -53t96 -19.5q53 0 98 19.5t78 53t51.5 78.5t18.5 97q0 51 -18.5 97t-51.5 80t-78 53t-98 19q-51 0 -96 -19t-78 -53t-51.5 -79t-18.5 -98z" />
<glyph unicode="&#xa5;" d="M84 332l31 147h389l24 111l-10 26h-373l31 148h283l-266 670h184l268 -676l567 676h213l-569 -670h295l-31 -148h-389l-22 -26l-25 -111h406l-31 -147h-406l-69 -332h-181l70 332h-389z" />
<glyph unicode="&#xa6;" horiz-adv-x="462" d="M147 348h168v-784h-168v784zM147 752v784h168v-784h-168z" />
<glyph unicode="&#xa7;" d="M115 92l137 107q16 -35 43 -72t63.5 -66.5t85 -48t107.5 -18.5q102 0 163.5 43t61.5 129q0 43 -18.5 73.5t-49 55t-69.5 44t-78 40.5l-65 35q-61 33 -111.5 64.5t-86.5 70.5t-55.5 88t-19.5 115q0 72 25.5 127t68.5 93t96.5 61.5t108.5 33.5q-86 86 -86 205q0 68 29 124 t79 97t118.5 64.5t148.5 23.5q76 0 137.5 -21.5t107.5 -54t75.5 -68.5t42.5 -65l-132 -102q-10 23 -31.5 51.5t-51 53t-68.5 41t-84 16.5q-86 0 -139.5 -43t-53.5 -109q0 -37 13.5 -63.5t36 -47t55.5 -39t69 -36.5l54 -27q57 -29 107 -57.5t87 -64.5t58.5 -85t21.5 -117 q0 -76 -23.5 -132t-60.5 -97t-84 -67.5t-94 -38.5q33 -31 65.5 -80t32.5 -144q0 -86 -32.5 -150.5t-88 -107.5t-128 -63.5t-152.5 -20.5q-143 0 -257 64.5t-179 185.5zM401 766q0 -80 54.5 -127t126.5 -80l120 -55q102 14 170 75.5t68 145.5q0 78 -57.5 120t-141.5 81 l-75 35q-117 -4 -191 -56.5t-74 -138.5z" />
<glyph unicode="&#xa8;" horiz-adv-x="993" d="M352 1155l47 221h174l-47 -221h-174zM721 1155l47 221h174l-47 -221h-174z" />
<glyph unicode="&#xa9;" horiz-adv-x="1624" d="M72 717q0 156 56 292t156.5 235t235.5 156.5t293 57.5t293 -57.5t234.5 -156.5t155.5 -235t56 -292q0 -158 -56 -293t-155.5 -234.5t-234.5 -157t-293 -57.5t-293 57.5t-235.5 157t-156.5 234.5t-56 293zM217 717q0 -125 46 -235.5t126 -192.5t188.5 -130t235.5 -48 t235.5 48t188.5 130t125 192.5t45 235.5t-45 235.5t-125 192.5t-188.5 130t-235.5 48t-235.5 -48t-188.5 -130t-126 -192.5t-46 -235.5zM430 717q0 100 26.5 183t77 141.5t121 90t158.5 31.5q125 0 210 -64.5t128 -174.5l-119 -72q-31 90 -86 138t-133 48q-111 0 -175.5 -85 t-64.5 -234q0 -150 67 -233t173 -83q158 0 223 164l115 -73q-49 -100 -134 -157.5t-204 -57.5q-88 0 -158.5 30.5t-121 88t-77 138t-26.5 181.5z" />
<glyph unicode="&#xaa;" horiz-adv-x="688" d="M164 977q0 53 18.5 90t51 62.5t78.5 40t104 24.5l100 16q37 6 55.5 10.5t22.5 16.5q6 25 6 47q0 29 -21.5 50.5t-86.5 21.5q-76 0 -108 -34t-48 -87l-107 47q18 86 95 132t180 46q35 0 73.5 -6t70.5 -22.5t52.5 -46t20.5 -76.5q0 -23 -2 -46.5t-10 -62.5l-45 -213 q-2 -8 -5.5 -22.5t-3.5 -24.5q0 -37 45 -37q23 0 39 8l-22 -100q-16 -4 -33.5 -7t-40.5 -3q-35 0 -64.5 14t-41.5 49q-29 -29 -75 -49t-106 -20q-92 0 -142 52t-50 130zM287 987q0 -86 96 -86q78 0 118 43t56 117l14 67q-20 -8 -47.5 -12t-74.5 -12q-29 -4 -59 -12.5 t-52.5 -21.5t-36.5 -32.5t-14 -50.5z" />
<glyph unicode="&#xab;" horiz-adv-x="851" d="M78 547l33 160l374 284l-47 -217l-221 -153l148 -193l-46 -213zM432 547l33 160l375 284l-47 -217l-222 -153l148 -193l-45 -213z" />
<glyph unicode="&#xac;" horiz-adv-x="1583" d="M303 795v135h934v-565h-154v430h-780z" />
<glyph unicode="&#xad;" horiz-adv-x="692" d="M61 467l39 178h529l-39 -178h-529z" />
<glyph unicode="&#xae;" horiz-adv-x="1624" d="M72 717q0 156 56 292t156.5 235t235.5 156.5t293 57.5t293 -57.5t234.5 -156.5t155.5 -235t56 -292q0 -158 -56 -293t-155.5 -234.5t-234.5 -157t-293 -57.5t-293 57.5t-235.5 157t-156.5 234.5t-56 293zM217 717q0 -125 46 -235.5t126 -192.5t188.5 -130t235.5 -48 t235.5 48t188.5 130t125 192.5t45 235.5t-45 235.5t-125 192.5t-188.5 130t-235.5 48t-235.5 -48t-188.5 -130t-126 -192.5t-46 -235.5zM483 293v856h353q113 0 172 -27q59 -29 102 -85t43 -140q0 -86 -41 -140.5t-104 -82.5q-14 -6 -34 -11.5t-36 -9.5q59 -86 130 -181 t130 -179h-168l-252 354h-162v-354h-133zM616 768h197q55 0 86 4t51 14q68 33 68 111q0 82 -68 115q-20 10 -50 12t-87 2h-197v-258z" />
<glyph unicode="&#xaf;" horiz-adv-x="964" d="M342 1214l31 138h555l-31 -138h-555z" />
<glyph unicode="&#xb0;" horiz-adv-x="757" d="M41 1151q0 70 26.5 131t72.5 107.5t107.5 73t131.5 26.5t131 -26.5t107.5 -73t73 -107.5t26.5 -131t-26.5 -131.5t-73 -107.5t-107.5 -72.5t-131 -26.5t-131.5 26.5t-107.5 72.5t-72.5 107.5t-26.5 131.5zM227 1151q0 -63 44 -107.5t108 -44.5q63 0 107 44t44 108 q0 63 -44 107.5t-107 44.5t-107.5 -44.5t-44.5 -107.5z" />
<glyph unicode="&#xb1;" horiz-adv-x="1583" d="M190 0v156h1201v-156h-1201zM190 639v156h523v426h157v-426h521v-156h-521v-428h-157v428h-523z" />
<glyph unicode="&#xb2;" horiz-adv-x="737" d="M-12 514l22 117q31 18 73 43.5t89 56.5t97 65.5t100 71.5q43 31 83 64t71.5 71.5t51 81.5t19.5 97q0 66 -41 104.5t-115 38.5q-94 0 -136 -53t-42 -127q0 -37 8 -72t19 -57l-160 35q-12 49 -12 96q0 61 21.5 118.5t63.5 100.5t103.5 68.5t138.5 25.5q139 0 220 -77.5 t81 -196.5q0 -78 -31.5 -144.5t-82.5 -123t-112.5 -103.5t-121.5 -90q-25 -16 -41 -27.5t-29.5 -19.5t-25.5 -16.5t-29 -16.5h396l-31 -131h-647z" />
<glyph unicode="&#xb3;" horiz-adv-x="737" d="M27 768l141 49q4 -74 48 -131t140 -57q84 0 133.5 41t49.5 118q0 147 -232 148h-51l23 119h86q100 0 157.5 33.5t57.5 117.5q0 57 -40 88t-106 31q-78 0 -121 -48t-53 -114l-133 51q8 43 30.5 86t61.5 77t93.5 55.5t125.5 21.5q74 0 128.5 -19.5t90 -52t52 -75.5 t16.5 -90q0 -78 -41 -142.5t-111 -89.5q41 -18 77 -69.5t36 -129.5q0 -133 -90 -210.5t-240 -77.5q-74 0 -133 21.5t-100 58t-65.5 86t-30.5 104.5z" />
<glyph unicode="&#xb4;" horiz-adv-x="915" d="M395 1155l215 279h250l-291 -279h-174z" />
<glyph unicode="&#xb6;" horiz-adv-x="1544" d="M143 1028q0 205 138 313q27 23 58.5 40.5t72.5 28.5t94 17.5t125 6.5h700v-134h-162v-1611h-145v1611h-227v-1611h-148v934h-18q-72 0 -125 6t-94 17t-73 28.5t-58 40.5q-137 109 -138 313z" />
<glyph unicode="&#xb7;" horiz-adv-x="378" d="M100 539l52 233h194l-51 -233h-195z" />
<glyph unicode="&#xb8;" horiz-adv-x="735" d="M125 -117l96 131h113l-60 -84h7q72 0 121 -36.5t49 -112.5q0 -47 -17.5 -80t-46.5 -54.5t-64.5 -31.5t-74.5 -10q-29 0 -57.5 5t-53.5 15l25 78q31 -12 71 -12q39 0 68 16.5t29 56.5q0 39 -27 55.5t-61 16.5q-45 0 -76 -18z" />
<glyph unicode="&#xb9;" horiz-adv-x="737" d="M147 1133l31 120h45q45 0 78 7.5t59 25.5q59 41 84 148h138l-201 -928h-145l139 637q-35 -10 -64.5 -13.5t-64.5 -3.5q-29 0 -51.5 1t-47.5 6z" />
<glyph unicode="&#xba;" horiz-adv-x="763" d="M205 1057q0 76 22.5 148.5t66.5 128t107.5 89t147.5 33.5q117 0 186.5 -67.5t69.5 -190.5q0 -74 -21.5 -146.5t-64.5 -131t-107.5 -94t-152.5 -35.5q-127 0 -190.5 72.5t-63.5 193.5zM328 1067q0 -78 34.5 -124t102.5 -46q55 0 96 27.5t66.5 70.5t38 94.5t12.5 98.5 q0 74 -33 119t-106 45q-51 0 -90 -27t-66 -67.5t-41 -91t-14 -99.5z" />
<glyph unicode="&#xbb;" horiz-adv-x="851" d="M12 215l49 227l222 156l-148 190l43 203l242 -332l-33 -159zM367 215l49 227l221 156l-148 190l43 203l242 -332l-33 -159z" />
<glyph unicode="&#xbc;" horiz-adv-x="1787" d="M240 1133l30 120h45q45 0 78 7.5t60 25.5q59 41 84 148h137l-201 -928h-145l139 637q-35 -10 -64.5 -13.5t-64.5 -3.5q-29 0 -51.5 1t-46.5 6zM307 0l957 1434h168l-959 -1434h-166zM901 227l23 95l567 610h123l-123 -574h160l-27 -131h-160l-51 -227h-145l53 227h-420z M1130 356h35q16 0 37 1t43 1h98l31 138q12 53 23.5 98t17.5 63h-4q-12 -14 -29 -32q-14 -16 -31.5 -37t-39.5 -43l-88 -92l-93 -93v-4z" />
<glyph unicode="&#xbd;" horiz-adv-x="1787" d="M152 1133l30 120h45q45 0 78 7.5t60 25.5q59 41 84 148h137l-201 -928h-145l139 637q-35 -10 -64.5 -13.5t-64.5 -3.5q-29 0 -51.5 1t-46.5 6zM215 0l956 1434h168l-958 -1434h-166zM942 0l23 117q31 18 72.5 43.5t89 56.5t97.5 65.5t99 71.5q43 31 83 64t71.5 71.5 t51 81.5t19.5 97q0 66 -41 104.5t-114 38.5q-94 0 -136.5 -53t-42.5 -127q0 -37 8.5 -72t18.5 -57l-160 35q-12 49 -12 96q0 61 21.5 118.5t63.5 100.5t103.5 68.5t139.5 25.5q139 0 220 -77.5t81 -196.5q0 -78 -32 -144.5t-83 -123t-112.5 -103.5t-120.5 -90 q-25 -16 -41.5 -27.5t-29.5 -19.5t-25.5 -16.5t-28.5 -16.5h395l-31 -131h-647z" />
<glyph unicode="&#xbe;" horiz-adv-x="1787" d="M90 768l141 49q4 -74 48.5 -131t140.5 -57q84 0 133 41t49 118q0 147 -231 148h-52l23 119h86q100 0 157.5 33.5t57.5 117.5q0 57 -40 88t-105 31q-78 0 -121 -48t-53 -114l-134 51q8 43 31 86t62 77t93 55.5t126 21.5q74 0 128 -19.5t90 -52t52 -75.5t16 -90 q0 -78 -40.5 -142.5t-110.5 -89.5q41 -18 77 -69.5t36 -129.5q0 -133 -90.5 -210.5t-239.5 -77.5q-74 0 -133.5 21.5t-100.5 58t-65.5 86t-30.5 104.5zM471 0l956 1434h168l-958 -1434h-166zM1024 227l23 95l567 610h123l-123 -574h160l-27 -131h-160l-51 -227h-145l53 227 h-420zM1253 356h35q16 0 37 1t43 1h98l31 138q12 53 23.5 98t17.5 63h-4q-12 -14 -29 -32q-14 -16 -31.5 -37t-39.5 -43l-88 -92l-93 -93v-4z" />
<glyph unicode="&#xbf;" horiz-adv-x="935" d="M-90 -127q0 66 18.5 127t59.5 121q23 33 52.5 64.5t76.5 66.5l180 137q37 29 59.5 52.5t36 45t20.5 45t13 54.5l14 71h181q-12 -78 -26.5 -131t-39.5 -96t-63.5 -81t-100.5 -83l-158 -116q-23 -16 -41 -34t-28 -30q-43 -49 -61.5 -101.5t-18.5 -101.5q0 -43 14.5 -82 t45 -69.5t76.5 -49t108 -18.5q72 0 125 25.5t87.5 68.5t52 98.5t17.5 114.5q0 88 -39 179l185 -66q20 -68 20 -139q0 -86 -31.5 -164t-92 -136.5t-147.5 -93t-198 -34.5q-102 0 -177 28.5t-124 77.5t-72.5 113.5t-23.5 136.5zM449 723l51 252h190l-55 -252h-186z" />
<glyph unicode="&#xc0;" horiz-adv-x="1155" d="M-143 0l815 1434h202l199 -1434h-180l-55 418h-559l-232 -418h-190zM369 575h450l-69 525q-4 25 -6.5 50.5t-4.5 47.5q-2 25 -4 49h-2l-24 -49q-10 -23 -23.5 -49.5t-28.5 -50.5zM502 1841h250l215 -278h-174z" />
<glyph unicode="&#xc1;" horiz-adv-x="1155" d="M-143 0l815 1434h202l199 -1434h-180l-55 418h-559l-232 -418h-190zM369 575h450l-69 525q-4 25 -6.5 50.5t-4.5 47.5q-2 25 -4 49h-2l-24 -49q-10 -23 -23.5 -49.5t-28.5 -50.5zM639 1563l215 278h250l-291 -278h-174z" />
<glyph unicode="&#xc2;" horiz-adv-x="1155" d="M-143 0l815 1434h202l199 -1434h-180l-55 418h-559l-232 -418h-190zM369 575h450l-69 525q-4 25 -6.5 50.5t-4.5 47.5q-2 25 -4 49h-2l-24 -49q-10 -23 -23.5 -49.5t-28.5 -50.5zM496 1565l270 276h158l157 -276h-155l-101 147l-159 -147h-170z" />
<glyph unicode="&#xc3;" horiz-adv-x="1155" d="M-143 0l815 1434h202l199 -1434h-180l-55 418h-559l-232 -418h-190zM369 575h450l-69 525q-4 25 -6.5 50.5t-4.5 47.5q-2 25 -4 49h-2l-24 -49q-10 -23 -23.5 -49.5t-28.5 -50.5zM469 1612q8 23 24.5 58.5t43 69.5t63.5 57.5t88 23.5q37 0 71 -12.5t66 -30.5 q29 -16 57.5 -31.5t57.5 -15.5q35 0 54.5 31.5t29.5 64.5l135 -35q-16 -37 -34.5 -74t-44 -66.5t-58.5 -48t-78 -18.5t-85 16.5t-75 34.5q-23 10 -49 26.5t-55 16.5q-16 0 -28.5 -10t-21.5 -24.5t-15.5 -32t-8.5 -29.5z" />
<glyph unicode="&#xc4;" horiz-adv-x="1155" d="M-143 0l815 1434h202l199 -1434h-180l-55 418h-559l-232 -418h-190zM369 575h450l-69 525q-4 25 -6.5 50.5t-4.5 47.5q-2 25 -4 49h-2l-24 -49q-10 -23 -23.5 -49.5t-28.5 -50.5zM526 1563l47 221h175l-48 -221h-174zM895 1563l47 221h174l-47 -221h-174z" />
<glyph unicode="&#xc5;" horiz-adv-x="1155" d="M-143 0l815 1434h202l199 -1434h-180l-55 418h-559l-232 -418h-190zM369 575h450l-69 525q-4 25 -6.5 50.5t-4.5 47.5q-2 25 -4 49h-2l-24 -49q-10 -23 -23.5 -49.5t-28.5 -50.5zM596 1718q0 86 58.5 143.5t144.5 57.5t144 -57.5t58 -143.5t-58 -143t-144 -57t-144.5 57 t-58.5 143zM717 1718q0 -35 23.5 -57.5t56.5 -22.5t56.5 22.5t23.5 57.5t-24 57.5t-56 22.5q-33 0 -56.5 -22.5t-23.5 -57.5z" />
<glyph unicode="&#xc6;" horiz-adv-x="1822" d="M-248 0l1157 1434h1012l-35 -166h-715l-94 -445h643l-37 -166h-643l-102 -489h756l-37 -168h-936l82 385h-529l-303 -385h-219zM401 547h437l100 471q16 74 27.5 127t19.5 88q8 41 16 70h-4q-39 -55 -89 -118t-107 -134z" />
<glyph unicode="&#xc7;" horiz-adv-x="1368" d="M96 580q0 162 45 318.5t134.5 281.5t224.5 201.5t317 76.5q113 0 198 -30.5t146.5 -81t100 -115t61.5 -129.5l-152 -107q-12 55 -38.5 110.5t-70.5 99.5t-108.5 71t-150.5 27q-137 0 -235.5 -66t-162 -169t-93 -232t-29.5 -256q0 -207 103 -328t284 -121q84 0 149.5 24.5 t116.5 63.5t91 89t75 100l125 -111q-47 -68 -102.5 -125t-123 -100t-148.5 -69t-179 -28l-33 -45h6q72 0 121 -36.5t49 -112.5q0 -47 -17.5 -80t-46 -54.5t-64.5 -31.5t-75 -10q-29 0 -57.5 5t-52.5 15l24 78q31 -12 72 -12q39 0 67.5 16.5t28.5 56.5q0 39 -26.5 55.5 t-61.5 16.5q-45 0 -76 -18l-40 65l77 99q-111 14 -197.5 63t-148 127t-94.5 181.5t-33 226.5z" />
<glyph unicode="&#xc8;" horiz-adv-x="1222" d="M57 0l305 1434h959l-35 -166h-778l-94 -445h706l-37 -166h-706l-103 -489h820l-37 -168h-1000zM528 1841h250l215 -278h-174z" />
<glyph unicode="&#xc9;" horiz-adv-x="1222" d="M57 0l305 1434h959l-35 -166h-778l-94 -445h706l-37 -166h-706l-103 -489h820l-37 -168h-1000zM707 1563l215 278h249l-290 -278h-174z" />
<glyph unicode="&#xca;" horiz-adv-x="1222" d="M57 0l305 1434h959l-35 -166h-778l-94 -445h706l-37 -166h-706l-103 -489h820l-37 -168h-1000zM549 1565l270 276h158l158 -276h-156l-100 147l-160 -147h-170z" />
<glyph unicode="&#xcb;" horiz-adv-x="1222" d="M57 0l305 1434h959l-35 -166h-778l-94 -445h706l-37 -166h-706l-103 -489h820l-37 -168h-1000zM575 1563l48 221h174l-47 -221h-175zM944 1563l47 221h174l-47 -221h-174z" />
<glyph unicode="&#xcc;" horiz-adv-x="514" d="M57 0l305 1434h181l-305 -1434h-181zM121 1841h250l215 -278h-174z" />
<glyph unicode="&#xcd;" horiz-adv-x="514" d="M57 0l305 1434h181l-305 -1434h-181zM317 1563l215 278h250l-290 -278h-175z" />
<glyph unicode="&#xce;" horiz-adv-x="514" d="M57 0l305 1434h181l-305 -1434h-181zM174 1565l270 276h158l158 -276h-156l-100 147l-160 -147h-170z" />
<glyph unicode="&#xcf;" horiz-adv-x="514" d="M57 0l305 1434h181l-305 -1434h-181zM205 1563l45 221h174l-47 -221h-172zM571 1563l47 221h175l-48 -221h-174z" />
<glyph unicode="&#xd0;" horiz-adv-x="1396" d="M43 690l33 160h162l124 584h332q180 0 297 -27t207 -88q92 -63 141.5 -165.5t49.5 -254.5q0 -113 -25 -230.5t-72 -224t-119.5 -195.5t-166.5 -145q-61 -35 -116.5 -56t-113 -31.5t-122 -13.5t-142.5 -3h-455l146 690h-160zM268 162h252q123 0 222.5 16.5t181.5 71.5 q74 49 127 127t86.5 166t50 177t16.5 161q0 219 -143 313q-80 53 -186.5 63.5t-221.5 10.5h-147l-90 -418h436l-33 -160h-438z" />
<glyph unicode="&#xd1;" horiz-adv-x="1441" d="M57 0l305 1434h158l453 -951q12 -25 24.5 -51t22.5 -51t18.5 -42t10.5 -24h2q4 31 12 68q6 31 12 67.5t17 77.5l192 906h180l-305 -1434h-153l-453 950q-10 20 -22.5 48t-24.5 54.5t-20.5 46t-10.5 25.5h-2q-4 -27 -10 -55q-4 -25 -11.5 -57.5t-13.5 -65.5l-200 -946 h-181zM621 1612q8 23 24.5 58.5t43 69.5t63 57.5t88.5 23.5q37 0 70.5 -12.5t66.5 -30.5q29 -16 57.5 -31.5t57.5 -15.5q35 0 54 31.5t30 64.5l135 -35q-16 -37 -35 -74t-44.5 -66.5t-58 -48t-77.5 -18.5t-85 16.5t-75 34.5q-23 10 -49.5 26.5t-55.5 16.5q-16 0 -28 -10 t-21.5 -24.5t-15.5 -32t-8 -29.5z" />
<glyph unicode="&#xd2;" horiz-adv-x="1433" d="M96 573q0 166 46 325t140.5 283t234.5 200.5t329 76.5q131 0 236.5 -43t179 -122t112.5 -188.5t39 -244.5q0 -164 -47 -321.5t-142.5 -283.5t-237.5 -203t-331 -77q-133 0 -236.5 43t-175 122t-109.5 189.5t-38 243.5zM283 580q0 -207 101 -328t292 -121 q137 0 240.5 65.5t173 169t103.5 231.5t34 255q0 209 -105 330t-295 121q-145 0 -247.5 -66t-169 -169t-97 -232t-30.5 -256zM520 1841h250l215 -278h-174z" />
<glyph unicode="&#xd3;" horiz-adv-x="1433" d="M96 573q0 166 46 325t140.5 283t234.5 200.5t329 76.5q131 0 236.5 -43t179 -122t112.5 -188.5t39 -244.5q0 -164 -47 -321.5t-142.5 -283.5t-237.5 -203t-331 -77q-133 0 -236.5 43t-175 122t-109.5 189.5t-38 243.5zM283 580q0 -207 101 -328t292 -121 q137 0 240.5 65.5t173 169t103.5 231.5t34 255q0 209 -105 330t-295 121q-145 0 -247.5 -66t-169 -169t-97 -232t-30.5 -256zM717 1563l215 278h250l-291 -278h-174z" />
<glyph unicode="&#xd4;" horiz-adv-x="1433" d="M96 573q0 166 46 325t140.5 283t234.5 200.5t329 76.5q131 0 236.5 -43t179 -122t112.5 -188.5t39 -244.5q0 -164 -47 -321.5t-142.5 -283.5t-237.5 -203t-331 -77q-133 0 -236.5 43t-175 122t-109.5 189.5t-38 243.5zM283 580q0 -207 101 -328t292 -121 q137 0 240.5 65.5t173 169t103.5 231.5t34 255q0 209 -105 330t-295 121q-145 0 -247.5 -66t-169 -169t-97 -232t-30.5 -256zM575 1565l271 276h158l157 -276h-155l-101 147l-160 -147h-170z" />
<glyph unicode="&#xd5;" horiz-adv-x="1476" d="M96 573q0 166 46 325t140.5 283t234.5 200.5t329 76.5q131 0 236.5 -43t179 -122t112.5 -188.5t39 -244.5q0 -164 -47 -321.5t-142.5 -283.5t-237.5 -203t-331 -77q-133 0 -236.5 43t-175 122t-109.5 189.5t-38 243.5zM283 580q0 -207 101 -328t292 -121 q137 0 240.5 65.5t173 169t103.5 231.5t34 255q0 209 -105 330t-295 121q-145 0 -247.5 -66t-169 -169t-97 -232t-30.5 -256zM573 1612q8 23 24.5 58.5t43.5 69.5t63.5 57.5t88.5 23.5q37 0 70.5 -12.5t66.5 -30.5q29 -16 57.5 -31.5t56.5 -15.5q35 0 54.5 31.5t29.5 64.5 l136 -35q-16 -37 -35 -74t-44.5 -66.5t-58 -48t-77.5 -18.5t-85 16.5t-75 34.5q-23 10 -49.5 26.5t-55.5 16.5q-16 0 -28.5 -10t-21.5 -24.5t-15 -32t-8 -29.5z" />
<glyph unicode="&#xd6;" horiz-adv-x="1433" d="M96 573q0 166 46 325t140.5 283t234.5 200.5t329 76.5q131 0 236.5 -43t179 -122t112.5 -188.5t39 -244.5q0 -164 -47 -321.5t-142.5 -283.5t-237.5 -203t-331 -77q-133 0 -236.5 43t-175 122t-109.5 189.5t-38 243.5zM283 580q0 -207 101 -328t292 -121 q137 0 240.5 65.5t173 169t103.5 231.5t34 255q0 209 -105 330t-295 121q-145 0 -247.5 -66t-169 -169t-97 -232t-30.5 -256zM592 1563l47 221h174l-47 -221h-174zM961 1563l47 221h174l-47 -221h-174z" />
<glyph unicode="&#xd7;" horiz-adv-x="1583" d="M225 150l453 452l-451 453l111 110l450 -452l455 454l113 -112l-455 -455l453 -450l-111 -111l-452 450l-453 -452z" />
<glyph unicode="&#xd8;" horiz-adv-x="1433" d="M-76 197l205 149q-33 98 -33 227q0 166 46 325t140.5 283t234.5 200.5t329 76.5q164 0 283.5 -63.5t191.5 -180.5l180 132l98 -134l-213 -155q12 -45 19.5 -94.5t7.5 -102.5q0 -164 -47 -321.5t-142.5 -283.5t-237.5 -203t-331 -77q-154 0 -267.5 56.5t-184.5 161.5 l-178 -130zM283 580q0 -31 2 -59.5t6 -55.5l880 641q-47 94 -134 145.5t-210 51.5q-145 0 -247.5 -66t-169 -169t-97 -232t-30.5 -256zM348 301q49 -82 131 -126t197 -44q137 0 240.5 65.5t173 169t103.5 231.5t34 255q0 43 -6 84z" />
<glyph unicode="&#xd9;" horiz-adv-x="1394" d="M137 387q0 -92 30 -168t90 -130t150.5 -85t213.5 -31q131 0 240.5 35t178.5 92q80 66 127 173.5t82 275.5l187 885h-179l-188 -889q-27 -127 -61.5 -200t-83.5 -120q-53 -49 -124 -70.5t-163 -21.5q-319 0 -320 275q0 49 10.5 101t22.5 112l174 813h-180 q-10 -51 -24.5 -115t-29 -133.5t-29.5 -140t-30 -136.5q-35 -156 -67 -319q-12 -57 -19.5 -110.5t-7.5 -92.5zM598 1841h250l215 -278h-174z" />
<glyph unicode="&#xda;" horiz-adv-x="1394" d="M137 387q0 39 7.5 92t19.5 111q33 164 67 319q14 66 29.5 136.5t30 140t29 133t24.5 115.5h180l-174 -813q-12 -59 -22.5 -111.5t-10.5 -101.5q0 -274 320 -275q92 0 162.5 21.5t124.5 70.5q49 47 83.5 120t61.5 200l188 889h179l-187 -885q-35 -168 -82 -275.5 t-127 -173.5q-70 -57 -179 -92t-240 -35q-123 0 -213.5 31t-150.5 85t-90 130t-30 168zM770 1563l215 278h250l-291 -278h-174z" />
<glyph unicode="&#xdb;" horiz-adv-x="1394" d="M137 387q0 39 7.5 92t19.5 111q33 164 67 319q14 66 29.5 136.5t30 140t29 133t24.5 115.5h180l-174 -813q-12 -59 -22.5 -111.5t-10.5 -101.5q0 -274 320 -275q92 0 162.5 21.5t124.5 70.5q49 47 83.5 120t61.5 200l188 889h179l-187 -885q-35 -168 -82 -275.5 t-127 -173.5q-70 -57 -179 -92t-240 -35q-123 0 -213.5 31t-150.5 85t-90 130t-30 168zM610 1565l271 276h157l158 -276h-156l-100 147l-160 -147h-170z" />
<glyph unicode="&#xdc;" horiz-adv-x="1394" d="M137 387q0 39 7.5 92t19.5 111q33 164 67 319q14 66 29.5 136.5t30 140t29 133t24.5 115.5h180l-174 -813q-12 -59 -22.5 -111.5t-10.5 -101.5q0 -274 320 -275q92 0 162.5 21.5t124.5 70.5q49 47 83.5 120t61.5 200l188 889h179l-187 -885q-35 -168 -82 -275.5 t-127 -173.5q-70 -57 -179 -92t-240 -35q-123 0 -213.5 31t-150.5 85t-90 130t-30 168zM635 1563l47 221h174l-47 -221h-174zM1004 1563l47 221h174l-47 -221h-174z" />
<glyph unicode="&#xdd;" horiz-adv-x="1130" d="M133 1434h184l269 -676l567 676h213l-717 -844l-125 -590h-180l125 590zM590 1563l215 278h250l-291 -278h-174z" />
<glyph unicode="&#xde;" horiz-adv-x="1282" d="M57 0l305 1434h179l-45 -209h327q119 0 191.5 -15.5t128.5 -46.5q66 -37 113 -109.5t47 -179.5q0 -131 -59.5 -239.5t-168.5 -167.5q-27 -14 -58.5 -25.5t-72.5 -19.5t-94 -12t-125 -4h-401l-86 -406h-181zM356 565h383q109 0 170.5 13.5t102.5 42.5q53 35 85.5 97 t32.5 150q0 74 -34.5 116t-87.5 60q-37 12 -87.5 16.5t-103.5 4.5h-352z" />
<glyph unicode="&#xdf;" horiz-adv-x="1028" d="M33 0l223 1053q25 119 58.5 195.5t99.5 131.5q47 41 108.5 59.5t132.5 18.5q88 0 149.5 -23.5t100.5 -63.5t57.5 -91t18.5 -106q0 -127 -58.5 -209t-158.5 -111q45 -14 74.5 -38.5t46 -55.5t23.5 -64.5t7 -66.5q0 -49 -8 -101.5t-18 -95.5q-27 -123 -58.5 -209 t-75.5 -138t-102.5 -75.5t-138.5 -23.5q-63 0 -103 15t-62.5 42t-31 61.5t-8.5 75.5q0 35 5 72t14 74l18 82h121l-14 -70q-4 -23 -9.5 -51.5t-5.5 -57.5q0 -41 16.5 -72.5t69.5 -31.5q47 0 78 19.5t51.5 57.5t36 94t31.5 130q10 47 19.5 91t9.5 85q0 102 -58.5 138 t-185.5 36h-82l31 137h45q92 0 146 15.5t91 46.5q35 31 56.5 77t21.5 109q0 76 -45 114t-123 38q-59 0 -97 -21.5t-62.5 -59.5t-40 -91.5t-29.5 -116.5l-221 -1024h-164z" />
<glyph unicode="&#xe0;" horiz-adv-x="976" d="M16 240q0 84 28 142t79 97t123.5 62.5t163.5 36.5l198 28q29 4 54.5 12.5t35.5 36.5q8 18 11.5 40t3.5 38q0 25 -8.5 47.5t-30 40t-57 27.5t-93.5 10q-63 0 -107 -14.5t-75 -40t-49.5 -62t-28.5 -79.5l-143 59q10 61 46 112.5t91 88t130 56t161 19.5q70 0 129 -12 t102 -41t67.5 -76t24.5 -114q0 -31 -6 -67t-12 -64l-74 -338q-6 -29 -14 -65t-8 -58q0 -20 12 -36.5t53 -16.5q16 0 37 4q8 2 17 4l-23 -123q-14 -4 -42 -9t-62 -5q-68 0 -110 27.5t-42 94.5q-31 -45 -107.5 -86t-181.5 -41q-55 0 -107 16.5t-94 48.5t-67 82t-25 118z M188 258q0 -74 47.5 -108.5t126.5 -34.5q90 0 166 53t101 168l33 158q-23 -12 -50.5 -17.5t-54.5 -9.5l-108 -16q-51 -8 -98.5 -20.5t-83.5 -34t-57.5 -54.5t-21.5 -84zM236 1434h249l215 -279h-174z" />
<glyph unicode="&#xe1;" horiz-adv-x="976" d="M16 240q0 84 28 142t79 97t123.5 62.5t163.5 36.5l198 28q29 4 54.5 12.5t35.5 36.5q8 18 11.5 40t3.5 38q0 25 -8.5 47.5t-30 40t-57 27.5t-93.5 10q-63 0 -107 -14.5t-75 -40t-49.5 -62t-28.5 -79.5l-143 59q10 61 46 112.5t91 88t130 56t161 19.5q70 0 129 -12 t102 -41t67.5 -76t24.5 -114q0 -31 -6 -67t-12 -64l-74 -338q-6 -29 -14 -65t-8 -58q0 -20 12 -36.5t53 -16.5q16 0 37 4q8 2 17 4l-23 -123q-14 -4 -42 -9t-62 -5q-68 0 -110 27.5t-42 94.5q-31 -45 -107.5 -86t-181.5 -41q-55 0 -107 16.5t-94 48.5t-67 82t-25 118z M188 258q0 -74 47.5 -108.5t126.5 -34.5q90 0 166 53t101 168l33 158q-23 -12 -50.5 -17.5t-54.5 -9.5l-108 -16q-51 -8 -98.5 -20.5t-83.5 -34t-57.5 -54.5t-21.5 -84zM430 1155l215 279h250l-291 -279h-174z" />
<glyph unicode="&#xe2;" horiz-adv-x="976" d="M16 240q0 84 28 142t79 97t123.5 62.5t163.5 36.5l198 28q29 4 54.5 12.5t35.5 36.5q8 18 11.5 40t3.5 38q0 25 -8.5 47.5t-30 40t-57 27.5t-93.5 10q-63 0 -107 -14.5t-75 -40t-49.5 -62t-28.5 -79.5l-143 59q10 61 46 112.5t91 88t130 56t161 19.5q70 0 129 -12 t102 -41t67.5 -76t24.5 -114q0 -31 -6 -67t-12 -64l-74 -338q-6 -29 -14 -65t-8 -58q0 -20 12 -36.5t53 -16.5q16 0 37 4q8 2 17 4l-23 -123q-14 -4 -42 -9t-62 -5q-68 0 -110 27.5t-42 94.5q-31 -45 -107.5 -86t-181.5 -41q-55 0 -107 16.5t-94 48.5t-67 82t-25 118z M188 258q0 -74 47.5 -108.5t126.5 -34.5q90 0 166 53t101 168l33 158q-23 -12 -50.5 -17.5t-54.5 -9.5l-108 -16q-51 -8 -98.5 -20.5t-83.5 -34t-57.5 -54.5t-21.5 -84zM268 1157l271 277h157l158 -277h-156l-100 148l-160 -148h-170z" />
<glyph unicode="&#xe3;" horiz-adv-x="976" d="M16 240q0 84 28 142t79 97t123.5 62.5t163.5 36.5l198 28q29 4 54.5 12.5t35.5 36.5q8 18 11.5 40t3.5 38q0 25 -8.5 47.5t-30 40t-57 27.5t-93.5 10q-63 0 -107 -14.5t-75 -40t-49.5 -62t-28.5 -79.5l-143 59q10 61 46 112.5t91 88t130 56t161 19.5q70 0 129 -12 t102 -41t67.5 -76t24.5 -114q0 -31 -6 -67t-12 -64l-74 -338q-6 -29 -14 -65t-8 -58q0 -20 12 -36.5t53 -16.5q16 0 37 4q8 2 17 4l-23 -123q-14 -4 -42 -9t-62 -5q-68 0 -110 27.5t-42 94.5q-31 -45 -107.5 -86t-181.5 -41q-55 0 -107 16.5t-94 48.5t-67 82t-25 118z M188 258q0 -74 47.5 -108.5t126.5 -34.5q90 0 166 53t101 168l33 158q-23 -12 -50.5 -17.5t-54.5 -9.5l-108 -16q-51 -8 -98.5 -20.5t-83.5 -34t-57.5 -54.5t-21.5 -84zM258 1202q8 23 24.5 58.5t43 69.5t63.5 57.5t88 23.5q37 0 71 -12.5t66 -30.5q29 -16 57.5 -31.5 t57.5 -15.5q35 0 54.5 31.5t29.5 64.5l135 -35q-16 -37 -34.5 -73.5t-44 -66.5t-58.5 -48t-78 -18t-85 16t-75 35q-23 10 -49 26.5t-55 16.5q-16 0 -28.5 -10.5t-21.5 -24.5t-15.5 -31.5t-8.5 -29.5z" />
<glyph unicode="&#xe4;" horiz-adv-x="976" d="M16 240q0 84 28 142t79 97t123.5 62.5t163.5 36.5l198 28q29 4 54.5 12.5t35.5 36.5q8 18 11.5 40t3.5 38q0 25 -8.5 47.5t-30 40t-57 27.5t-93.5 10q-63 0 -107 -14.5t-75 -40t-49.5 -62t-28.5 -79.5l-143 59q10 61 46 112.5t91 88t130 56t161 19.5q70 0 129 -12 t102 -41t67.5 -76t24.5 -114q0 -31 -6 -67t-12 -64l-74 -338q-6 -29 -14 -65t-8 -58q0 -20 12 -36.5t53 -16.5q16 0 37 4q8 2 17 4l-23 -123q-14 -4 -42 -9t-62 -5q-68 0 -110 27.5t-42 94.5q-31 -45 -107.5 -86t-181.5 -41q-55 0 -107 16.5t-94 48.5t-67 82t-25 118z M188 258q0 -74 47.5 -108.5t126.5 -34.5q90 0 166 53t101 168l33 158q-23 -12 -50.5 -17.5t-54.5 -9.5l-108 -16q-51 -8 -98.5 -20.5t-83.5 -34t-57.5 -54.5t-21.5 -84zM317 1155l48 221h174l-47 -221h-175zM686 1155l47 221h174l-47 -221h-174z" />
<glyph unicode="&#xe5;" horiz-adv-x="976" d="M16 240q0 84 28 142t79 97t123.5 62.5t163.5 36.5l198 28q29 4 54.5 12.5t35.5 36.5q8 18 11.5 40t3.5 38q0 25 -8.5 47.5t-30 40t-57 27.5t-93.5 10q-63 0 -107 -14.5t-75 -40t-49.5 -62t-28.5 -79.5l-143 59q10 61 46 112.5t91 88t130 56t161 19.5q70 0 129 -12 t102 -41t67.5 -76t24.5 -114q0 -31 -6 -67t-12 -64l-74 -338q-6 -29 -14 -65t-8 -58q0 -20 12 -36.5t53 -16.5q16 0 37 4q8 2 17 4l-23 -123q-14 -4 -42 -9t-62 -5q-68 0 -110 27.5t-42 94.5q-31 -45 -107.5 -86t-181.5 -41q-55 0 -107 16.5t-94 48.5t-67 82t-25 118z M188 258q0 -74 47.5 -108.5t126.5 -34.5q90 0 166 53t101 168l33 158q-23 -12 -50.5 -17.5t-54.5 -9.5l-108 -16q-51 -8 -98.5 -20.5t-83.5 -34t-57.5 -54.5t-21.5 -84zM393 1290q0 86 58.5 143.5t144.5 57.5t144.5 -57.5t58.5 -143.5t-58.5 -143t-144.5 -57t-144.5 57 t-58.5 143zM514 1290q0 -35 23.5 -57.5t56.5 -22.5t56.5 22.5t23.5 57.5t-23.5 57.5t-56.5 22.5t-56.5 -22.5t-23.5 -57.5z" />
<glyph unicode="&#xe6;" horiz-adv-x="1658" d="M16 240q0 84 28 142t79 97t123.5 62.5t163.5 36.5l198 28q29 4 54.5 12.5t35.5 36.5q8 18 11.5 40t3.5 38q0 25 -8.5 47.5t-30 40t-57 27.5t-93.5 10q-63 0 -107 -14.5t-75 -40t-49.5 -62t-28.5 -79.5l-143 59q10 61 46 112.5t91 88t130 56t161 19.5q104 0 182 -28.5 t115 -96.5q61 57 143 91t187 34q102 0 173.5 -35.5t117.5 -95t66.5 -136.5t20.5 -157q0 -59 -12 -120h-723q-2 -14 -2 -29.5v-28.5q0 -72 21.5 -123t56.5 -84.5t82 -50t98 -16.5q57 0 105.5 15.5t88.5 41t69.5 59t52.5 68.5l118 -84q-23 -35 -59.5 -78t-91.5 -79.5 t-129 -62.5t-172 -26q-127 0 -218 48.5t-141 146.5q-16 -31 -44.5 -64.5t-73.5 -63.5t-107.5 -48.5t-144.5 -18.5q-61 0 -117.5 16.5t-99.5 48.5t-69 82t-26 118zM188 258q0 -74 47.5 -108.5t126.5 -34.5q90 0 166 53t101 168l33 158q-23 -12 -50.5 -17.5t-54.5 -9.5 l-108 -16q-51 -8 -98.5 -20.5t-83.5 -34t-57.5 -54.5t-21.5 -84zM846 584h538q0 276 -229 276q-119 0 -196.5 -77.5t-112.5 -198.5z" />
<glyph unicode="&#xe7;" horiz-adv-x="983" d="M70 379q0 119 33.5 230.5t98 197.5t158 138t213.5 52q143 0 236.5 -71.5t128.5 -186.5l-141 -84q-20 82 -75.5 142.5t-160.5 60.5q-80 0 -141.5 -42t-102.5 -107.5t-62.5 -144.5t-21.5 -152q0 -145 64.5 -220t175.5 -75q53 0 96 16.5t77 42t60.5 59t47.5 70.5l120 -96 q-20 -35 -53 -74t-81 -72.5t-112.5 -57t-144.5 -28.5l-32 -47h6q72 0 121 -36.5t49 -112.5q0 -47 -17.5 -80t-46 -54.5t-64.5 -31.5t-75 -10q-29 0 -57.5 5t-53.5 15l25 78q31 -12 72 -12q39 0 67.5 16.5t28.5 56.5q0 39 -26.5 55.5t-61.5 16.5q-45 0 -76 -18l-41 65l78 99 q-147 20 -228 123.5t-81 273.5z" />
<glyph unicode="&#xe8;" horiz-adv-x="1075" d="M70 397q0 109 32.5 216.5t98 192.5t164 138t227.5 53q102 0 174 -35.5t118 -95t66.5 -136.5t20.5 -157q0 -59 -13 -120h-722q-2 -14 -2.5 -29.5t-0.5 -28.5q0 -72 21.5 -123t56.5 -84.5t82 -50t99 -16.5q57 0 105 15.5t88 41t69.5 59t52.5 68.5l119 -84q-23 -35 -60 -78 t-92 -79.5t-129 -62.5t-172 -26q-186 0 -294.5 109t-108.5 313zM262 584h539q-1 276 -230 276q-119 0 -196.5 -77.5t-112.5 -198.5zM303 1434h250l215 -279h-174z" />
<glyph unicode="&#xe9;" horiz-adv-x="1075" d="M70 397q0 109 32.5 216.5t98 192.5t164 138t227.5 53q102 0 174 -35.5t118 -95t66.5 -136.5t20.5 -157q0 -59 -13 -120h-722q-2 -14 -2.5 -29.5t-0.5 -28.5q0 -72 21.5 -123t56.5 -84.5t82 -50t99 -16.5q57 0 105 15.5t88 41t69.5 59t52.5 68.5l119 -84q-23 -35 -60 -78 t-92 -79.5t-129 -62.5t-172 -26q-186 0 -294.5 109t-108.5 313zM262 584h539q-1 276 -230 276q-119 0 -196.5 -77.5t-112.5 -198.5zM459 1155l215 279h250l-291 -279h-174z" />
<glyph unicode="&#xea;" horiz-adv-x="1075" d="M70 397q0 109 32.5 216.5t98 192.5t164 138t227.5 53q102 0 174 -35.5t118 -95t66.5 -136.5t20.5 -157q0 -59 -13 -120h-722q-2 -14 -2.5 -29.5t-0.5 -28.5q0 -72 21.5 -123t56.5 -84.5t82 -50t99 -16.5q57 0 105 15.5t88 41t69.5 59t52.5 68.5l119 -84q-23 -35 -60 -78 t-92 -79.5t-129 -62.5t-172 -26q-186 0 -294.5 109t-108.5 313zM262 584h539q-1 276 -230 276q-119 0 -196.5 -77.5t-112.5 -198.5zM307 1157l271 277h157l158 -277h-156l-100 148l-160 -148h-170z" />
<glyph unicode="&#xeb;" horiz-adv-x="1075" d="M70 397q0 109 32.5 216.5t98 192.5t164 138t227.5 53q102 0 174 -35.5t118 -95t66.5 -136.5t20.5 -157q0 -59 -13 -120h-722q-2 -14 -2.5 -29.5t-0.5 -28.5q0 -72 21.5 -123t56.5 -84.5t82 -50t99 -16.5q57 0 105 15.5t88 41t69.5 59t52.5 68.5l119 -84q-23 -35 -60 -78 t-92 -79.5t-129 -62.5t-172 -26q-186 0 -294.5 109t-108.5 313zM262 584h539q-1 276 -230 276q-119 0 -196.5 -77.5t-112.5 -198.5zM330 1155l47 221h174l-47 -221h-174zM698 1155l47 221h175l-48 -221h-174z" />
<glyph unicode="&#xec;" horiz-adv-x="464" d="M-10 1434h250l215 -279h-174zM37 0l207 975h170l-207 -975h-170z" />
<glyph unicode="&#xed;" horiz-adv-x="464" d="M37 0l207 975h170l-207 -975h-170zM231 1155l215 279h250l-290 -279h-175z" />
<glyph unicode="&#xee;" horiz-adv-x="464" d="M37 0l207 975h170l-207 -975h-170zM66 1157l270 277h158l157 -277h-155l-101 148l-159 -148h-170z" />
<glyph unicode="&#xef;" horiz-adv-x="464" d="M37 0l207 975h170l-207 -975h-170zM92 1155l47 221h172l-47 -221h-172zM459 1155l47 221h174l-47 -221h-174z" />
<glyph unicode="&#xf0;" horiz-adv-x="1079" d="M70 383q0 113 34.5 223.5t100 197.5t160 140t213.5 53q109 0 178 -46t104 -117q-8 82 -27.5 155.5t-46.5 138.5l-325 -94l-31 123l299 90q-27 47 -52.5 86t-47.5 68l133 74q29 -33 60.5 -78t60.5 -105l237 72l29 -129l-213 -61q33 -86 52.5 -190.5t19.5 -227.5 q0 -141 -29 -280.5t-94.5 -250t-171 -179.5t-256.5 -69q-178 0 -282.5 108t-104.5 298zM238 397q0 -133 61 -205.5t168 -72.5q90 0 155.5 43t108.5 110.5t63.5 149.5t20.5 160q0 131 -61 202.5t-172 71.5q-84 0 -148.5 -42t-107.5 -107.5t-65.5 -147.5t-22.5 -162z" />
<glyph unicode="&#xf1;" horiz-adv-x="1075" d="M35 0l207 975h172l-35 -146q47 74 131 121t182 47q51 0 99.5 -13t85 -42t58 -77t21.5 -115q0 -35 -7 -84.5t-17 -102.5l-119 -563h-168l115 532q10 43 18 87.5t8 85.5q0 61 -31.5 105t-123.5 44q-63 0 -115.5 -28.5t-92.5 -73.5t-65.5 -101.5t-38.5 -109.5l-114 -541 h-170zM354 1202q8 23 24.5 58.5t43.5 69.5t63.5 57.5t87.5 23.5q37 0 71 -12.5t67 -30.5q29 -16 57.5 -31.5t56.5 -15.5q35 0 54.5 31.5t29.5 64.5l135 -35q-16 -37 -34.5 -73.5t-44 -66.5t-58.5 -48t-78 -18t-84.5 16t-74.5 35q-23 10 -49.5 26.5t-55.5 16.5 q-16 0 -28.5 -10.5t-21.5 -24.5t-15 -31.5t-8 -29.5z" />
<glyph unicode="&#xf2;" horiz-adv-x="1075" d="M70 387q0 115 33.5 224.5t99 195.5t165 138t228.5 52q94 0 166 -30.5t121 -87t74.5 -134t25.5 -170.5q0 -109 -32.5 -216t-97.5 -192t-163 -138.5t-229 -53.5q-180 0 -285.5 111t-105.5 301zM236 399q0 -135 66.5 -208.5t176.5 -73.5q86 0 150.5 42t105.5 108.5 t61.5 148.5t20.5 162q0 135 -63.5 207.5t-178.5 72.5q-86 0 -149.5 -42t-105 -108.5t-63 -148.5t-21.5 -160zM268 1434h250l215 -279h-174z" />
<glyph unicode="&#xf3;" horiz-adv-x="1075" d="M70 387q0 115 33.5 224.5t99 195.5t165 138t228.5 52q94 0 166 -30.5t121 -87t74.5 -134t25.5 -170.5q0 -109 -32.5 -216t-97.5 -192t-163 -138.5t-229 -53.5q-180 0 -285.5 111t-105.5 301zM236 399q0 -135 66.5 -208.5t176.5 -73.5q86 0 150.5 42t105.5 108.5 t61.5 148.5t20.5 162q0 135 -63.5 207.5t-178.5 72.5q-86 0 -149.5 -42t-105 -108.5t-63 -148.5t-21.5 -160zM469 1155l215 279h250l-291 -279h-174z" />
<glyph unicode="&#xf4;" horiz-adv-x="1075" d="M70 387q0 115 33.5 224.5t99 195.5t165 138t228.5 52q94 0 166 -30.5t121 -87t74.5 -134t25.5 -170.5q0 -109 -32.5 -216t-97.5 -192t-163 -138.5t-229 -53.5q-180 0 -285.5 111t-105.5 301zM236 399q0 -135 66.5 -208.5t176.5 -73.5q86 0 150.5 42t105.5 108.5 t61.5 148.5t20.5 162q0 135 -63.5 207.5t-178.5 72.5q-86 0 -149.5 -42t-105 -108.5t-63 -148.5t-21.5 -160zM342 1157l270 277h158l158 -277h-156l-100 148l-160 -148h-170z" />
<glyph unicode="&#xf5;" horiz-adv-x="1075" d="M70 387q0 115 33.5 224.5t99 195.5t165 138t228.5 52q94 0 166 -30.5t121 -87t74.5 -134t25.5 -170.5q0 -109 -32.5 -216t-97.5 -192t-163 -138.5t-229 -53.5q-180 0 -285.5 111t-105.5 301zM236 399q0 -135 66.5 -208.5t176.5 -73.5q86 0 150.5 42t105.5 108.5 t61.5 148.5t20.5 162q0 135 -63.5 207.5t-178.5 72.5q-86 0 -149.5 -42t-105 -108.5t-63 -148.5t-21.5 -160zM317 1202q8 23 24.5 58.5t43.5 69.5t63.5 57.5t88.5 23.5q37 0 70.5 -12.5t66.5 -30.5q29 -16 57.5 -31.5t56.5 -15.5q35 0 54.5 31.5t29.5 64.5l136 -35 q-16 -37 -35 -73.5t-44.5 -66.5t-58 -48t-77.5 -18t-85 16t-75 35q-23 10 -49.5 26.5t-55.5 16.5q-16 0 -28.5 -10.5t-21.5 -24.5t-15 -31.5t-8 -29.5z" />
<glyph unicode="&#xf6;" horiz-adv-x="1075" d="M70 387q0 115 33.5 224.5t99 195.5t165 138t228.5 52q94 0 166 -30.5t121 -87t74.5 -134t25.5 -170.5q0 -109 -32.5 -216t-97.5 -192t-163 -138.5t-229 -53.5q-180 0 -285.5 111t-105.5 301zM236 399q0 -135 66.5 -208.5t176.5 -73.5q86 0 150.5 42t105.5 108.5 t61.5 148.5t20.5 162q0 135 -63.5 207.5t-178.5 72.5q-86 0 -149.5 -42t-105 -108.5t-63 -148.5t-21.5 -160zM344 1155l47 221h174l-47 -221h-174zM713 1155l47 221h174l-47 -221h-174z" />
<glyph unicode="&#xf7;" horiz-adv-x="1583" d="M102 410v155h1379v-155h-1379zM694 0v223h195v-223h-195zM694 752v223h195v-223h-195z" />
<glyph unicode="&#xf8;" horiz-adv-x="1101" d="M-2 119l129 110q-23 74 -23 158q0 115 34 224.5t99.5 195.5t165 138t228.5 52q88 0 156.5 -27.5t117.5 -78.5l99 84l104 -113l-121 -102q31 -84 31 -185q0 -109 -33 -216t-97.5 -192t-162.5 -138.5t-229 -53.5q-184 0 -289 115l-109 -92zM270 399q0 -12 1 -23t1 -24 l512 436q-63 70 -174 70q-86 0 -149.5 -42t-105.5 -108.5t-63.5 -148.5t-21.5 -160zM330 197q63 -80 184 -80q86 0 150.5 42t105.5 108.5t61.5 148.5t20.5 162q0 16 -1 31.5t-3 29.5z" />
<glyph unicode="&#xf9;" horiz-adv-x="1048" d="M82 246q0 70 22 178l117 551h168l-113 -526q-10 -43 -18 -87.5t-8 -85.5q0 -61 30.5 -105t120.5 -44q61 0 112.5 27.5t89.5 71.5t63.5 99.5t38.5 108.5l114 541h170l-207 -975h-172l35 145q-47 -74 -121.5 -121t-179.5 -47q-53 0 -100 16.5t-83 49.5t-57.5 83t-21.5 120z M334 1434h250l215 -279h-174z" />
<glyph unicode="&#xfa;" horiz-adv-x="1048" d="M82 246q0 70 22 178l117 551h168l-113 -526q-10 -43 -18 -87.5t-8 -85.5q0 -61 30.5 -105t120.5 -44q61 0 112.5 27.5t89.5 71.5t63.5 99.5t38.5 108.5l114 541h170l-207 -975h-172l35 145q-47 -74 -121.5 -121t-179.5 -47q-53 0 -100 16.5t-83 49.5t-57.5 83t-21.5 120z M504 1155l215 279h250l-291 -279h-174z" />
<glyph unicode="&#xfb;" horiz-adv-x="1048" d="M82 246q0 70 22 178l117 551h168l-113 -526q-10 -43 -18 -87.5t-8 -85.5q0 -61 30.5 -105t120.5 -44q61 0 112.5 27.5t89.5 71.5t63.5 99.5t38.5 108.5l114 541h170l-207 -975h-172l35 145q-47 -74 -121.5 -121t-179.5 -47q-53 0 -100 16.5t-83 49.5t-57.5 83t-21.5 120z M342 1157l270 277h158l158 -277h-156l-100 148l-160 -148h-170z" />
<glyph unicode="&#xfc;" horiz-adv-x="1048" d="M82 246q0 70 22 178l117 551h168l-113 -526q-10 -43 -18 -87.5t-8 -85.5q0 -61 30.5 -105t120.5 -44q61 0 112.5 27.5t89.5 71.5t63.5 99.5t38.5 108.5l114 541h170l-207 -975h-172l35 145q-47 -74 -121.5 -121t-179.5 -47q-53 0 -100 16.5t-83 49.5t-57.5 83t-21.5 120z M365 1155l47 221h174l-47 -221h-174zM733 1155l47 221h174l-47 -221h-174z" />
<glyph unicode="&#xfd;" horiz-adv-x="866" d="M-174 -408l31 140q20 -10 50 -16.5t58 -6.5q37 0 62.5 10.5t48.5 30.5q20 20 37.5 48t38.5 63l86 147l-140 967h178l72 -576q4 -33 7 -63.5t5 -54.5q2 -29 5 -56h2l30 62q14 27 31.5 59.5t36.5 65.5l319 563h185l-690 -1184q-29 -51 -53.5 -88t-51.5 -63 q-72 -74 -217 -74q-45 0 -81 9t-50 17zM416 1155l215 279h250l-291 -279h-174z" />
<glyph unicode="&#xfe;" horiz-adv-x="1120" d="M-41 -434l401 1868h168l-129 -588q43 63 118 107t173 44q68 0 131.5 -24.5t111.5 -73.5t76.5 -124t28.5 -175q0 -121 -34.5 -233.5t-99 -198.5t-157 -138.5t-206.5 -52.5q-119 0 -188.5 51.5t-98.5 121.5l-125 -584h-170zM309 387q0 -121 53.5 -194.5t169.5 -73.5 q80 0 142.5 43t105.5 110.5t65.5 148.5t22.5 157q0 123 -54 199.5t-173 76.5q-84 0 -146.5 -45t-103.5 -113.5t-61.5 -151.5t-20.5 -157z" />
<glyph unicode="&#xff;" horiz-adv-x="866" d="M-174 -408l31 140q20 -10 50 -16.5t58 -6.5q37 0 62.5 10.5t48.5 30.5q20 20 37.5 48t38.5 63l86 147l-140 967h178l72 -576q4 -33 7 -63.5t5 -54.5q2 -29 5 -56h2l30 62q14 27 31.5 59.5t36.5 65.5l319 563h185l-690 -1184q-29 -51 -53.5 -88t-51.5 -63 q-72 -74 -217 -74q-45 0 -81 9t-50 17zM297 1155l47 221h174l-47 -221h-174zM666 1155l47 221h174l-47 -221h-174z" />
<glyph unicode="&#x152;" horiz-adv-x="1851" d="M96 590q0 166 48.5 321.5t140.5 277.5t224 195.5t302 73.5q78 0 140.5 -16.5t109.5 -40.5l8 33h881l-35 -166h-701l-94 -445h629l-37 -166h-629l-102 -489h741l-36 -168h-922l4 25q-35 -12 -77 -19.5t-95 -7.5q-102 0 -192.5 35t-159 106.5t-108.5 184t-40 266.5z M272 598q0 -213 92.5 -329.5t278.5 -116.5q51 0 90 8t68 18l227 1059q-41 29 -99.5 48.5t-129.5 19.5q-129 0 -227.5 -67t-165 -169t-100.5 -227t-34 -244z" />
<glyph unicode="&#x153;" horiz-adv-x="1804" d="M70 387q0 115 33.5 224.5t99 195.5t165 138t228.5 52q123 0 206 -50t130 -140q66 86 163 138t226 52q102 0 174 -35.5t118 -95t66.5 -136.5t20.5 -157q0 -59 -12 -120h-723q-2 -14 -2 -29.5v-28.5q0 -72 21.5 -123t56 -84.5t81.5 -50t99 -16.5q57 0 105 15.5t88 41 t69.5 59t52.5 68.5l119 -84q-23 -35 -59.5 -78t-92 -79.5t-129.5 -62.5t-172 -26q-123 0 -213 47.5t-139 139.5q-66 -84 -163 -135.5t-226 -51.5q-180 0 -285.5 111t-105.5 301zM236 399q0 -135 66.5 -208.5t176.5 -73.5q86 0 150.5 42t105.5 108.5t61.5 148.5t20.5 162 q0 135 -63.5 207.5t-178.5 72.5q-86 0 -149.5 -42t-105 -108.5t-63 -148.5t-21.5 -160zM991 584h539q-1 276 -230 276q-119 0 -196.5 -77.5t-112.5 -198.5z" />
<glyph unicode="&#x178;" horiz-adv-x="1130" d="M133 1434h184l269 -676l567 676h213l-717 -844l-125 -590h-180l125 590zM485 1563l47 221h175l-48 -221h-174zM854 1563l47 221h174l-47 -221h-174z" />
<glyph unicode="&#x2c6;" horiz-adv-x="1038" d="M315 1157l271 277h157l158 -277h-156l-100 148l-160 -148h-170z" />
<glyph unicode="&#x2dc;" horiz-adv-x="1099" d="M367 1202q8 23 24.5 58.5t43 69.5t63.5 57.5t88 23.5q37 0 70.5 -12.5t66.5 -30.5q29 -16 57.5 -31.5t57.5 -15.5q35 0 54 31.5t30 64.5l135 -35q-16 -37 -34.5 -73.5t-44.5 -66.5t-58.5 -48t-77.5 -18t-85 16t-75 35q-23 10 -49.5 26.5t-54.5 16.5q-16 0 -28.5 -10.5 t-22 -24.5t-15.5 -31.5t-8 -29.5z" />
<glyph unicode="&#x2000;" horiz-adv-x="959" />
<glyph unicode="&#x2001;" horiz-adv-x="1919" />
<glyph unicode="&#x2002;" horiz-adv-x="959" />
<glyph unicode="&#x2003;" horiz-adv-x="1919" />
<glyph unicode="&#x2004;" horiz-adv-x="639" />
<glyph unicode="&#x2005;" horiz-adv-x="479" />
<glyph unicode="&#x2006;" horiz-adv-x="319" />
<glyph unicode="&#x2007;" horiz-adv-x="319" />
<glyph unicode="&#x2008;" horiz-adv-x="239" />
<glyph unicode="&#x2009;" horiz-adv-x="383" />
<glyph unicode="&#x200a;" horiz-adv-x="106" />
<glyph unicode="&#x2010;" horiz-adv-x="692" d="M61 467l39 178h529l-39 -178h-529z" />
<glyph unicode="&#x2011;" horiz-adv-x="692" d="M61 467l39 178h529l-39 -178h-529z" />
<glyph unicode="&#x2012;" horiz-adv-x="692" d="M61 467l39 178h529l-39 -178h-529z" />
<glyph unicode="&#x2013;" horiz-adv-x="1284" d="M104 479l35 156h1039l-35 -156h-1039z" />
<glyph unicode="&#x2014;" horiz-adv-x="1677" d="M104 479l35 156h1432l-35 -156h-1432z" />
<glyph unicode="&#x2018;" horiz-adv-x="372" d="M176 899l33 154q14 68 28.5 127t38.5 108q31 59 79 98t128 46l-20 -95q-61 -10 -89 -61t-48 -141h94l-49 -236h-195z" />
<glyph unicode="&#x2019;" horiz-adv-x="372" d="M158 901l20 94q61 10 89 61.5t48 141.5h-94l49 236h195l-33 -154q-14 -68 -28.5 -127t-38.5 -109q-31 -59 -79 -98t-128 -45z" />
<glyph unicode="&#x201a;" horiz-adv-x="755" d="M-10 -297l20 94q61 10 89 61.5t48 141.5h-94l49 236h195l-33 -154q-14 -68 -28.5 -127t-38.5 -109q-31 -59 -79 -98t-128 -45zM285 -297l20 94q61 10 89 61.5t48 141.5h-94l49 236h195l-33 -154q-14 -68 -28.5 -127t-38.5 -109q-31 -59 -79 -98t-128 -45z" />
<glyph unicode="&#x201c;" horiz-adv-x="667" d="M176 899l33 154q14 68 28.5 127t38.5 108q31 59 79 98t128 46l-20 -95q-61 -10 -89 -61t-48 -141h94l-49 -236h-195zM471 899l33 154q14 68 28.5 127t38.5 108q31 59 79 98t128 46l-20 -95q-61 -10 -89 -61t-48 -141h94l-49 -236h-195z" />
<glyph unicode="&#x201d;" horiz-adv-x="667" d="M158 901l20 94q61 10 89 61.5t48 141.5h-94l49 236h195l-33 -154q-14 -68 -28.5 -127t-38.5 -109q-31 -59 -79 -98t-128 -45zM453 901l20 94q61 10 89 61.5t48 141.5h-94l49 236h195l-33 -154q-14 -68 -28.5 -127t-39.5 -109q-31 -59 -79 -98t-127 -45z" />
<glyph unicode="&#x201e;" horiz-adv-x="460" d="M-10 -297l20 94q61 10 89 61.5t48 141.5h-94l49 236h195l-33 -154q-14 -68 -28.5 -127t-38.5 -109q-31 -59 -79 -98t-128 -45z" />
<glyph unicode="&#x2022;" horiz-adv-x="737" d="M82 702q0 59 22.5 111.5t61.5 91.5t91 61.5t112 22.5q59 0 111 -22.5t91 -61.5t61.5 -91t22.5 -112q0 -59 -22.5 -111t-61.5 -91t-91 -61.5t-111 -22.5t-111.5 22.5t-91.5 61.5t-61.5 91t-22.5 111z" />
<glyph unicode="&#x2026;" horiz-adv-x="1812" d="M41 0l51 233h195l-51 -233h-195zM727 0l51 233h195l-51 -233h-195zM1413 0l51 233h195l-51 -233h-195z" />
<glyph unicode="&#x202f;" horiz-adv-x="383" />
<glyph unicode="&#x2039;" horiz-adv-x="497" d="M78 547l33 160l374 284l-47 -217l-221 -153l148 -193l-46 -213z" />
<glyph unicode="&#x203a;" horiz-adv-x="497" d="M12 215l49 227l222 156l-148 190l43 203l242 -332l-33 -159z" />
<glyph unicode="&#x205f;" horiz-adv-x="479" />
<glyph unicode="&#x20ac;" d="M8 502l74 151h123q6 61 18 123h-157l75 152h121q37 111 92.5 207t131 168.5t169 113.5t203.5 41q61 0 129 -17.5t129.5 -62.5t109.5 -119.5t68 -189.5l-170 -63q-18 135 -86.5 217t-189.5 82q-76 0 -138.5 -30t-113.5 -81t-90 -119.5t-66 -146.5h510l-76 -152h-475 q-12 -61 -18 -123h510l-76 -151h-440q4 -102 28.5 -173t63.5 -115t89 -63.5t108 -19.5q115 0 203.5 75t148.5 193l143 -77q-41 -76 -94 -138.5t-115.5 -108.5t-137.5 -72t-159 -26q-113 0 -196.5 37t-140 105.5t-86 166t-31.5 216.5h-191z" />
<glyph unicode="&#x2122;" horiz-adv-x="1761" d="M20 1290v144h695v-144h-273v-770h-149v770h-273zM801 518h145v643q8 -29 17 -59q8 -27 18 -58.5t20 -62.5l160 -463h121l150 465q10 37 21 72t20 63q8 33 16 64v-664h145v916h-194q-25 -78 -50.5 -154t-46.5 -139q-23 -74 -45 -142q-16 -53 -30.5 -101t-24.5 -85 q-12 -43 -20 -82q-10 39 -23 82q-10 37 -24.5 85t-32.5 101l-152 435h-190v-916z" />
<glyph unicode="&#x25fc;" horiz-adv-x="1024" d="M0 0z" />
<glyph unicode="&#xfb01;" horiz-adv-x="1050" d="M39 846l29 129h221l55 258q14 61 32.5 98t47.5 62q35 33 85 47t99 14q47 0 92 -6t74 -16l-33 -144q-29 8 -54 12.5t-54 4.5q-59 0 -90 -31q-16 -16 -25.5 -39t-19.5 -68l-43 -192h221l-27 -129h-221l-178 -846h-168l178 846h-221zM623 0l206 975h170l-206 -975h-170z M874 1186l46 217h170l-46 -217h-170z" />
<glyph unicode="&#xfb02;" horiz-adv-x="1064" d="M39 846l29 129h221l55 258q14 61 32.5 98t47.5 62q35 33 85 47t99 14q47 0 92 -6t74 -16l-33 -144q-29 8 -54 12.5t-54 4.5q-59 0 -90 -31q-16 -16 -25.5 -39t-19.5 -68l-43 -192h221l-27 -129h-221l-178 -846h-168l178 846h-221zM633 0l303 1434h170l-305 -1434h-168z " />
</font>
</defs>
</svg>
