<?xml version="1.0" standalone="no"?>
<!DOCTYPE svg PUBLIC "-//W3C//DTD SVG 1.1//EN" "http://www.w3.org/Graphics/SVG/1.1/DTD/svg11.dtd" >
<svg xmlns="http://www.w3.org/2000/svg">
<metadata></metadata>
<defs>
<font id="theinhardtbold" horiz-adv-x="1208" >
<font-face units-per-em="2048" ascent="1638" descent="-410" />
<missing-glyph horiz-adv-x="563" />
<glyph horiz-adv-x="0" />
<glyph unicode="&#xd;" horiz-adv-x="0" />
<glyph horiz-adv-x="0" />
<glyph horiz-adv-x="0" />
<glyph unicode=" "  horiz-adv-x="563" />
<glyph unicode="&#x09;" horiz-adv-x="563" />
<glyph unicode="&#xa0;" horiz-adv-x="563" />
<glyph unicode="!" horiz-adv-x="575" d="M139 0v324h299v-324h-299zM141 836v598h295v-598l-24 -400h-242z" />
<glyph unicode="&#x22;" horiz-adv-x="894" d="M90 1237v197h303v-197l-59 -449h-191zM502 1237v197h303v-197l-60 -449h-190z" />
<glyph unicode="#" d="M-45 322v270h266l31 190h-240v271h283l61 381h271l-62 -381h180l62 381h270l-61 -381h221v-271h-264l-31 -190h238v-270h-281l-51 -322h-273l52 322h-178l-52 -322h-272l51 322h-221zM492 592h180l30 190h-180z" />
<glyph unicode="$" d="M-27 315l238 179q47 -84 109.5 -142.5t154.5 -83.5v332q-92 16 -172 45t-140.5 77t-94 118.5t-33.5 173.5q0 82 30.5 151.5t88 123.5t139.5 90t182 48v179h273v-187q123 -23 220 -77t165 -132l-205 -192q-84 96 -180 135v-303l24 -4q98 -16 176 -44t132.5 -72t83 -109.5 t28.5 -157.5q0 -98 -34 -175t-93 -133.5t-141 -93t-176 -51.5v-192h-273v186q-176 23 -300 106t-202 205zM350 1040q0 -55 31 -86.5t94 -48.5v264q-55 -10 -90 -46t-35 -83zM748 270q66 16 100.5 60.5t34.5 91.5q0 55 -38 85t-97 44v-281z" />
<glyph unicode="%" horiz-adv-x="1925" d="M39 958q0 88 17.5 177.5t59.5 161t112.5 116.5t174.5 45q111 0 180.5 -47t109.5 -120.5t54.5 -162t14.5 -170.5q0 -92 -21.5 -177t-65.5 -150.5t-112.5 -104.5t-163.5 -39q-98 0 -166.5 40t-111.5 106.5t-62.5 150.5t-19.5 174zM283 971q0 -53 6 -99.5t20.5 -82t37 -56 t54.5 -20.5q35 0 58.5 19.5t39 52t21.5 76.5t6 95q0 123 -30.5 199t-94.5 76q-31 0 -53 -20.5t-36.5 -56.5t-21.5 -83t-7 -100zM459 0l745 1434h260l-741 -1434h-264zM1171 453q0 88 17.5 176t59.5 158.5t112 114.5t174 44q111 0 181.5 -47t110.5 -118.5t54 -158.5t14 -169 q0 -92 -21.5 -179.5t-65.5 -153t-112.5 -105.5t-162.5 -40q-98 0 -167 41t-112 107.5t-62.5 152.5t-19.5 177zM1413 463q0 -53 6 -99.5t20.5 -82t37 -56t55.5 -20.5q35 0 59.5 19.5t39 53t20.5 78t6 95.5q0 121 -30 196.5t-95 75.5q-31 0 -52.5 -20.5t-37 -55.5t-22.5 -82 t-7 -102z" />
<glyph unicode="&#x26;" horiz-adv-x="1343" d="M51 406q0 74 23.5 134t63.5 110t93.5 91t112.5 74q-43 55 -84 128t-41 181q0 61 25.5 122t74 107t118 74.5t157.5 28.5q92 0 162.5 -27.5t117 -73.5t70 -106.5t23.5 -124.5q0 -104 -58.5 -193t-171.5 -165l74 -86q14 -16 27.5 -31.5t23.5 -27.5q12 -14 23 -29 q10 39 20 86t19 100l245 -55q-16 -100 -39.5 -193.5t-54.5 -167.5l320 -362h-365l-119 137q-80 -82 -180 -121t-213 -39q-102 0 -188 29t-147.5 83t-96.5 134t-35 183zM330 414q0 -90 62.5 -133t148.5 -43q59 0 117.5 22.5t91.5 67.5l-250 305q-72 -41 -121 -92.5 t-49 -126.5zM494 1126q0 -41 21.5 -83t68.5 -95q53 35 81.5 83t28.5 93q0 47 -29.5 73t-70.5 26q-45 0 -72.5 -27t-27.5 -70z" />
<glyph unicode="'" horiz-adv-x="483" d="M90 1237v197h303v-197l-59 -449h-191z" />
<glyph unicode="(" horiz-adv-x="763" d="M164 524q0 236 68.5 462t207.5 460l269 -25q-123 -217 -187.5 -435t-64.5 -437q0 -211 61.5 -430t181.5 -447l-258 -45q-279 438 -278 897z" />
<glyph unicode=")" horiz-adv-x="763" d="M55 1421l269 25q139 -233 207.5 -459.5t68.5 -462.5q0 -459 -278 -897l-259 45q121 227 182.5 446.5t61.5 430.5q0 219 -64.5 437t-187.5 435z" />
<glyph unicode="*" horiz-adv-x="954" d="M41 1020l76 221l250 -92l-7 285h234l-6 -285l250 92l75 -221l-254 -80l175 -205l-193 -147l-164 219l-164 -219l-192 147l174 205z" />
<glyph unicode="+" horiz-adv-x="1583" d="M184 467v283h465v475h285v-475h463v-283h-463v-467h-285v467h-465z" />
<glyph unicode="," horiz-adv-x="591" d="M133 0v362h326v-221q0 -88 -5 -144t-18 -99q-31 -102 -98.5 -152.5t-204.5 -54.5v157q72 4 110 39t38 113h-148z" />
<glyph unicode="-" horiz-adv-x="745" d="M82 461v282h582v-282h-582z" />
<glyph unicode="." horiz-adv-x="591" d="M133 0v365h326v-365h-326z" />
<glyph unicode="/" horiz-adv-x="1046" d="M-41 0l758 1434h311l-756 -1434h-313z" />
<glyph unicode="0" d="M66 707q0 63 4 128.5t16 131.5q18 94 56 182t99.5 156.5t150.5 109.5t212 41q125 0 214 -41t150.5 -108.5t97.5 -156.5t54 -183v2q14 -66 18.5 -131t4.5 -131q0 -86 -12.5 -179.5t-34.5 -177.5q-23 -78 -62 -146.5t-98 -119.5t-141 -80t-191 -29q-106 0 -187 30 t-140.5 81t-98.5 120.5t-63 147.5q-27 84 -38 175.5t-11 177.5zM383 707q0 -76 6 -156t29.5 -146.5t67.5 -108.5t118 -42q76 0 120 42t66.5 108.5t28.5 146.5t6 156q0 78 -7 160.5t-29.5 152.5t-66.5 114t-118 44t-118 -44t-66.5 -114t-29.5 -153t-7 -160z" />
<glyph unicode="1" d="M174 893v244h70q84 0 140 15t97 44q100 74 107 238h274v-1434h-303v893h-385z" />
<glyph unicode="2" d="M80 0v215q100 70 218 166t222 194q70 66 125 125.5t84 106.5q25 41 40 87t15 99q0 96 -53 149.5t-145 53.5q-55 0 -93 -18.5t-61.5 -50t-35 -72.5t-11.5 -86t9 -89t26 -85l-301 47q-18 45 -26.5 89t-8.5 85q0 92 38 173t106.5 141.5t164.5 94t213 33.5q115 0 206 -31.5 t155.5 -90t99.5 -141.5t35 -185q0 -100 -32 -182.5t-83 -153t-116.5 -132t-135.5 -118.5q-55 -45 -111.5 -85t-113.5 -79h592v-260h-1022z" />
<glyph unicode="3" d="M49 426l279 84q6 -61 21.5 -112.5t45 -88.5t74.5 -57.5t109 -20.5q61 0 103 17.5t68.5 47.5t38 65.5t11.5 72.5q0 68 -36 118t-118 66q-23 4 -50.5 7.5t-66.5 3.5h-133v237h121q84 0 127 13q66 18 96.5 62t30.5 108q0 78 -55.5 118.5t-136.5 40.5q-100 0 -161 -58 t-69 -181l-264 82q4 84 39 157.5t99.5 129t155.5 87t208 31.5q121 0 211 -27.5t150.5 -78t91 -118t30.5 -147.5q0 -66 -17.5 -116.5t-47 -88.5t-65.5 -66t-73 -46q43 -18 87 -44t79 -67t57.5 -99t22.5 -140q0 -92 -32.5 -172t-99.5 -139.5t-167 -94.5t-235 -35 q-252 0 -384.5 120t-144.5 329z" />
<glyph unicode="4" d="M43 324v221l637 893h276v-865h209v-249h-209v-324h-268v324h-645zM354 573h334v238v85t2 83q2 45 4 88q-10 -16 -22 -39q-10 -18 -26.5 -41.5t-33.5 -48.5l-155 -219q-16 -23 -33.5 -47.5t-34.5 -46.5q-18 -25 -35 -52z" />
<glyph unicode="5" d="M78 346l280 96q4 -39 19.5 -76.5t42 -67.5t66.5 -48.5t94 -18.5q111 0 165 71t54 190q0 125 -64.5 187t-156.5 62t-143.5 -53t-67.5 -127l-256 98l102 775h838l-23 -260h-586l-45 -265q53 39 114.5 58.5t143.5 19.5q98 0 181.5 -33.5t143.5 -97t94 -152t34 -198.5 q0 -119 -34 -216t-100.5 -167t-163.5 -109t-224 -39q-125 0 -214 33t-150.5 85t-95.5 119t-48 134z" />
<glyph unicode="6" d="M84 696q0 178 37 319.5t108.5 240t174 150.5t235.5 52q129 0 215 -36t140.5 -92t82 -122.5t37.5 -128.5l-266 -80q-6 35 -20.5 72t-39 66.5t-61.5 48t-88 18.5q-63 0 -110.5 -28.5t-78 -76.5t-46 -113.5t-15.5 -139.5q59 55 136 82.5t161 27.5q92 0 174 -30.5t143.5 -91 t97.5 -147.5t36 -198q0 -115 -36 -210t-103.5 -162.5t-162 -104.5t-210.5 -37q-274 0 -407.5 174.5t-133.5 546.5zM391 588q-4 -55 4 -118.5t35 -117t74 -89.5t121 -36q102 0 159.5 63.5t57.5 180.5q0 61 -18.5 106.5t-48.5 73t-68.5 41t-79.5 13.5q-66 0 -132.5 -32 t-103.5 -85z" />
<glyph unicode="7" d="M84 967v469h1077v-246q-63 -76 -110 -147.5t-95 -155.5q-115 -203 -182 -426t-90 -461h-328q12 133 44 255t73 239q63 180 151.5 351t206.5 329h-448v-207h-299z" />
<glyph unicode="8" d="M68 401q0 127 67.5 212t167.5 126q-84 45 -140.5 120t-56.5 202q0 88 34 161.5t98.5 126t156.5 81t209 28.5t209 -28.5t156.5 -81t98.5 -126t34 -161.5q0 -127 -56.5 -202t-140.5 -120q100 -41 168 -126t68 -212q0 -186 -119 -295q-141 -131 -418 -131q-276 0 -418 131 q-119 109 -118 295zM373 424q0 -86 60 -138.5t171 -52.5t171.5 52.5t60.5 138.5q0 80 -57.5 136t-174.5 56t-174 -56t-57 -136zM395 1028q0 -31 11.5 -62.5t36 -58t64.5 -43t97 -16.5t97 16.5t65 43t36 58t11 62.5q0 33 -11 65.5t-36 59.5t-64.5 43t-97.5 16q-57 0 -97 -16 t-64.5 -43t-36 -59.5t-11.5 -65.5z" />
<glyph unicode="9" d="M68 944q0 115 35.5 210t103 162.5t162 104.5t211.5 37q274 0 407 -175t133 -546q0 -178 -36.5 -319.5t-108.5 -239.5t-175.5 -150.5t-234.5 -52.5q-129 0 -215 36t-140 92.5t-82 123t-38 127.5l266 80q6 -35 20.5 -70.5t39 -64.5t60.5 -47.5t89 -18.5q63 0 110.5 28 t78 76t46 112.5t15.5 138.5q-59 -55 -136 -83t-161 -28q-92 0 -174 31t-143.5 91t-97 147.5t-35.5 197.5zM362 965q0 -61 18.5 -106.5t48.5 -73t69 -41t80 -13.5q66 0 132 32t103 85q4 55 -4 118.5t-34.5 117t-74 89t-120.5 35.5q-102 0 -160 -63t-58 -180z" />
<glyph unicode=":" horiz-adv-x="591" d="M133 0v365h326v-365h-326zM133 610v365h326v-365h-326z" />
<glyph unicode=";" horiz-adv-x="591" d="M133 0v362h326v-221q0 -88 -5 -144t-18 -99q-31 -102 -98.5 -152.5t-204.5 -54.5v157q72 4 110 39t38 113h-148zM133 610v365h326v-365h-326z" />
<glyph unicode="&#x3c;" horiz-adv-x="1583" d="M90 575v230l1391 625v-300l-1000 -436l1000 -448v-299z" />
<glyph unicode="=" horiz-adv-x="1583" d="M102 262v258h1381v-258h-1381zM102 680v258h1381v-258h-1381z" />
<glyph unicode="&#x3e;" horiz-adv-x="1583" d="M102 -53v299l1000 448l-1000 436v300l1391 -625v-230z" />
<glyph unicode="?" horiz-adv-x="1028" d="M35 1032q0 82 28.5 159t88 136t147.5 95t209 36q131 0 223 -36t150.5 -95t84 -136t25.5 -159q0 -98 -43 -194.5t-141 -173.5l-98 -78q-31 -25 -49.5 -42.5t-30 -36t-15.5 -38.5t-4 -47v-41h-276v53q0 51 6 93t22.5 81t48 76t83.5 80l79 67q104 90 105 201q0 82 -45 125 t-125 43q-92 0 -132 -58.5t-40 -133.5q0 -43 11 -85t30 -77l-320 43q-23 74 -22 143zM317 0v303h314v-303h-314z" />
<glyph unicode="@" horiz-adv-x="1787" d="M90 610q0 156 55.5 307.5t163 271.5t268 192.5t371.5 72.5q201 0 342.5 -64.5t230.5 -167t130 -231.5t41 -260q0 -125 -27 -231.5t-80 -183t-131 -120.5t-180 -44q-86 0 -144.5 20.5t-74.5 63.5q-23 -29 -85.5 -57.5t-174.5 -28.5q-68 0 -128.5 18t-104.5 56t-70.5 93.5 t-26.5 128.5q0 80 32.5 130.5t85 81t118 48t128.5 29.5l142 27q41 8 50 17t9 38q0 18 -3 33.5t-15.5 28t-38 19.5t-70.5 7q-80 0 -114.5 -31.5t-34.5 -99.5l-256 39q0 145 111.5 222t303.5 77q70 0 131.5 -8t110.5 -28.5t83 -55.5t50 -86q8 -29 12.5 -66t4.5 -88v-399 q0 -39 26 -39q29 0 54.5 30.5t45 82t31 117t11.5 137.5q0 98 -29 195t-92.5 173t-161.5 123t-240 47q-154 0 -270.5 -54t-196.5 -143t-119.5 -203t-39.5 -233q0 -156 51 -277.5t137 -205.5t201.5 -128t244.5 -44q145 0 280.5 50t258.5 169l100 -170q-41 -39 -102 -83 t-144 -81t-185.5 -60.5t-223.5 -23.5q-178 0 -333.5 53.5t-271.5 160t-181.5 266t-65.5 370.5zM750 451q0 -49 32.5 -79t91.5 -30q66 0 111 33t45 104v121q-12 -8 -36.5 -16.5t-90.5 -22.5q-45 -10 -74.5 -19.5t-47 -21.5t-24.5 -28.5t-7 -40.5z" />
<glyph unicode="A" horiz-adv-x="1325" d="M-2 0l481 1434h371l477 -1434h-332l-86 285h-501l-84 -285h-326zM483 543h346l-118 407q-10 35 -19.5 68t-15.5 59q-8 31 -14 60h-3q-8 -29 -16 -60q-8 -27 -17.5 -60.5t-19.5 -68.5z" />
<glyph unicode="B" horiz-adv-x="1361" d="M141 0v1434h604q66 0 114 -3.5t85 -10.5t65.5 -17t55.5 -25q86 -47 135 -124.5t49 -190.5q0 -61 -18.5 -111.5t-49 -88.5t-70.5 -63.5t-85 -39.5v-2q55 -16 105.5 -46t87 -73t58 -101.5t21.5 -134.5q0 -121 -51 -205.5t-143 -136.5q-27 -14 -55.5 -25t-65.5 -19.5 t-88 -12.5t-121 -4h-633zM446 266h267q84 0 129 5t76 26q31 20 49 59t18 93q0 59 -28.5 100t-75.5 57q-29 10 -68 13.5t-100 3.5h-267v-357zM446 860h259q82 0 122.5 6t69.5 33q45 41 45 121q0 41 -15.5 71.5t-39.5 47.5q-29 18 -69 24t-111 6h-261v-309z" />
<glyph unicode="C" horiz-adv-x="1380" d="M78 717q0 166 48 302t137 233.5t215 151.5t282 54q199 0 338 -83t225 -226l-229 -168q-45 106 -128 163.5t-200 57.5q-180 0 -277.5 -130t-97.5 -355t95.5 -352t279.5 -127q115 0 195.5 51t125.5 149l259 -125q-82 -158 -225.5 -248t-360.5 -90q-160 0 -287 54.5 t-215 153t-134 234.5t-46 300z" />
<glyph unicode="D" horiz-adv-x="1441" d="M141 0v1434h430q86 0 159 -2t136.5 -11.5t119.5 -30t110 -59.5q117 -84 190.5 -241.5t73.5 -368.5q0 -180 -54.5 -326.5t-154.5 -244.5q-57 -55 -117.5 -86t-131.5 -45.5t-152.5 -16.5t-182.5 -2h-426zM449 289h145q111 0 194.5 10t137.5 63q47 47 80.5 138.5t33.5 212.5 q0 115 -34.5 208t-94.5 146q-55 47 -135 60.5t-205 13.5h-122v-852z" />
<glyph unicode="E" horiz-adv-x="1232" d="M141 0v1434h998v-275h-690v-293h624v-270h-624v-317h739v-279h-1047z" />
<glyph unicode="F" horiz-adv-x="1085" d="M141 0v1434h916v-275h-611v-293h584v-272h-584v-594h-305z" />
<glyph unicode="G" horiz-adv-x="1484" d="M78 717q0 166 48 302t137 233.5t215 151.5t282 54q117 0 207 -26.5t158.5 -70.5t117.5 -99.5t80 -112.5l-229 -168q-45 106 -128 163.5t-200 57.5q-180 0 -277.5 -130t-97.5 -355q0 -229 95.5 -358.5t279.5 -129.5q78 0 135 25t96 65.5t60.5 97t27.5 122.5h-446v274h713 v-813h-271v127q-47 -55 -138 -103.5t-226 -48.5q-147 0 -265 54.5t-201 153t-128 234.5t-45 300z" />
<glyph unicode="H" horiz-adv-x="1435" d="M141 0v1434h310v-557h534v557h309v-1434h-309v598h-534v-598h-310z" />
<glyph unicode="I" horiz-adv-x="591" d="M141 0v1434h310v-1434h-310z" />
<glyph unicode="J" horiz-adv-x="806" d="M16 -4v274q80 -22 155 -22h7q109 0 146 43q25 29 34 76t9 135v932h309v-998q0 -86 -11.5 -169t-52.5 -142q-31 -47 -78 -76t-102 -45t-113.5 -22.5t-113.5 -6.5q-57 0 -107.5 7.5t-81.5 13.5z" />
<glyph unicode="K" horiz-adv-x="1413" d="M141 0v1434h310v-582l565 582h405l-594 -596l596 -838h-391l-422 623l-159 -162v-461h-310z" />
<glyph unicode="L" horiz-adv-x="1064" d="M141 0v1434h310v-1151h573v-283h-883z" />
<glyph unicode="M" horiz-adv-x="1730" d="M141 0v1434h461l193 -732q16 -57 28.5 -116.5t22.5 -108.5q10 -57 22 -112h2q10 55 23 112q10 49 23.5 108.5t29.5 116.5l201 732h442v-1434h-295v492q0 74 3 178t8.5 205.5t9.5 184.5t6 114q-12 -63 -27 -127q-12 -53 -27.5 -115t-29.5 -115l-233 -817h-295l-217 856 q-12 47 -25.5 104.5t-24.5 104.5q-12 55 -24 111q0 -18 2 -62.5t4 -105t4 -130l4 -139t3 -133t1 -110.5v-496h-295z" />
<glyph unicode="N" horiz-adv-x="1454" d="M141 0v1434h314l358 -586q41 -70 78 -133.5t65 -112.5q33 -57 62 -110h2q-4 80 -6 157q-4 66 -5 141.5t-1 137.5v506h305v-1434h-312l-354 580q-29 47 -65.5 114.5t-69.5 126.5q-37 70 -78 146h-2q4 -72 8 -150q4 -66 6.5 -148.5t2.5 -166.5v-502h-308z" />
<glyph unicode="O" horiz-adv-x="1531" d="M78 717q0 166 48 302t137 233.5t216 151.5t287 54t287 -54t216 -151.5t137 -233.5t48 -302q0 -164 -45 -300t-133 -234.5t-216 -153t-294 -54.5q-164 0 -292 54.5t-216 153t-134 234.5t-46 300zM391 717q0 -225 95.5 -352t279.5 -127q182 0 278.5 127t96.5 352t-97.5 355 t-277.5 130t-277.5 -130t-97.5 -355z" />
<glyph unicode="P" horiz-adv-x="1296" d="M141 0v1434h531q119 0 198.5 -12.5t137.5 -35.5q123 -49 197.5 -153.5t74.5 -259.5q0 -137 -50 -226.5t-151 -148.5q-88 -51 -189.5 -64.5t-234.5 -13.5h-206v-520h-308zM449 791h251q53 0 96.5 4t75.5 20q47 20 71 58t24 102q0 66 -24.5 105.5t-72.5 58.5 q-33 14 -75.5 17t-96.5 3h-249v-368z" />
<glyph unicode="Q" horiz-adv-x="1531" d="M78 717q0 166 48 302t137 233.5t216 151.5t287 54t287 -54t216 -151.5t137 -233.5t48 -302q0 -219 -82 -389l178 -166l-225 -221l-141 157q-82 -59 -185.5 -91t-232.5 -32q-164 0 -292 54.5t-216 153t-134 234.5t-46 300zM391 717q0 -225 95.5 -352t279.5 -127 q182 0 278.5 127t96.5 352t-97.5 355t-277.5 130t-277.5 -130t-97.5 -355z" />
<glyph unicode="R" horiz-adv-x="1366" d="M141 0v1434h529q121 0 202.5 -11.5t139.5 -33.5q125 -51 199.5 -151.5t74.5 -258.5q0 -166 -79 -269.5t-222 -142.5l356 -567h-352l-319 526h-221v-526h-308zM449 799h249q53 0 97.5 4t78.5 18q49 18 74 57.5t25 104.5q0 63 -26.5 98t-74.5 56q-35 14 -78.5 17t-97.5 3 h-247v-358z" />
<glyph unicode="S" horiz-adv-x="1325" d="M10 301l240 172q72 -104 168 -169.5t244 -65.5q135 0 204.5 51t69.5 125q0 37 -15.5 62.5t-44 42t-67.5 26.5t-88 18l-189 33q-96 16 -179 46t-144.5 79t-97 123t-35.5 178q0 94 41 175t115.5 138.5t179 90t231.5 32.5q184 0 327.5 -63.5t235.5 -169.5l-207 -191 q-76 78 -163.5 120t-196.5 42q-104 0 -167.5 -39t-63.5 -106q0 -72 49 -105t147 -51l232 -45q100 -18 180 -47t136 -75t86 -112.5t30 -160.5q0 -121 -48.5 -210t-132 -149.5t-195.5 -90.5t-239 -30q-135 0 -239.5 32t-183 80t-133 105.5t-87.5 108.5z" />
<glyph unicode="T" horiz-adv-x="1126" d="M10 1157v277h1106v-277h-397v-1157h-309v1157h-400z" />
<glyph unicode="U" horiz-adv-x="1355" d="M111 584v850h309v-852q0 -47 2 -81t5 -58.5t8 -44t14 -38.5q25 -61 83 -89.5t146 -28.5q180 0 231 118q6 16 11.5 34t8.5 43.5t5 60t2 84.5v852h309v-850q0 -80 -4 -138.5t-13 -103.5t-22.5 -81t-34.5 -71q-35 -59 -86 -100t-114.5 -66.5t-138 -37t-154.5 -11.5 q-164 0 -294 47.5t-200 167.5q-20 35 -34.5 71t-22.5 81t-12 103.5t-4 138.5z" />
<glyph unicode="V" horiz-adv-x="1232" d="M-6 1434h330l237 -895q10 -41 19.5 -76t17.5 -64q8 -33 16 -59h2q6 29 15 61q12 53 35 136l237 897h336l-432 -1434h-389z" />
<glyph unicode="W" horiz-adv-x="1918" d="M-2 1434h324l104 -469q16 -74 36.5 -178.5t37.5 -200.5q20 -113 41 -230h2q23 92 45 195q20 88 45.5 197.5t54.5 220.5l119 465h299l131 -480q25 -92 50.5 -195.5t47.5 -189.5q25 -100 49 -198h5q14 96 34 198q16 88 38 198l44 220l94 447h322l-348 -1434h-359l-131 489 q-23 84 -44 174.5t-38 165.5q-20 88 -38 172h-2q-14 -68 -33 -147q-16 -68 -38 -159t-50 -195l-133 -500h-361z" />
<glyph unicode="X" horiz-adv-x="1452" d="M2 0l539 745l-490 689h385l301 -445l293 445h375l-496 -670l541 -764h-383l-348 528l-361 -528h-356z" />
<glyph unicode="Y" horiz-adv-x="1335" d="M-10 1434h356l320 -555l325 555h355l-539 -859v-575h-309v578z" />
<glyph unicode="Z" horiz-adv-x="1212" d="M66 0v258l684 901h-660v275h1059v-234l-688 -921h690v-279h-1085z" />
<glyph unicode="[" horiz-adv-x="634" d="M123 -436v1972h487v-262h-192v-1448h192v-262h-487z" />
<glyph unicode="\" horiz-adv-x="1089" d="M10 1434h312l757 -1434h-313z" />
<glyph unicode="]" horiz-adv-x="634" d="M25 -174h192v1448h-192v262h487v-1972h-487v262z" />
<glyph unicode="^" horiz-adv-x="1583" d="M299 668l385 766h231l369 -766h-330l-159 342l-160 -342h-336z" />
<glyph unicode="_" horiz-adv-x="1060" d="M-8 -70h1077v-282h-1077v282z" />
<glyph unicode="`" horiz-adv-x="1024" d="M211 1434h362l136 -297h-256z" />
<glyph unicode="a" horiz-adv-x="1073" d="M55 295q0 82 33 135t86 87t119.5 52.5t134.5 30.5l166 29q41 8 53 18t12 41q0 37 -25.5 63.5t-113.5 26.5q-78 0 -114.5 -31.5t-40.5 -99.5l-281 8v10q0 81 30 141q32 64 91 107t142 64.5t185 21.5q74 0 140.5 -9t119 -30.5t89.5 -58.5t53 -90q10 -33 14 -72t4 -92v-399 q0 -45 13.5 -60.5t48.5 -15.5h14v-180q-47 -12 -135 -12q-104 0 -147.5 23.5t-57.5 66.5h-2q-27 -35 -90.5 -65t-185.5 -30q-76 0 -140.5 19.5t-112.5 59.5t-75 100.5t-27 140.5zM360 295q0 -51 36 -80t102 -29q72 0 116.5 37t44.5 115v104q-12 -6 -30.5 -10t-63.5 -14 l-45 -10q-84 -18 -122 -38t-38 -75z" />
<glyph unicode="b" horiz-adv-x="1253" d="M152 0v1434h299v-549q35 41 109.5 77.5t174.5 36.5q104 0 188.5 -36.5t143.5 -104t91 -162t32 -209.5q0 -111 -33 -205t-92 -162.5t-143.5 -106.5t-186.5 -38q-90 0 -163.5 29t-120.5 84v-88h-299zM442 487q0 -129 61.5 -206.5t162.5 -77.5q104 0 162.5 76.5t58.5 207.5 q0 135 -55.5 211t-165.5 76q-100 0 -162 -79t-62 -208z" />
<glyph unicode="c" horiz-adv-x="1048" d="M63 483q0 123 38 219.5t105.5 163t163 100t210.5 33.5q100 0 178 -25.5t134 -67.5t92 -96t54 -114l-258 -88q-23 80 -73 123t-127 43q-104 0 -158.5 -75.5t-54.5 -211.5q0 -135 54 -209.5t159 -74.5q147 0 194 143l254 -104q-20 -51 -56 -99.5t-91.5 -85.5t-130 -59.5 t-170.5 -22.5q-115 0 -210.5 33t-163 97.5t-105.5 159.5t-38 218z" />
<glyph unicode="d" horiz-adv-x="1253" d="M63 487q0 111 33 205t92.5 163t143.5 106.5t186 37.5q106 0 177 -33.5t108 -78.5v547h299v-1434h-299v90q-35 -41 -110 -78t-177 -37q-104 0 -187 37t-142.5 104.5t-91.5 162t-32 208.5zM367 487q0 -135 55 -210.5t166 -75.5q100 0 161.5 78.5t61.5 207.5t-61.5 207 t-161.5 78q-104 0 -162.5 -77t-58.5 -208z" />
<glyph unicode="e" horiz-adv-x="1107" d="M63 492q0 115 37 208t103.5 159.5t159 103t200.5 36.5q123 0 214 -43t151.5 -119.5t91.5 -182t31 -230.5v-14h-697q8 -80 65.5 -139.5t168.5 -59.5q49 0 88 13.5t69.5 32.5t51 43t32.5 46l207 -139q-23 -31 -60.5 -71t-94 -75.5t-134 -60.5t-178.5 -25q-109 0 -201 35 t-159.5 100.5t-106.5 162t-39 219.5zM354 602h410q-4 86 -56.5 138.5t-144.5 52.5q-43 0 -81 -15.5t-65.5 -42t-44 -60.5t-18.5 -73z" />
<glyph unicode="f" horiz-adv-x="704" d="M18 764v211h162v147q0 78 15.5 132.5t44.5 93.5q41 57 114.5 77.5t165.5 20.5q55 0 101.5 -4t78.5 -8v-226q-14 2 -35.5 3t-46.5 1q-39 0 -65.5 -5t-44.5 -21q-14 -12 -21.5 -29.5t-7.5 -58.5v-123h221v-211h-221v-764h-299v764h-162z" />
<glyph unicode="g" horiz-adv-x="1224" d="M61 510q0 102 33 191.5t93.5 156t143.5 104t181 37.5t172 -30.5t115 -77.5v84h299v-895q0 -156 -35 -260q-47 -141 -170 -197.5t-322 -56.5q-133 0 -225 29.5t-149.5 79t-84 115t-30.5 136.5l276 49q4 -39 16.5 -73.5t37 -61t64.5 -42t102 -15.5q121 0 170 52t49 167v121 q-12 -16 -37 -34.5t-60.5 -34t-84 -27t-107.5 -11.5q-102 0 -184 36t-140.5 101.5t-90.5 155.5t-32 201zM362 506q0 -125 57.5 -196.5t162.5 -71.5q98 0 160.5 72.5t62.5 195.5t-63.5 194.5t-159.5 71.5q-100 0 -160 -71.5t-60 -194.5z" />
<glyph unicode="h" horiz-adv-x="1183" d="M131 0v1434h299v-574q35 57 109.5 98t179.5 41q170 0 256 -94q23 -27 39 -54.5t26.5 -67.5t15.5 -95t5 -135v-553h-299v492q0 55 -3 102t-18.5 81t-46 52t-86.5 18q-94 0 -136 -65.5t-42 -165.5v-514h-299z" />
<glyph unicode="i" horiz-adv-x="563" d="M131 0v975h301v-975h-301zM131 1141v293h301v-293h-301z" />
<glyph unicode="j" horiz-adv-x="565" d="M-29 -197h13q65 0 104 17q43 20 43 100v1055h303v-1088q0 -111 -26 -176q-33 -80 -107 -112.5t-195 -32.5h-73q-27 0 -62 2v235zM131 1141v293h303v-293h-303z" />
<glyph unicode="k" horiz-adv-x="1161" d="M131 0v1434h299v-781l311 322h396l-398 -379l426 -596h-368l-273 397l-94 -88v-309h-299z" />
<glyph unicode="l" horiz-adv-x="561" d="M131 0v1434h299v-1434h-299z" />
<glyph unicode="m" horiz-adv-x="1785" d="M131 0v975h295v-121q35 59 108.5 102t176.5 43q225 0 303 -176q16 31 46 63t69.5 57.5t89 40.5t108.5 15q164 0 250 -94q23 -27 39 -54.5t26.5 -67.5t15.5 -95t5 -135v-553h-299v492q0 55 -2 102t-16.5 81t-44 52t-84.5 18q-92 0 -131 -65.5t-39 -165.5v-514h-299v492 q0 55 -3.5 102t-16.5 81t-44 52t-86 18q-90 0 -129 -65.5t-39 -165.5v-514h-299z" />
<glyph unicode="n" horiz-adv-x="1183" d="M131 0v975h295v-121q35 59 111.5 102t181.5 43q170 0 256 -94q23 -27 39 -54.5t26.5 -67.5t15.5 -95t5 -135v-553h-299v492q0 55 -3 102t-18.5 81t-46 52t-86.5 18q-94 0 -136 -65.5t-42 -165.5v-514h-299z" />
<glyph unicode="o" horiz-adv-x="1161" d="M63 483q0 123 38 219.5t105.5 163t163 100t210.5 33.5t210 -33.5t163.5 -100t106.5 -163t38 -219.5t-38 -218t-106.5 -159.5t-164 -97.5t-209.5 -33q-115 0 -210.5 33t-163 97.5t-105.5 159.5t-38 218zM367 487q0 -135 54 -209.5t159 -74.5q104 0 159.5 74.5t55.5 209.5 q0 137 -55.5 212t-159.5 75t-158.5 -76t-54.5 -211z" />
<glyph unicode="p" horiz-adv-x="1253" d="M152 -426v1401h299v-90q35 41 109.5 77.5t174.5 36.5q104 0 188.5 -36.5t143.5 -104t91 -162t32 -209.5q0 -111 -33 -205t-92 -162.5t-143.5 -106.5t-186.5 -38q-90 0 -163.5 29t-120.5 84v-514h-299zM442 487q0 -129 61.5 -206.5t162.5 -77.5q104 0 162.5 76.5 t58.5 207.5q0 135 -55.5 211t-165.5 76q-100 0 -162 -79t-62 -208z" />
<glyph unicode="q" horiz-adv-x="1232" d="M63 487q0 111 33 205t92.5 163t143.5 106.5t186 37.5q90 0 164 -28.5t121 -83.5v88h299v-1401h-299v516q-35 -41 -110 -78t-175 -37q-104 0 -188 37t-143.5 104.5t-91.5 162t-32 208.5zM367 487q0 -135 55 -210.5t166 -75.5q100 0 161.5 78.5t61.5 207.5t-61.5 207 t-161.5 78q-104 0 -162.5 -77t-58.5 -208z" />
<glyph unicode="r" horiz-adv-x="745" d="M131 0v975h295v-133q10 27 34.5 55.5t60.5 50t82 35.5t97 14h17.5t17.5 -2v-286q-25 6 -50.5 9t-45.5 3q-86 0 -132 -38t-63 -99q-8 -29 -11 -62t-3 -69v-453h-299z" />
<glyph unicode="s" horiz-adv-x="1011" d="M27 199l196 157q47 -76 122 -117.5t173 -41.5q82 0 120 24.5t38 65.5q0 39 -38 51t-87 22l-156 31q-68 12 -127 35t-102 58.5t-68.5 84.5t-25.5 115q0 86 37.5 146.5t99 98.5t137.5 54t150 16q137 0 238.5 -42t174.5 -115l-170 -164q-111 106 -254 106q-53 0 -92 -16 t-39 -53q0 -39 36 -54.5t110 -31.5l162 -33q57 -12 110 -31.5t94 -51.5t64.5 -80t23.5 -116q0 -88 -35.5 -152.5t-96 -106.5t-140.5 -62.5t-170 -20.5q-168 0 -294 62.5t-191 161.5z" />
<glyph unicode="t" horiz-adv-x="737" d="M-8 764v211h188v301l299 59v-360h213v-211h-213v-424q0 -41 5 -63.5t20 -36.5q29 -31 112 -31q27 0 46.5 1t29.5 3v-217q-31 -6 -79 -11t-101 -5q-88 0 -170 16t-121 67q-29 37 -35 82t-6 119v500h-188z" />
<glyph unicode="u" horiz-adv-x="1171" d="M119 422v553h299v-492q0 -55 3 -102t16.5 -81t44 -52.5t85.5 -18.5q92 0 133 65.5t41 166.5v514h299v-975h-295v121q-35 -59 -109.5 -102.5t-178.5 -43.5q-166 0 -252 95q-23 27 -39 54.5t-26.5 67t-15.5 95t-5 135.5z" />
<glyph unicode="v" horiz-adv-x="983" d="M-4 975h313l133 -490q10 -39 19.5 -77.5t17.5 -69.5q8 -37 17 -70h2q6 35 14 72q6 33 16.5 72t20.5 80l129 483h309l-319 -975h-357z" />
<glyph unicode="w" horiz-adv-x="1533" d="M-4 975h307l78 -422q14 -76 26.5 -149.5t28.5 -149.5h2q16 72 31.5 143.5t38.5 161.5l102 416h320l104 -420q12 -49 21.5 -88t16.5 -74t14.5 -68.5t15.5 -70.5h2q8 37 14 69.5t13.5 67.5t14.5 76t17 94l80 414h295l-258 -975h-369l-80 377q-16 74 -32.5 164t-32.5 168h-2 q-16 -74 -33.5 -165t-34.5 -171l-82 -373h-372z" />
<glyph unicode="x" horiz-adv-x="985" d="M-6 0l338 524l-301 451h336l141 -238l133 238h320l-306 -457l340 -518h-329l-177 293l-172 -293h-323z" />
<glyph unicode="y" horiz-adv-x="980" d="M-4 975h313l140 -520q10 -35 17 -72t15 -68q8 -37 17 -69h2l14 71q6 31 13.5 67t17.5 71l133 520h307l-352 -1108q-25 -78 -48.5 -129t-54.5 -84q-37 -41 -98 -62.5t-182 -21.5q-37 0 -81 2t-93 6v232q31 -2 55.5 -2.5t46.5 -0.5q115 0 141 33q16 20 17 51q0 23 -6 47.5 t-21 69.5z" />
<glyph unicode="z" horiz-adv-x="1005" d="M66 0v211l469 516h-449v248h838v-213l-459 -514h479v-248h-878z" />
<glyph unicode="{" horiz-adv-x="743" d="M123 436v221q45 12 68.5 28.5t35 39.5t13.5 53.5t2 71.5v219q0 55 1 102.5t8 90.5t22.5 80.5t43.5 72.5v-2q31 39 73 62.5t91 37t107.5 18.5t124.5 7v-254q-61 -6 -96 -16.5t-52.5 -28.5t-21.5 -46t-4 -67v-165q0 -102 -4.5 -171t-15.5 -115t-32.5 -76t-56.5 -52 q33 -23 53.5 -53.5t32.5 -77.5t17.5 -117t5.5 -168v-170q0 -39 4 -65.5t21.5 -45t52 -29.5t96.5 -18v-254q-129 4 -232.5 28t-163.5 97q-55 70 -65 155t-10 189v226q0 41 -2 71.5t-13.5 53t-35 39t-68.5 28.5z" />
<glyph unicode="|" horiz-adv-x="540" d="M123 -436v1972h295v-1972h-295z" />
<glyph unicode="}" horiz-adv-x="743" d="M31 -197q61 6 96 17.5t52.5 30t21.5 45t4 65.5v170q0 98 5 168t17.5 117t33 77.5t52.5 53.5q-35 23 -56 52.5t-32.5 75.5t-15.5 114.5t-4 171.5v165q0 39 -4 67t-21.5 46t-52.5 28.5t-96 16.5v254q66 -2 124 -7t107 -18.5t91 -37t73 -62.5v2q29 -35 44 -72.5t22.5 -80.5 t8.5 -90.5t1 -102.5v-219q0 -41 2 -71.5t13 -53.5t34.5 -39t69.5 -29v-221q-45 -12 -69 -28.5t-35 -39t-13 -53t-2 -71.5v-226q0 -104 -10.5 -189t-65.5 -155q-59 -74 -162.5 -97t-232.5 -28v254z" />
<glyph unicode="~" horiz-adv-x="1583" d="M240 623q18 29 51 63.5t78 65t100 52t117 21.5q72 0 129 -22.5t119 -57.5q41 -23 69.5 -35t65.5 -12q53 0 107 36t102 93l137 -237q-72 -90 -168 -139.5t-186 -49.5q-68 0 -116 16.5t-102 43.5q-35 16 -77.5 38.5t-83.5 22.5q-16 0 -34 -4t-40.5 -18.5t-51 -43 t-67.5 -75.5z" />
<glyph unicode="&#xa1;" horiz-adv-x="577" d="M139 651v324h299v-324h-299zM141 139l29 400h242l24 -400v-598h-295v598z" />
<glyph unicode="&#xa2;" d="M121 483q0 215 107.5 344t289.5 162v199h236v-199q129 -23 213 -97.5t131 -193.5l-258 -106q-10 51 -32 92t-54 64v-519q29 20 49 57.5t33 80.5l249 -131q-49 -102 -128.5 -166t-202.5 -84v-217h-236v217q-184 31 -290.5 157.5t-106.5 339.5zM424 487q0 -90 23.5 -156.5 t70.5 -101.5v516q-47 -35 -70.5 -101.5t-23.5 -156.5z" />
<glyph unicode="&#xa3;" d="M70 0v258q51 2 91 13.5t66.5 37t40 72.5t13.5 125q0 18 -1 38.5t-4 45.5h-206v268h184q-2 16 -3 44t-1 71q0 92 19.5 178t68.5 153.5t134 108.5t216 41q123 0 205 -35t132 -95t71.5 -140t23.5 -170l-272 -68q0 51 -6 94t-22.5 75t-46.5 49.5t-77 17.5q-43 0 -71.5 -17.5 t-44 -47.5t-21.5 -67.5t-6 -78.5q0 -25 1 -50.5t3 -62.5h289v-268h-275v-19q0 -8 1 -18t1 -21q0 -74 -12 -139t-47 -112h578v-281h-1022z" />
<glyph unicode="&#xa4;" horiz-adv-x="1175" d="M80 879l205 204l123 -125q80 39 182 39q47 0 96 -9t92 -27l119 118l199 -198l-121 -119q41 -88 41 -191q0 -98 -39 -188q29 -27 62.5 -59.5t56.5 -55.5l-199 -200l-117 116q-84 -37 -190 -37q-49 0 -97.5 8.5t-91.5 28.5l-118 -118l-201 200l121 119q-37 80 -37 186 q0 53 10 98.5t33 90.5q-10 10 -16.5 14t-16.5 14zM446 571q0 -61 42 -104t102 -43q63 0 104 43t41 104t-40 104.5t-105 43.5q-59 0 -101.5 -42.5t-42.5 -105.5z" />
<glyph unicode="&#xa5;" d="M8 1434h342l252 -555l256 555h342l-323 -607h215v-252h-349v-122h349v-252h-349v-201h-309v201h-340v252h340v122h-340v252h215z" />
<glyph unicode="&#xa6;" horiz-adv-x="540" d="M123 348h295v-784h-295v784zM123 752v784h295v-784h-295z" />
<glyph unicode="&#xa7;" d="M92 90l207 184q20 -33 52 -63.5t72 -55t85 -40t90 -15.5q66 0 99.5 27t33.5 68q0 27 -16.5 46t-41 33.5t-54 26.5t-56.5 25l-55 24q-68 31 -136.5 66t-123.5 82t-90 111.5t-35 152.5q0 104 45 170.5t111 114.5q-35 39 -56.5 92t-21.5 123q0 68 26.5 126t76.5 102 t123 69.5t167 25.5q154 0 266.5 -51t183.5 -117l-200 -198q-47 41 -112.5 69.5t-127.5 28.5q-41 0 -65.5 -16.5t-24.5 -45.5q0 -25 16.5 -43t42 -33.5t58.5 -28.5t65 -28q66 -29 133.5 -60.5t123 -77.5t90 -110.5t34.5 -156.5q0 -109 -40 -172.5t-93 -110.5q37 -35 66.5 -84 t29.5 -137q0 -76 -29.5 -142.5t-87 -116.5t-140.5 -80t-189 -30q-94 0 -176 25t-146.5 61.5t-110.5 79.5t-69 80zM430 774q0 -47 42 -79.5t114 -63.5l116 -51q33 23 50.5 53.5t17.5 64.5q0 51 -47 86t-119 66q-23 10 -46 19.5t-46 15.5q-37 -18 -59.5 -47t-22.5 -64z" />
<glyph unicode="&#xa8;" horiz-adv-x="1024" d="M193 1161v258h251v-258h-251zM584 1161v258h250v-258h-250z" />
<glyph unicode="&#xa9;" horiz-adv-x="1691" d="M61 672q0 166 60.5 309t166 249.5t249 167t309.5 60.5t309 -60.5t248.5 -167t166 -249.5t60.5 -309t-60.5 -309.5t-166 -250t-248.5 -167t-309 -60.5t-309.5 60.5t-249 167t-166 250t-60.5 309.5zM266 672q0 -123 44 -230.5t122 -188.5t184.5 -127t229.5 -46 q125 0 230.5 46t183 127t121.5 188.5t44 230.5t-44 230.5t-121.5 188t-183 127t-230.5 46.5q-123 0 -229.5 -46.5t-184.5 -127t-122 -188t-44 -230.5zM442 670q0 104 29 189t82 145.5t129 93t168 32.5q88 0 151.5 -27.5t107.5 -69.5t70.5 -91t41.5 -92l-187 -111 q-18 96 -65 148.5t-119 52.5q-86 0 -135 -71.5t-49 -196.5t51 -194.5t133 -69.5q72 0 118 45t72 135l185 -119q-57 -117 -151.5 -184.5t-223.5 -67.5q-92 0 -168 32t-129 91t-82 142t-29 188z" />
<glyph unicode="&#xaa;" horiz-adv-x="770" d="M61 985q0 57 24 93t61.5 58.5t83.5 35t94 20.5l104 18q25 4 33 13.5t8 31.5q0 23 -17.5 43.5t-78.5 20.5q-111 0 -115 -105l-172 27q0 57 24.5 98t65.5 68t95.5 39t113.5 12q102 0 169 -26.5t89 -98.5q8 -23 10 -49.5t2 -60.5v-273q0 -23 5.5 -35t31.5 -12q10 0 16.5 1 t10.5 1v-121q-12 -4 -38 -8t-67 -4q-66 0 -94 18.5t-39 57.5h-2q-20 -27 -64 -52.5t-122 -25.5q-47 0 -88 13.5t-74 41t-51.5 67.5t-18.5 93zM258 985q0 -33 23.5 -52.5t66.5 -19.5q45 0 83 27t38 92v62q-12 -4 -34.5 -9.5t-63.5 -15.5q-57 -14 -85 -31.5t-28 -52.5z" />
<glyph unicode="&#xab;" horiz-adv-x="1050" d="M80 426v291l371 309v-330l-156 -121q39 -33 80 -66.5t76 -62.5v-325zM537 426v291l370 309v-330l-153 -121q39 -33 78.5 -66.5t74.5 -62.5v-325z" />
<glyph unicode="&#xac;" horiz-adv-x="1583" d="M225 694v236h1063v-639h-254v403h-809z" />
<glyph unicode="&#xad;" horiz-adv-x="745" d="M82 461v282h582v-282h-582z" />
<glyph unicode="&#xae;" horiz-adv-x="1691" d="M61 672q0 166 60.5 309t166 249.5t249 167t309.5 60.5t309 -60.5t248.5 -167t166 -249.5t60.5 -309t-60.5 -309.5t-166 -250t-248.5 -167t-309 -60.5t-309.5 60.5t-249 167t-166 250t-60.5 309.5zM266 672q0 -123 44 -230.5t122 -188.5t184.5 -127t229.5 -46 q125 0 230.5 46t183 127t121.5 188.5t44 230.5t-44 230.5t-121.5 188t-183 127t-230.5 46.5q-123 0 -229.5 -46.5t-184.5 -127t-122 -188t-44 -230.5zM481 262v836h365q45 0 77.5 -2t55 -5.5t40 -9.5t34.5 -12q68 -29 109.5 -93.5t41.5 -152.5q0 -102 -47 -166.5t-135 -87.5 q53 -72 113.5 -153.5t111.5 -153.5h-264l-203 287h-86v-287h-213zM694 735h144q49 0 73.5 4t38.5 11q39 18 39 73q0 59 -39 76q-12 6 -36.5 8t-75.5 2h-144v-174z" />
<glyph unicode="&#xaf;" horiz-adv-x="1024" d="M199 1135v251h626v-251h-626z" />
<glyph unicode="&#xb0;" horiz-adv-x="942" d="M74 1092q0 82 30.5 154.5t85 126.5t126 85t155.5 31q82 0 154.5 -31t127 -85t85 -126.5t30.5 -154.5q0 -84 -30.5 -156t-85 -126t-127 -85t-154.5 -31q-84 0 -155.5 31t-126 85t-85 126t-30.5 156zM315 1092q0 -63 46.5 -109.5t109.5 -46.5t109.5 46t46.5 110 q0 63 -46 109t-110 46q-63 0 -109.5 -46t-46.5 -109z" />
<glyph unicode="&#xb1;" horiz-adv-x="1583" d="M184 0v258h1213v-258h-1213zM184 608v283h465v334h285v-334h463v-283h-463v-274h-285v274h-465z" />
<glyph unicode="&#xb2;" horiz-adv-x="819" d="M61 492v159q68 47 145 109.5t142 124.5q66 61 116 121.5t50 132.5q0 53 -28.5 82.5t-82.5 29.5q-57 0 -83.5 -36.5t-26.5 -84.5q0 -39 9 -70.5t26 -68.5l-246 37q-12 33 -15.5 63.5t-3.5 59.5q0 63 24 117.5t69 94.5t111.5 62.5t150.5 22.5q162 0 249 -80t87 -219 q0 -66 -18.5 -120t-51.5 -100t-75 -87t-87 -78q-16 -14 -33.5 -25.5t-29.5 -21.5q-16 -10 -29 -21h324v-204h-693z" />
<glyph unicode="&#xb3;" horiz-adv-x="819" d="M41 786l219 62q0 -76 32 -126t105 -50q70 0 96.5 34.5t26.5 75.5q0 39 -19.5 65.5t-66.5 37.5q-29 6 -72 6h-69v182h63q23 0 42.5 2t33.5 6q33 10 51.5 35t18.5 58q0 41 -30 63.5t-77 22.5q-59 0 -92 -36t-33 -116l-196 66q0 49 20.5 98t60.5 89t101 64.5t145 24.5 q160 0 241 -70.5t81 -181.5q0 -74 -34 -123t-75 -78q27 -12 51.5 -30.5t43 -45t30 -63.5t11.5 -86q0 -61 -22.5 -114.5t-67 -93.5t-111 -63.5t-154.5 -23.5q-166 0 -257 84t-97 225z" />
<glyph unicode="&#xb4;" horiz-adv-x="1024" d="M285 1137l135 297h362l-241 -297h-256z" />
<glyph unicode="&#xb6;" horiz-adv-x="1529" d="M37 1008q0 213 143 327q29 23 61.5 41.5t75.5 30.5t99.5 19.5t132.5 7.5h878v-267h-161v-1480h-254v1480h-193v-1480h-254v895h-16q-76 0 -132.5 6t-99.5 18t-75.5 30.5t-61.5 41.5q-70 55 -106.5 138t-36.5 192z" />
<glyph unicode="&#xb7;" horiz-adv-x="550" d="M113 408v364h325v-364h-325z" />
<glyph unicode="&#xb8;" horiz-adv-x="1024" d="M354 -104l101 110h145l-59 -67q96 0 141 -49.5t45 -108.5q0 -88 -65.5 -134t-153.5 -46q-37 0 -76 8t-76 26l50 127q14 -10 34.5 -16t42.5 -6q27 0 46.5 11t19.5 38q0 25 -18.5 36t-43.5 11q-23 0 -44 -7t-35 -22z" />
<glyph unicode="&#xb9;" horiz-adv-x="819" d="M109 1055v184h45q53 0 90 10.5t63 28.5q66 49 70 156h211v-947h-230v568h-249z" />
<glyph unicode="&#xba;" horiz-adv-x="759" d="M68 1112q0 160 82.5 253t230.5 93q145 0 228 -93t83 -253q0 -162 -82 -254t-229 -92t-230 92t-83 254zM240 1112q0 -92 37.5 -143t103.5 -51t101.5 52t35.5 142t-36 142.5t-101 52.5q-68 0 -104.5 -53.5t-36.5 -141.5z" />
<glyph unicode="&#xbb;" horiz-adv-x="1050" d="M143 121v325q35 29 75 63t79 66l-154 121v330l371 -309v-291zM600 121v325q35 29 76 63t80 66l-156 121v330l371 -309v-291z" />
<glyph unicode="&#xbc;" horiz-adv-x="1843" d="M49 1055v184h45q53 0 90 10.5t64 28.5q66 49 69 156h211v-947h-229v568h-250zM399 0l746 1434h260l-741 -1434h-265zM1001 201v170l412 575h219v-549h133v-196h-133v-201h-219v201h-412zM1235 393q14 0 31 2q14 0 32.5 1t38.5 1h76v103q0 18 1 44.5t3 53.5q2 31 6 64h-2 q-12 -14 -20 -31q-10 -14 -18.5 -29.5t-18.5 -30.5l-76 -108q-16 -23 -31.5 -41.5t-21.5 -26.5v-2z" />
<glyph unicode="&#xbd;" horiz-adv-x="1843" d="M-4 1055v184h45q53 0 90 10.5t64 28.5q66 49 69 156h211v-947h-229v568h-250zM317 0l746 1434h260l-741 -1434h-265zM1110 0v160q68 47 144.5 109.5t142.5 123.5t116 121.5t50 132.5q0 53 -29 83t-82 30q-57 0 -84 -37t-27 -84q0 -39 9.5 -70.5t25.5 -68.5l-246 37 q-12 33 -15 63.5t-3 58.5q0 63 23.5 117.5t68.5 94.5t111.5 62.5t150.5 22.5q162 0 249 -79.5t87 -219.5q0 -66 -18.5 -120t-51 -100t-74.5 -87t-87 -78q-16 -14 -33.5 -25t-30.5 -22q-16 -10 -28 -20h323v-205h-692z" />
<glyph unicode="&#xbe;" horiz-adv-x="1843" d="M-4 786l219 62q0 -76 32 -126t105 -50q70 0 96.5 34.5t26.5 75.5q0 39 -19.5 65.5t-66.5 37.5q-29 6 -72 6h-69v182h63q23 0 42.5 2t33.5 6q33 10 51.5 35t18.5 58q0 41 -30 63.5t-77 22.5q-59 0 -92 -36t-33 -116l-196 66q0 49 20.5 98t60.5 89t101 64.5t145 24.5 q160 0 241 -70.5t81 -181.5q0 -74 -34 -123t-75 -78q27 -12 51.5 -30.5t43 -45t30 -63.5t11.5 -86q0 -61 -23 -114.5t-67 -93.5t-110.5 -63.5t-154.5 -23.5q-166 0 -257 84t-97 225zM467 0l745 1434h261l-742 -1434h-264zM1049 201v170l411 575h219v-549h133v-196h-133v-201 h-219v201h-411zM1282 393q14 0 31 2q14 0 32.5 1t38.5 1h76v103q0 18 1 44.5t3 53.5q2 31 6 64h-2q-12 -14 -20 -31q-10 -14 -18.5 -29.5t-18.5 -30.5l-76 -108q-16 -23 -31.5 -41.5t-21.5 -26.5v-2z" />
<glyph unicode="&#xbf;" horiz-adv-x="1048" d="M51 -57q0 98 43 194t142 174l98 78q31 25 49 42.5t29.5 35.5t15.5 37.5t4 48.5v41h277v-53q0 -53 -6.5 -94t-22.5 -80t-48 -76t-83 -80l-80 -68q-104 -90 -104 -200q0 -82 45 -125t125 -43q92 0 132 58t40 134q0 43 -11.5 85t-29.5 77l319 -43q23 -74 23 -143 q0 -82 -29 -159t-88.5 -136.5t-148.5 -95t-207 -35.5q-133 0 -224.5 35.5t-150 95t-84 136.5t-25.5 159zM412 672v303h313v-303h-313z" />
<glyph unicode="&#xc0;" horiz-adv-x="1325" d="M-2 0l481 1434h371l477 -1434h-332l-86 285h-501l-84 -285h-326zM330 1862h362l135 -297h-256zM483 543h346l-118 407q-10 35 -19.5 68t-15.5 59q-8 31 -14 60h-3q-8 -29 -16 -60q-8 -27 -17.5 -60.5t-19.5 -68.5z" />
<glyph unicode="&#xc1;" horiz-adv-x="1325" d="M-2 0l481 1434h371l477 -1434h-332l-86 285h-501l-84 -285h-326zM483 543h346l-118 407q-10 35 -19.5 68t-15.5 59q-8 31 -14 60h-3q-8 -29 -16 -60q-8 -27 -17.5 -60.5t-19.5 -68.5zM510 1565l135 297h363l-242 -297h-256z" />
<glyph unicode="&#xc2;" horiz-adv-x="1325" d="M-2 0l481 1434h371l477 -1434h-332l-86 285h-501l-84 -285h-326zM340 1565l227 297h215l242 -297h-242l-102 131l-105 -131h-235zM483 543h346l-118 407q-10 35 -19.5 68t-15.5 59q-8 31 -14 60h-3q-8 -29 -16 -60q-8 -27 -17.5 -60.5t-19.5 -68.5z" />
<glyph unicode="&#xc3;" horiz-adv-x="1325" d="M-2 0l481 1434h371l477 -1434h-332l-86 285h-501l-84 -285h-326zM285 1640q6 27 24.5 67t51 77t76.5 63.5t104 26.5q41 0 75.5 -14.5t69.5 -30.5q31 -16 60.5 -27.5t58.5 -11.5q35 0 56.5 22.5t33.5 53.5l172 -70q-16 -43 -37.5 -86t-52.5 -77t-73 -54t-99 -20 q-45 0 -78 10t-72 28q-41 20 -68.5 34t-49.5 14q-33 0 -51.5 -24t-28.5 -52zM483 543h346l-118 407q-10 35 -19.5 68t-15.5 59q-8 31 -14 60h-3q-8 -29 -16 -60q-8 -27 -17.5 -60.5t-19.5 -68.5z" />
<glyph unicode="&#xc4;" horiz-adv-x="1325" d="M-2 0l481 1434h371l477 -1434h-332l-86 285h-501l-84 -285h-326zM375 1593v238h239v-238h-239zM483 543h346l-118 407q-10 35 -19.5 68t-15.5 59q-8 31 -14 60h-3q-8 -29 -16 -60q-8 -27 -17.5 -60.5t-19.5 -68.5zM754 1593v238h239v-238h-239z" />
<glyph unicode="&#xc5;" horiz-adv-x="1325" d="M-2 0l481 1434h371l477 -1434h-332l-86 285h-501l-84 -285h-326zM442 1731q0 49 17.5 91t49.5 72.5t74 48t91 17.5t91 -17.5t73.5 -48t49 -72.5t17.5 -91t-17.5 -91.5t-49 -73t-73.5 -48t-91 -17.5t-91 17.5t-74 48t-49.5 73t-17.5 91.5zM483 543h346l-118 407 q-10 35 -19.5 68t-15.5 59q-8 31 -14 60h-3q-8 -29 -16 -60q-8 -27 -17.5 -60.5t-19.5 -68.5zM600 1731q0 -31 21.5 -51.5t50.5 -20.5t50 20.5t21 51.5t-21.5 51t-49.5 20q-29 0 -50.5 -20t-21.5 -51z" />
<glyph unicode="&#xc6;" horiz-adv-x="1951" d="M-41 0l797 1434h1102v-275h-664v-293h598v-270h-598v-317h713v-279h-1020v338h-414l-186 -338h-328zM621 608h266v312v59.5t2 67.5q2 37 4 79h-2q-14 -29 -31 -59q-14 -27 -29.5 -56.5t-29.5 -58.5z" />
<glyph unicode="&#xc7;" horiz-adv-x="1380" d="M78 717q0 166 48 302t137 233.5t215 151.5t282 54q199 0 340 -83t227 -226l-233 -168q-45 106 -128 163.5t-200 57.5q-180 0 -277.5 -130t-97.5 -355t95.5 -352t279.5 -127q115 0 195.5 51t125.5 149l263 -125q-78 -150 -212 -237.5t-333 -98.5l-31 -38q96 0 141.5 -49.5 t45.5 -108.5q0 -88 -66 -134t-154 -46q-37 0 -75.5 8t-75.5 26l49 127q14 -10 34.5 -16t43.5 -6q27 0 46 11t19 38q0 25 -18.5 36t-42.5 11q-23 0 -44.5 -7t-35.5 -22l-53 89l76 86q-139 14 -248 74.5t-183.5 156.5t-114.5 224t-40 280z" />
<glyph unicode="&#xc8;" horiz-adv-x="1232" d="M141 0v1434h998v-275h-690v-293h624v-270h-624v-317h739v-279h-1047zM330 1862h362l135 -297h-256z" />
<glyph unicode="&#xc9;" horiz-adv-x="1232" d="M141 0v1434h998v-275h-690v-293h624v-270h-624v-317h739v-279h-1047zM510 1565l135 297h363l-242 -297h-256z" />
<glyph unicode="&#xca;" horiz-adv-x="1232" d="M141 0v1434h998v-275h-690v-293h624v-270h-624v-317h739v-279h-1047zM301 1565l227 297h215l242 -297h-242l-102 131l-104 -131h-236z" />
<glyph unicode="&#xcb;" horiz-adv-x="1232" d="M141 0v1434h998v-275h-690v-293h624v-270h-624v-317h739v-279h-1047zM334 1585v264h268v-264h-268zM717 1585v264h268v-264h-268z" />
<glyph unicode="&#xcc;" horiz-adv-x="591" d="M-43 1862h362l136 -297h-256zM141 0v1434h310v-1434h-310z" />
<glyph unicode="&#xcd;" horiz-adv-x="591" d="M141 0h310v1434h-310v-1434zM162 1565l135 297h362l-241 -297h-256z" />
<glyph unicode="&#xce;" horiz-adv-x="591" d="M-33 1565l228 297h215l241 -297h-241l-103 131l-104 -131h-236zM141 0h310v1434h-310v-1434z" />
<glyph unicode="&#xcf;" horiz-adv-x="591" d="M-29 1585v264h269v-264h-269zM141 0h310v1434h-310v-1434zM354 1585v264h269v-264h-269z" />
<glyph unicode="&#xd0;" horiz-adv-x="1449" d="M4 604v283h146v547h430q86 0 158.5 -2t136 -11.5t120 -30t109.5 -59.5q117 -84 190.5 -241.5t73.5 -368.5q0 -180 -54 -326.5t-155 -244.5q-57 -55 -117.5 -86t-131 -45.5t-152.5 -16.5t-183 -2h-425v604h-146zM457 289h145q111 0 195 10t137 63q47 47 81 138.5t34 212.5 q0 115 -35 208t-94 146q-55 47 -135 60.5t-205 13.5h-123v-254h354v-283h-354v-315z" />
<glyph unicode="&#xd1;" horiz-adv-x="1454" d="M141 0v1434h314l358 -586q41 -70 78 -133.5t65 -112.5q33 -57 62 -110h2q-4 80 -6 157q-4 66 -5 141.5t-1 137.5v506h305v-1434h-312l-354 580q-29 47 -65.5 114.5t-69.5 126.5q-37 70 -78 146h-2q4 -72 8 -150q4 -66 6.5 -148.5t2.5 -166.5v-502h-308zM350 1640 q6 27 24.5 67t51.5 77t77 63.5t103 26.5q41 0 76 -14.5t70 -30.5q31 -16 60.5 -27.5t57.5 -11.5q35 0 56.5 22.5t34.5 53.5l172 -70q-16 -43 -38 -86t-52.5 -77t-72.5 -54t-100 -20q-45 0 -77.5 10t-71.5 28q-41 20 -68.5 34t-50.5 14q-33 0 -51.5 -24t-28.5 -52z" />
<glyph unicode="&#xd2;" horiz-adv-x="1531" d="M78 717q0 166 48 302t137 233.5t216 151.5t287 54t287 -54t216 -151.5t137 -233.5t48 -302q0 -164 -45 -300t-133 -234.5t-216 -153t-294 -54.5q-164 0 -292 54.5t-216 153t-134 234.5t-46 300zM391 717q0 -225 95.5 -352t279.5 -127q182 0 278.5 127t96.5 352t-97.5 355 t-277.5 130t-277.5 -130t-97.5 -355zM428 1862h363l135 -297h-256z" />
<glyph unicode="&#xd3;" horiz-adv-x="1531" d="M78 717q0 166 48 302t137 233.5t216 151.5t287 54t287 -54t216 -151.5t137 -233.5t48 -302q0 -164 -45 -300t-133 -234.5t-216 -153t-294 -54.5q-164 0 -292 54.5t-216 153t-134 234.5t-46 300zM391 717q0 -225 95.5 -352t279.5 -127q182 0 278.5 127t96.5 352t-97.5 355 t-277.5 130t-277.5 -130t-97.5 -355zM573 1565l136 297h362l-242 -297h-256z" />
<glyph unicode="&#xd4;" horiz-adv-x="1531" d="M78 717q0 166 48 302t137 233.5t216 151.5t287 54t287 -54t216 -151.5t137 -233.5t48 -302q0 -164 -45 -300t-133 -234.5t-216 -153t-294 -54.5q-164 0 -292 54.5t-216 153t-134 234.5t-46 300zM391 717q0 -225 95.5 -352t279.5 -127q182 0 278.5 127t96.5 352t-97.5 355 t-277.5 130t-277.5 -130t-97.5 -355zM428 1565l227 297h215l242 -297h-242l-102 131l-104 -131h-236z" />
<glyph unicode="&#xd5;" horiz-adv-x="1531" d="M78 717q0 166 48 302t137 233.5t216 151.5t287 54t287 -54t216 -151.5t137 -233.5t48 -302q0 -164 -45 -300t-133 -234.5t-216 -153t-294 -54.5q-164 0 -292 54.5t-216 153t-134 234.5t-46 300zM373 1640q6 27 24.5 67t51 77t76.5 63.5t104 26.5q41 0 75.5 -14.5 t69.5 -30.5q31 -16 60.5 -27.5t58.5 -11.5q35 0 56.5 22.5t33.5 53.5l172 -70q-16 -43 -37.5 -86t-52.5 -77t-73 -54t-99 -20q-45 0 -78 10t-72 28q-41 20 -68.5 34t-49.5 14q-33 0 -51.5 -24t-28.5 -52zM391 717q0 -225 95.5 -352t279.5 -127q182 0 278.5 127t96.5 352 t-97.5 355t-277.5 130t-277.5 -130t-97.5 -355z" />
<glyph unicode="&#xd6;" horiz-adv-x="1531" d="M78 717q0 166 48 302t137 233.5t216 151.5t287 54t287 -54t216 -151.5t137 -233.5t48 -302q0 -164 -45 -300t-133 -234.5t-216 -153t-294 -54.5q-164 0 -292 54.5t-216 153t-134 234.5t-46 300zM391 717q0 -225 95.5 -352t279.5 -127q182 0 278.5 127t96.5 352t-97.5 355 t-277.5 130t-277.5 -130t-97.5 -355zM457 1593v238h239v-238h-239zM836 1593v238h239v-238h-239z" />
<glyph unicode="&#xd7;" horiz-adv-x="1583" d="M180 203l410 409l-408 406l201 203l410 -406l405 406l203 -203l-406 -406l406 -409l-203 -201l-405 408l-410 -410z" />
<glyph unicode="&#xd8;" horiz-adv-x="1540" d="M-10 106l186 207q-90 170 -90 404q0 166 48 302t137 233.5t216 151.5t287 54q100 0 188.5 -22.5t161.5 -63.5l156 174l219 -200l-158 -177q59 -92 90 -205.5t31 -246.5q0 -164 -45 -300t-133 -234.5t-216 -153t-294 -54.5q-121 0 -220 30t-179 83l-160 -178zM399 717 q0 -39 3.5 -74t7.5 -68l528 590q-72 37 -164 37q-180 0 -277.5 -130t-97.5 -355zM563 299q82 -61 211 -61q182 0 278.5 127t96.5 352q0 57 -7 108.5t-20 98.5z" />
<glyph unicode="&#xd9;" horiz-adv-x="1355" d="M111 584v850h309v-852q0 -47 2 -81t5 -58.5t8 -44t14 -38.5q25 -61 83 -89.5t146 -28.5q180 0 231 118q6 16 11.5 34t8.5 43.5t5 60t2 84.5v852h309v-850q0 -80 -4 -138.5t-13 -103.5t-22.5 -81t-34.5 -71q-35 -59 -86 -100t-114.5 -66.5t-138 -37t-154.5 -11.5 q-164 0 -294 47.5t-200 167.5q-20 35 -34.5 71t-22.5 81t-12 103.5t-4 138.5zM350 1862h363l135 -297h-256z" />
<glyph unicode="&#xda;" horiz-adv-x="1355" d="M111 584v850h309v-852q0 -47 2 -81t5 -58.5t8 -44t14 -38.5q25 -61 83 -89.5t146 -28.5q180 0 231 118q6 16 11.5 34t8.5 43.5t5 60t2 84.5v852h309v-850q0 -80 -4 -138.5t-13 -103.5t-22.5 -81t-34.5 -71q-35 -59 -86 -100t-114.5 -66.5t-138 -37t-154.5 -11.5 q-164 0 -294 47.5t-200 167.5q-20 35 -34.5 71t-22.5 81t-12 103.5t-4 138.5zM537 1565l135 297h362l-241 -297h-256z" />
<glyph unicode="&#xdb;" horiz-adv-x="1355" d="M111 584v850h309v-852q0 -47 2 -81t5 -58.5t8 -44t14 -38.5q25 -61 83 -89.5t146 -28.5q180 0 231 118q6 16 11.5 34t8.5 43.5t5 60t2 84.5v852h309v-850q0 -80 -4 -138.5t-13 -103.5t-22.5 -81t-34.5 -71q-35 -59 -86 -100t-114.5 -66.5t-138 -37t-154.5 -11.5 q-164 0 -294 47.5t-200 167.5q-20 35 -34.5 71t-22.5 81t-12 103.5t-4 138.5zM346 1565l227 297h215l242 -297h-242l-102 131l-104 -131h-236z" />
<glyph unicode="&#xdc;" horiz-adv-x="1355" d="M111 584v850h309v-852q0 -47 2 -81t5 -58.5t8 -44t14 -38.5q25 -61 83 -89.5t146 -28.5q180 0 231 118q6 16 11.5 34t8.5 43.5t5 60t2 84.5v852h309v-850q0 -80 -4 -138.5t-13 -103.5t-22.5 -81t-34.5 -71q-35 -59 -86 -100t-114.5 -66.5t-138 -37t-154.5 -11.5 q-164 0 -294 47.5t-200 167.5q-20 35 -34.5 71t-22.5 81t-12 103.5t-4 138.5zM373 1593v238h239v-238h-239zM752 1593v238h239v-238h-239z" />
<glyph unicode="&#xdd;" horiz-adv-x="1335" d="M-10 1434h356l320 -555l325 555h355l-539 -859v-575h-309v578zM510 1565l135 297h363l-242 -297h-256z" />
<glyph unicode="&#xde;" horiz-adv-x="1296" d="M141 0v1434h308v-179h223q119 0 198.5 -12t137.5 -35q123 -49 197.5 -153.5t74.5 -259.5q0 -137 -50 -226.5t-151 -148.5q-88 -51 -189.5 -64.5t-234.5 -13.5h-206v-342h-308zM449 612h251q53 0 96.5 4.5t75.5 20.5q47 20 71 58t24 102q0 66 -24.5 105.5t-72.5 58.5 q-33 14 -75.5 17t-96.5 3h-249v-369z" />
<glyph unicode="&#xdf;" horiz-adv-x="1103" d="M131 0v1024q0 111 22.5 191.5t75.5 134.5q51 53 134 79.5t194 26.5q117 0 195.5 -26.5t128 -71.5t71 -104.5t21.5 -123.5q0 -111 -42 -176t-102 -98q37 -18 73 -44t63.5 -69t44 -107.5t16.5 -162.5q0 -252 -103.5 -366.5t-320.5 -114.5q-20 0 -42.5 1t-41.5 3v225 q63 0 103.5 16.5t63 48t31.5 79t9 110.5q0 59 -7 104.5t-29.5 76t-62.5 46t-108 15.5v213q74 0 117 31.5t43 123.5q0 66 -31 103t-96 37q-66 0 -94 -45q-16 -25 -21.5 -59t-5.5 -87v-1034h-299z" />
<glyph unicode="&#xe0;" horiz-adv-x="1073" d="M55 295q0 82 33 135t86 87t119.5 52.5t134.5 30.5l166 29q41 8 53 18t12 41q0 37 -25.5 63.5t-113.5 26.5q-78 0 -114.5 -31.5t-40.5 -99.5l-281 8q-2 86 29.5 150.5t91 107.5t142.5 64.5t185 21.5q74 0 140.5 -9t119 -30.5t89.5 -58.5t53 -90q10 -33 14 -72t4 -92v-399 q0 -45 13.5 -60.5t48.5 -15.5h14v-180q-47 -12 -135 -12q-104 0 -147.5 23.5t-57.5 66.5h-2q-27 -35 -90.5 -65t-185.5 -30q-76 0 -140.5 19.5t-112.5 59.5t-75 100.5t-27 140.5zM223 1434h363l135 -297h-256zM360 295q0 -51 36 -80t102 -29q72 0 116.5 37t44.5 115v104 q-12 -6 -30.5 -10t-63.5 -14l-45 -10q-84 -18 -122 -38t-38 -75z" />
<glyph unicode="&#xe1;" horiz-adv-x="1073" d="M55 295q0 -80 27 -140.5t75 -100.5t112.5 -59.5t140.5 -19.5q123 0 186 30t90 65h2q14 -43 57 -66.5t148 -23.5q88 0 135 12v180h-14q-35 0 -48.5 15.5t-13.5 60.5v399q0 53 -4 92t-14 72q-16 53 -53 90t-89.5 58.5t-119 30.5t-140.5 9q-102 0 -185 -21.5t-142.5 -64.5 t-91 -107.5t-29.5 -150.5l281 -8q4 68 40.5 99.5t114.5 31.5q88 0 113.5 -26.5t25.5 -63.5q0 -31 -12 -41t-53 -18l-166 -29q-68 -12 -134.5 -30.5t-119.5 -52.5t-86 -87t-33 -135zM360 295q0 55 38 74.5t122 38.5l45 10q45 10 63.5 14t30.5 10v-104q0 -78 -45 -115 t-116 -37q-66 0 -102 29t-36 80zM369 1137l135 297h362l-241 -297h-256z" />
<glyph unicode="&#xe2;" horiz-adv-x="1073" d="M55 295q0 -80 27 -140.5t75 -100.5t112.5 -59.5t140.5 -19.5q123 0 186 30t90 65h2q14 -43 57 -66.5t148 -23.5q88 0 135 12v180h-14q-35 0 -48.5 15.5t-13.5 60.5v399q0 53 -4 92t-14 72q-16 53 -53 90t-89.5 58.5t-119 30.5t-140.5 9q-102 0 -185 -21.5t-142.5 -64.5 t-91 -107.5t-29.5 -150.5l281 -8q4 68 40.5 99.5t114.5 31.5q88 0 113.5 -26.5t25.5 -63.5q0 -31 -12 -41t-53 -18l-166 -29q-68 -12 -134.5 -30.5t-119.5 -52.5t-86 -87t-33 -135zM199 1137l227 297h215l242 -297h-242l-102 131l-105 -131h-235zM360 295q0 55 38 74.5 t122 38.5l45 10q45 10 63.5 14t30.5 10v-104q0 -78 -45 -115t-116 -37q-66 0 -102 29t-36 80z" />
<glyph unicode="&#xe3;" horiz-adv-x="1073" d="M55 295q0 -80 27 -140.5t75 -100.5t112.5 -59.5t140.5 -19.5q123 0 186 30t90 65h2q14 -43 57 -66.5t148 -23.5q88 0 135 12v180h-14q-35 0 -48.5 15.5t-13.5 60.5v399q0 53 -4 92t-14 72q-16 53 -53 90t-89.5 58.5t-119 30.5t-140.5 9q-102 0 -185 -21.5t-142.5 -64.5 t-91 -107.5t-29.5 -150.5l281 -8q4 68 40.5 99.5t114.5 31.5q88 0 113.5 -26.5t25.5 -63.5q0 -31 -12 -41t-53 -18l-166 -29q-68 -12 -134.5 -30.5t-119.5 -52.5t-86 -87t-33 -135zM158 1200q6 27 24.5 67t51 76.5t76.5 63.5t104 27q41 0 75.5 -14.5t69.5 -30.5 q31 -16 60.5 -27.5t58.5 -11.5q35 0 56.5 22.5t33.5 52.5l172 -69q-16 -43 -37.5 -86t-52.5 -77t-73 -54.5t-99 -20.5q-45 0 -78 10.5t-72 28.5q-41 20 -68.5 33.5t-49.5 13.5q-33 0 -51.5 -23.5t-28.5 -52.5zM360 295q0 55 38 74.5t122 38.5l45 10q45 10 63.5 14t30.5 10 v-104q0 -78 -45 -115t-116 -37q-66 0 -102 29t-36 80z" />
<glyph unicode="&#xe4;" horiz-adv-x="1073" d="M55 295q0 -80 27 -140.5t75 -100.5t112.5 -59.5t140.5 -19.5q123 0 186 30t90 65h2q14 -43 57 -66.5t148 -23.5q88 0 135 12v180h-14q-35 0 -48.5 15.5t-13.5 60.5v399q0 53 -4 92t-14 72q-16 53 -53 90t-89.5 58.5t-119 30.5t-140.5 9q-102 0 -185 -21.5t-142.5 -64.5 t-91 -107.5t-29.5 -150.5l281 -8q4 68 40.5 99.5t114.5 31.5q88 0 113.5 -26.5t25.5 -63.5q0 -31 -12 -41t-53 -18l-166 -29q-68 -12 -134.5 -30.5t-119.5 -52.5t-86 -87t-33 -135zM229 1169v238h240v-238h-240zM360 295q0 55 38 74.5t122 38.5l45 10q45 10 63.5 14t30.5 10 v-104q0 -78 -45 -115t-116 -37q-66 0 -102 29t-36 80zM608 1169v238h240v-238h-240z" />
<glyph unicode="&#xe5;" horiz-adv-x="1073" d="M55 295q0 -80 27 -140.5t75 -100.5t112.5 -59.5t140.5 -19.5q123 0 186 30t90 65h2q14 -43 57 -66.5t148 -23.5q88 0 135 12v180h-14q-35 0 -48.5 15.5t-13.5 60.5v399q0 53 -4 92t-14 72q-16 53 -53 90t-89.5 58.5t-119 30.5t-140.5 9q-102 0 -185 -21.5t-142.5 -64.5 t-91 -107.5t-29.5 -150.5l281 -8q4 68 40.5 99.5t114.5 31.5q88 0 113.5 -26.5t25.5 -63.5q0 -31 -12 -41t-53 -18l-166 -29q-68 -12 -134.5 -30.5t-119.5 -52.5t-86 -87t-33 -135zM301 1290q0 49 17.5 91t49 73t73.5 48.5t91 17.5t91.5 -17.5t74 -48.5t49 -73t17.5 -91 t-17.5 -91t-49 -72.5t-73.5 -48t-92 -17.5q-49 0 -91 17.5t-73.5 48t-49 72.5t-17.5 91zM360 295q0 55 38 74.5t122 38.5l45 10q45 10 63.5 14t30.5 10v-104q0 -78 -45 -115t-116 -37q-66 0 -102 29t-36 80zM459 1290q0 -31 21.5 -51t49.5 -20q29 0 50.5 20.5t21.5 50.5 q0 31 -21.5 51.5t-50.5 20.5t-50 -20.5t-21 -51.5z" />
<glyph unicode="&#xe6;" horiz-adv-x="1697" d="M55 295q0 82 33 135t86 87t119.5 52.5t134.5 30.5l166 29q41 8 53 18t12 41q0 37 -25.5 63.5t-113.5 26.5q-78 0 -114.5 -31.5t-40.5 -99.5l-281 8q-2 86 29.5 150.5t91 107.5t142.5 64.5t185 21.5q106 0 189.5 -19t136.5 -69q59 41 134 64.5t161 23.5q123 0 214 -43 t151.5 -119.5t91 -182t30.5 -230.5v-14h-696q8 -80 65.5 -139.5t168.5 -59.5q49 0 88 13.5t69.5 32.5t51 43t32.5 46l207 -139q-23 -31 -60.5 -71t-94 -75.5t-134 -60.5t-178.5 -25q-223 0 -364 136q-14 -18 -42 -41t-73 -44.5t-108.5 -36t-149.5 -14.5q-166 0 -266.5 80 t-100.5 240zM360 295q0 -51 36 -80t102 -29q72 0 116.5 37t44.5 115v104q-12 -6 -30.5 -10t-63.5 -14l-45 -10q-84 -18 -122 -38t-38 -75zM944 602h410q-4 86 -56.5 138.5t-144.5 52.5q-43 0 -81 -15.5t-65.5 -42t-44 -60.5t-18.5 -73z" />
<glyph unicode="&#xe7;" horiz-adv-x="1048" d="M63 483q0 123 38 219.5t105.5 163t163 100t210.5 33.5q100 0 178 -25.5t134 -67.5t92 -96t54 -114l-258 -88q-23 80 -73 123t-127 43q-104 0 -158.5 -75.5t-54.5 -211.5q0 -135 54 -209.5t159 -74.5q147 0 194 143l254 -104q-18 -49 -53 -96.5t-87 -84t-123 -60.5 t-161 -26l-29 -36q96 0 141.5 -49.5t45.5 -108.5q0 -88 -65.5 -134t-153.5 -46q-37 0 -76 8t-76 26l49 127q14 -10 35 -16t43 -6q27 0 46.5 11t19.5 38q0 25 -18.5 36t-43.5 11q-23 0 -44 -7t-36 -22l-53 89l80 88q-186 29 -296 155.5t-110 343.5z" />
<glyph unicode="&#xe8;" horiz-adv-x="1107" d="M63 492q0 115 37 208t103.5 159.5t159 103t200.5 36.5q123 0 214 -43t151.5 -119.5t91.5 -182t31 -230.5v-14h-697q8 -80 65.5 -139.5t168.5 -59.5q49 0 88 13.5t69.5 32.5t51 43t32.5 46l207 -139q-23 -31 -60.5 -71t-94 -75.5t-134 -60.5t-178.5 -25q-109 0 -201 35 t-159.5 100.5t-106.5 162t-39 219.5zM270 1434h363l135 -297h-256zM354 602h410q-4 86 -56.5 138.5t-144.5 52.5q-43 0 -81 -15.5t-65.5 -42t-44 -60.5t-18.5 -73z" />
<glyph unicode="&#xe9;" horiz-adv-x="1107" d="M63 492q0 115 37 208t103.5 159.5t159 103t200.5 36.5q123 0 214 -43t151.5 -119.5t91.5 -182t31 -230.5v-14h-697q8 -80 65.5 -139.5t168.5 -59.5q49 0 88 13.5t69.5 32.5t51 43t32.5 46l207 -139q-23 -31 -60.5 -71t-94 -75.5t-134 -60.5t-178.5 -25q-109 0 -201 35 t-159.5 100.5t-106.5 162t-39 219.5zM354 602h410q-4 86 -56.5 138.5t-144.5 52.5q-43 0 -81 -15.5t-65.5 -42t-44 -60.5t-18.5 -73zM399 1137l136 297h362l-242 -297h-256z" />
<glyph unicode="&#xea;" horiz-adv-x="1107" d="M63 492q0 115 37 208t103.5 159.5t159 103t200.5 36.5q123 0 214 -43t151.5 -119.5t91.5 -182t31 -230.5v-14h-697q8 -80 65.5 -139.5t168.5 -59.5q49 0 88 13.5t69.5 32.5t51 43t32.5 46l207 -139q-23 -31 -60.5 -71t-94 -75.5t-134 -60.5t-178.5 -25q-109 0 -201 35 t-159.5 100.5t-106.5 162t-39 219.5zM227 1137l228 297h215l241 -297h-241l-103 131l-104 -131h-236zM354 602h410q-4 86 -56.5 138.5t-144.5 52.5q-43 0 -81 -15.5t-65.5 -42t-44 -60.5t-18.5 -73z" />
<glyph unicode="&#xeb;" horiz-adv-x="1107" d="M63 492q0 115 37 208t103.5 159.5t159 103t200.5 36.5q123 0 214 -43t151.5 -119.5t91.5 -182t31 -230.5v-14h-697q8 -80 65.5 -139.5t168.5 -59.5q49 0 88 13.5t69.5 32.5t51 43t32.5 46l207 -139q-23 -31 -60.5 -71t-94 -75.5t-134 -60.5t-178.5 -25q-109 0 -201 35 t-159.5 100.5t-106.5 162t-39 219.5zM258 1169v238h240v-238h-240zM354 602h410q-4 86 -56.5 138.5t-144.5 52.5q-43 0 -81 -15.5t-65.5 -42t-44 -60.5t-18.5 -73zM637 1169v238h240v-238h-240z" />
<glyph unicode="&#xec;" horiz-adv-x="563" d="M-61 1434h362l135 -297h-256zM131 0v975h301v-975h-301z" />
<glyph unicode="&#xed;" horiz-adv-x="563" d="M129 1137l135 297h363l-242 -297h-256zM131 0v975h301v-975h-301z" />
<glyph unicode="&#xee;" horiz-adv-x="563" d="M-47 1137l227 297h215l242 -297h-242l-102 131l-105 -131h-235zM131 0v975h301v-975h-301z" />
<glyph unicode="&#xef;" horiz-adv-x="563" d="M-16 1169v238h239v-238h-239zM131 0v975h301v-975h-301zM362 1169v238h240v-238h-240z" />
<glyph unicode="&#xf0;" horiz-adv-x="1163" d="M63 483q0 123 38 219.5t105.5 163t163 100t210.5 33.5q78 0 137 -14q-14 35 -33.5 75t-44.5 70l-287 -90l-63 191l219 67q-16 23 -35.5 40.5t-42.5 35.5l223 111q27 -23 52.5 -47.5t56.5 -63.5l229 72l62 -189l-164 -51q41 -63 79 -139t67.5 -162t47 -181t17.5 -196 q0 -111 -26.5 -210t-88 -175.5t-161 -122t-244.5 -45.5q-115 0 -210.5 33t-163 97.5t-105.5 159.5t-38 218zM367 487q0 -135 54 -209.5t159 -74.5q104 0 159.5 74.5t55.5 209.5q0 137 -55.5 212t-159.5 75t-158.5 -76t-54.5 -211z" />
<glyph unicode="&#xf1;" horiz-adv-x="1183" d="M131 0v975h295v-121q35 59 111.5 102t181.5 43q170 0 256 -94q23 -27 39 -54.5t26.5 -67.5t15.5 -95t5 -135v-553h-299v492q0 55 -3 102t-18.5 81t-46 52t-86.5 18q-94 0 -136 -65.5t-42 -165.5v-514h-299zM246 1200q6 27 24.5 67t51 76.5t76.5 63.5t104 27 q41 0 75.5 -14.5t69.5 -30.5q31 -16 60.5 -27.5t58.5 -11.5q35 0 56.5 22.5t33.5 52.5l172 -69q-16 -43 -37.5 -86t-52.5 -77t-73 -54.5t-99 -20.5q-45 0 -78 10.5t-72 28.5q-41 20 -68.5 33.5t-49.5 13.5q-33 0 -51.5 -23.5t-28.5 -52.5z" />
<glyph unicode="&#xf2;" horiz-adv-x="1161" d="M63 483q0 123 38 219.5t105.5 163t163 100t210.5 33.5t210 -33.5t163.5 -100t106.5 -163t38 -219.5t-38 -218t-106.5 -159.5t-164 -97.5t-209.5 -33q-115 0 -210.5 33t-163 97.5t-105.5 159.5t-38 218zM262 1434h363l135 -297h-256zM367 487q0 -135 54 -209.5t159 -74.5 q104 0 159.5 74.5t55.5 209.5q0 137 -55.5 212t-159.5 75t-158.5 -76t-54.5 -211z" />
<glyph unicode="&#xf3;" horiz-adv-x="1161" d="M63 483q0 123 38 219.5t105.5 163t163 100t210.5 33.5t210 -33.5t163.5 -100t106.5 -163t38 -219.5t-38 -218t-106.5 -159.5t-164 -97.5t-209.5 -33q-115 0 -210.5 33t-163 97.5t-105.5 159.5t-38 218zM367 487q0 -135 54 -209.5t159 -74.5q104 0 159.5 74.5t55.5 209.5 q0 137 -55.5 212t-159.5 75t-158.5 -76t-54.5 -211zM412 1137l135 297h362l-241 -297h-256z" />
<glyph unicode="&#xf4;" horiz-adv-x="1161" d="M63 483q0 123 38 219.5t105.5 163t163 100t210.5 33.5t210 -33.5t163.5 -100t106.5 -163t38 -219.5t-38 -218t-106.5 -159.5t-164 -97.5t-209.5 -33q-115 0 -210.5 33t-163 97.5t-105.5 159.5t-38 218zM246 1137l227 297h215l242 -297h-242l-102 131l-105 -131h-235z M367 487q0 -135 54 -209.5t159 -74.5q104 0 159.5 74.5t55.5 209.5q0 137 -55.5 212t-159.5 75t-158.5 -76t-54.5 -211z" />
<glyph unicode="&#xf5;" horiz-adv-x="1157" d="M63 483q0 123 37 219.5t104.5 163t163 100t210.5 33.5t210 -33.5t162.5 -100t105.5 -163t38 -219.5t-37 -218t-104.5 -159.5t-163 -97.5t-211.5 -33q-117 0 -212.5 33t-163 97.5t-103.5 159.5t-36 218zM195 1200q6 27 24.5 67t51 76.5t76.5 63.5t104 27q41 0 75.5 -14.5 t69.5 -30.5q31 -16 60.5 -27.5t58.5 -11.5q35 0 56.5 22.5t33.5 52.5l172 -69q-16 -43 -37.5 -86t-52.5 -77t-73 -54.5t-99 -20.5q-45 0 -78 10.5t-72 28.5q-41 20 -68.5 33.5t-50.5 13.5q-33 0 -51 -23.5t-28 -52.5zM362 487q0 -135 55.5 -209.5t160.5 -74.5 q104 0 160.5 74.5t56.5 209.5q0 137 -56.5 212t-160.5 75t-160 -76t-56 -211z" />
<glyph unicode="&#xf6;" horiz-adv-x="1161" d="M63 483q0 123 38 219.5t105.5 163t163 100t210.5 33.5t210 -33.5t163.5 -100t106.5 -163t38 -219.5t-38 -218t-106.5 -159.5t-164 -97.5t-209.5 -33q-115 0 -210.5 33t-163 97.5t-105.5 159.5t-38 218zM272 1169v238h240v-238h-240zM367 487q0 -135 54 -209.5t159 -74.5 q104 0 159.5 74.5t55.5 209.5q0 137 -55.5 212t-159.5 75t-158.5 -76t-54.5 -211zM651 1169v238h240v-238h-240z" />
<glyph unicode="&#xf7;" horiz-adv-x="1583" d="M102 356v267h1377v-267h-1377zM635 0v283h307v-283h-307zM635 690v283h307v-283h-307z" />
<glyph unicode="&#xf8;" horiz-adv-x="1161" d="M63 483q0 123 38 219.5t105.5 163t163 100t210.5 33.5q55 0 107 -8t99 -24l117 151l184 -151l-104 -136q115 -133 115 -348q0 -123 -38 -218t-106.5 -159.5t-164 -97.5t-209.5 -33q-61 0 -117.5 10.5t-106.5 26.5l-82 -106l-190 149l78 101q-98 127 -99 327zM367 455.5 q0 -15.5 2 -31.5l264 344q-25 6 -53 6q-104 0 -158.5 -76t-54.5 -211v-31.5zM510 213q16 -6 32.5 -8t37.5 -2q104 0 159.5 74.5t55.5 209.5q0 23 -2 45.5t-7 42.5z" />
<glyph unicode="&#xf9;" horiz-adv-x="1171" d="M119 422v553h299v-492q0 -55 3 -102t16.5 -81t44 -52.5t85.5 -18.5q92 0 133 65.5t41 166.5v514h299v-975h-295v121q-35 -59 -109.5 -102.5t-178.5 -43.5q-166 0 -252 95q-23 27 -39 54.5t-26.5 67t-15.5 95t-5 135.5zM270 1434h363l135 -297h-256z" />
<glyph unicode="&#xfa;" horiz-adv-x="1171" d="M119 422v553h299v-492q0 -55 3 -102t16.5 -81t44 -52.5t85.5 -18.5q92 0 133 65.5t41 166.5v514h299v-975h-295v121q-35 -59 -109.5 -102.5t-178.5 -43.5q-166 0 -252 95q-23 27 -39 54.5t-26.5 67t-15.5 95t-5 135.5zM424 1137l135 297h363l-242 -297h-256z" />
<glyph unicode="&#xfb;" horiz-adv-x="1171" d="M119 422v553h299v-492q0 -55 3 -102t16.5 -81t44 -52.5t85.5 -18.5q92 0 133 65.5t41 166.5v514h299v-975h-295v121q-35 -59 -109.5 -102.5t-178.5 -43.5q-166 0 -252 95q-23 27 -39 54.5t-26.5 67t-15.5 95t-5 135.5zM246 1137l227 297h215l242 -297h-242l-102 131 l-105 -131h-235z" />
<glyph unicode="&#xfc;" horiz-adv-x="1171" d="M119 422v553h299v-492q0 -55 3 -102t16.5 -81t44 -52.5t85.5 -18.5q92 0 133 65.5t41 166.5v514h299v-975h-295v121q-35 -59 -109.5 -102.5t-178.5 -43.5q-166 0 -252 95q-23 27 -39 54.5t-26.5 67t-15.5 95t-5 135.5zM289 1169v238h239v-238h-239zM668 1169v238h239 v-238h-239z" />
<glyph unicode="&#xfd;" horiz-adv-x="980" d="M-4 975h313l140 -520q10 -35 17 -72t15 -68q8 -37 17 -69h2l14 71q6 31 13.5 67t17.5 71l133 520h307l-352 -1108q-25 -78 -48.5 -129t-54.5 -84q-37 -41 -98 -62.5t-182 -21.5q-37 0 -81 2t-93 6v240q31 -2 53.5 -2h44.5q59 0 91 7t48 25q16 20 17 52q0 20 -4 39.5 t-15 48.5zM367 1137l135 297h362l-241 -297h-256z" />
<glyph unicode="&#xfe;" horiz-adv-x="1253" d="M152 -426v1860h299v-549q35 41 109.5 77.5t174.5 36.5q104 0 188.5 -36.5t143.5 -104t91 -162t32 -209.5q0 -111 -33 -205t-92 -162.5t-143.5 -106.5t-186.5 -38q-90 0 -163.5 29t-120.5 84v-514h-299zM442 487q0 -129 61.5 -206.5t162.5 -77.5q104 0 162.5 76.5 t58.5 207.5q0 135 -55.5 211t-165.5 76q-100 0 -162 -79t-62 -208z" />
<glyph unicode="&#xff;" horiz-adv-x="980" d="M-4 975h313l140 -520q10 -35 17 -72t15 -68q8 -37 17 -69h2l14 71q6 31 13.5 67t17.5 71l133 520h307l-352 -1108q-25 -78 -48.5 -129t-54.5 -84q-37 -41 -98 -62.5t-182 -21.5q-37 0 -81 2t-93 6v240q31 -2 53.5 -2h44.5q59 0 91 7t48 25q16 20 17 52q0 20 -4 39.5 t-15 48.5zM182 1157v264h269v-264h-269zM565 1157v264h269v-264h-269z" />
<glyph unicode="&#x152;" horiz-adv-x="1972" d="M78 713q0 172 50 309t143.5 233.5t226.5 147.5t299 51q55 0 113.5 -4t113.5 -16h854v-275h-670v-293h604v-270h-604v-317h719v-279h-903q-53 -12 -113.5 -16t-115.5 -4q-164 0 -296 47t-225.5 139t-144.5 229t-51 318zM387 717q0 -117 32 -203t88 -144.5t131 -87 t161 -28.5h59.5t42.5 4v907q-29 4 -55.5 6.5t-48.5 2.5q-186 0 -298 -113t-112 -344z" />
<glyph unicode="&#x153;" horiz-adv-x="1816" d="M63 483q0 123 38 219.5t105.5 163t163 100t210.5 33.5q111 0 199.5 -30.5t156.5 -89.5q66 57 150.5 88.5t187.5 31.5q123 0 214 -43t151.5 -119.5t91 -182t30.5 -230.5v-14h-696q8 -80 65.5 -139.5t167.5 -59.5q49 0 88 13.5t70 32.5t51.5 43t32.5 46l207 -139 q-23 -31 -60.5 -71t-94 -75.5t-134.5 -60.5t-178 -25q-205 0 -342 115q-137 -115 -358 -115q-115 0 -210.5 33t-163 97.5t-105.5 159.5t-38 218zM367 487q0 -135 54 -209.5t159 -74.5q104 0 159.5 74.5t55.5 209.5q0 137 -55.5 212t-159.5 75t-158.5 -76t-54.5 -211z M1065 602h410q-4 86 -56.5 138.5t-144.5 52.5q-43 0 -81 -15.5t-65.5 -42t-44 -60.5t-18.5 -73z" />
<glyph unicode="&#x178;" horiz-adv-x="1335" d="M-10 1434h356l320 -555l325 555h355l-539 -859v-575h-309v578zM336 1585v264h268v-264h-268zM719 1585v264h268v-264h-268z" />
<glyph unicode="&#x2c6;" horiz-adv-x="1024" d="M170 1137l227 297h215l242 -297h-242l-102 131l-104 -131h-236z" />
<glyph unicode="&#x2dc;" horiz-adv-x="1024" d="M121 1200q6 27 24.5 67t51 76.5t76.5 63.5t104 27q41 0 75.5 -14.5t69.5 -30.5q31 -16 60.5 -27.5t58.5 -11.5q35 0 56.5 22.5t33.5 52.5l172 -69q-16 -43 -37.5 -86t-52.5 -77t-73 -54.5t-99 -20.5q-45 0 -78 10.5t-71 28.5q-41 20 -69 33.5t-50 13.5q-33 0 -51.5 -23.5 t-28.5 -52.5z" />
<glyph unicode="&#x2000;" horiz-adv-x="980" />
<glyph unicode="&#x2001;" horiz-adv-x="1960" />
<glyph unicode="&#x2002;" horiz-adv-x="980" />
<glyph unicode="&#x2003;" horiz-adv-x="1960" />
<glyph unicode="&#x2004;" horiz-adv-x="653" />
<glyph unicode="&#x2005;" horiz-adv-x="490" />
<glyph unicode="&#x2006;" horiz-adv-x="326" />
<glyph unicode="&#x2007;" horiz-adv-x="326" />
<glyph unicode="&#x2008;" horiz-adv-x="245" />
<glyph unicode="&#x2009;" horiz-adv-x="392" />
<glyph unicode="&#x200a;" horiz-adv-x="108" />
<glyph unicode="&#x2010;" horiz-adv-x="745" d="M82 461v282h582v-282h-582z" />
<glyph unicode="&#x2011;" horiz-adv-x="745" d="M82 461v282h582v-282h-582z" />
<glyph unicode="&#x2012;" horiz-adv-x="745" d="M82 461v282h582v-282h-582z" />
<glyph unicode="&#x2013;" horiz-adv-x="1329" d="M143 465v274h1043v-274h-1043z" />
<glyph unicode="&#x2014;" horiz-adv-x="1583" d="M76 465v274h1431v-274h-1431z" />
<glyph unicode="&#x2018;" horiz-adv-x="569" d="M121 801v203q0 88 5 144t17 99q31 102 98.5 152.5t204.5 54.5v-158q-72 -4 -109.5 -38.5t-37.5 -112.5h147v-344h-325z" />
<glyph unicode="&#x2019;" horiz-adv-x="569" d="M123 780v158q72 4 109.5 39t37.5 113h-147v344h326v-203q0 -88 -5.5 -144.5t-17.5 -99.5q-31 -102 -98.5 -152.5t-204.5 -54.5z" />
<glyph unicode="&#x201a;" horiz-adv-x="1038" d="M133 0v362h326v-221q0 -88 -5 -144t-18 -99q-31 -102 -98.5 -152.5t-204.5 -54.5v157q72 4 110 39t38 113h-148zM580 0v362h325v-221q0 -88 -5 -144t-17 -99q-31 -102 -98.5 -152.5t-204.5 -54.5v157q72 4 109.5 39t37.5 113h-147z" />
<glyph unicode="&#x201c;" horiz-adv-x="1015" d="M121 801v203q0 88 5 144t17 99q31 102 98.5 152.5t204.5 54.5v-158q-72 -4 -109.5 -38.5t-37.5 -112.5h147v-344h-325zM567 801v203q0 88 5.5 144t17.5 99q31 102 98.5 152.5t204.5 54.5v-158q-72 -4 -110 -38.5t-38 -112.5h148v-344h-326z" />
<glyph unicode="&#x201d;" horiz-adv-x="1015" d="M123 782v158q72 4 109.5 39t37.5 113h-147v344h326v-203q0 -88 -5.5 -144.5t-17.5 -99.5q-31 -102 -98.5 -152.5t-204.5 -54.5zM569 782v158q72 4 110 39t38 113h-148v344h326v-203q0 -88 -5 -144.5t-18 -99.5q-31 -102 -98 -152.5t-205 -54.5z" />
<glyph unicode="&#x201e;" horiz-adv-x="591" d="M133 0v362h326v-221q0 -88 -5 -144t-18 -99q-31 -102 -98.5 -152.5t-204.5 -54.5v157q72 4 110 39t38 113h-148z" />
<glyph unicode="&#x2022;" horiz-adv-x="823" d="M82 684q0 70 25.5 130t70.5 105.5t105.5 71t128.5 25.5q70 0 129 -25.5t104 -71t70.5 -105.5t25.5 -130q0 -68 -25.5 -128t-70.5 -105t-104.5 -71t-128.5 -26q-68 0 -128.5 26t-105.5 71t-70.5 105t-25.5 128z" />
<glyph unicode="&#x2026;" horiz-adv-x="1990" d="M133 0v365h326v-365h-326zM848 0v365h326v-365h-326zM1532 0v365h326v-365h-326z" />
<glyph unicode="&#x202f;" horiz-adv-x="392" />
<glyph unicode="&#x2039;" horiz-adv-x="593" d="M80 426v291l371 309v-330l-156 -121q39 -33 80 -66.5t76 -62.5v-325z" />
<glyph unicode="&#x203a;" horiz-adv-x="593" d="M143 121v325q35 29 76 63t80 66l-156 121v330l371 -309v-291z" />
<glyph unicode="&#x205f;" horiz-adv-x="490" />
<glyph unicode="&#x20ac;" d="M-2 440l78 226h82v90h-160l78 225h104q20 92 58 178t99.5 152.5t148.5 106.5t208 40q111 0 193 -31.5t141 -87t96 -129t60 -155.5l-281 -121q-8 51 -23.5 97t-40 80t-59.5 54.5t-84 20.5q-84 0 -132 -60.5t-64 -144.5h338l-78 -225h-285v-90h363l-78 -226h-260 q16 -80 63 -136t133 -56q49 0 84 18.5t59.5 49t40 72.5t23.5 91l287 -92q-16 -90 -54 -165t-99.5 -130t-146.5 -86t-196 -31t-196.5 35t-148 96.5t-103.5 146.5t-62 187h-186z" />
<glyph unicode="&#x2122;" horiz-adv-x="1843" d="M41 1210v224h727v-224h-244v-708h-239v708h-244zM840 502h229v436q4 -27 10 -49q4 -23 10.5 -45.5t12.5 -42.5l82 -299h178l80 305q6 23 11 47.5t9 42.5q6 23 11 43v-438h227v932h-283l-86 -314q-16 -59 -27.5 -104t-17.5 -76l-12 -61l-14 63q-8 31 -20.5 74t-29.5 100 l-96 318h-274v-932z" />
<glyph unicode="&#x25fc;" horiz-adv-x="1024" d="M0 0z" />
<glyph unicode="&#xfb01;" horiz-adv-x="1257" d="M18 764v211h162v147q0 78 15.5 132.5t44.5 93.5q41 57 114.5 77.5t165.5 20.5q55 0 101.5 -4t78.5 -8v-226q-14 2 -35.5 3t-46.5 1q-39 0 -65.5 -5t-44.5 -21q-14 -12 -21.5 -29.5t-7.5 -58.5v-123h221v-211h-221v-764h-299v764h-162zM827 0v975h299v-975h-299zM827 1141 v293h299v-293h-299z" />
<glyph unicode="&#xfb02;" horiz-adv-x="1275" d="M18 764v211h162v147q0 78 15.5 132.5t44.5 93.5q41 57 114.5 77.5t165.5 20.5q55 0 101.5 -4t78.5 -8v-226q-14 2 -35.5 3t-46.5 1q-39 0 -65.5 -5t-44.5 -21q-14 -12 -21.5 -29.5t-7.5 -58.5v-123h221v-211h-221v-764h-299v764h-162zM846 0v1434h299v-1434h-299z" />
</font>
</defs>
</svg>
