<svg xmlns="http://www.w3.org/2000/svg" width="42.712" height="68.417" viewBox="0 0 42.712 68.417"><path fill="#1D1D1B" d="M0 .58h9.845v32.819h-9.845zM42.712 25.097c-2.316 5.261-6.999 8.88-14.479 8.88-10.376 0-16.312-6.95-16.312-16.988-.001-10.087 6.274-16.989 16.506-16.989 7.818 0 12.451 4.489 14.092 8.784l-8.543 4.102c-.82-3.185-2.606-5.067-5.695-5.067-4.198 0-6.322 3.475-6.322 9.17 0 5.646 2.124 9.025 6.322 9.025 2.896 0 4.586-1.545 5.502-4.102l8.929 3.185zM10.036 56.906v11.511h-9.993v-33.31h14.598c3.772 0 6.172.392 7.984 1.079 3.821 1.519 6.368 4.996 6.368 9.943 0 4.311-1.469 6.956-4.653 8.915-2.695 1.617-5.829 1.862-10.042 1.862h-4.262zm0-7.594h4.997c1.273 0 2.204-.195 2.841-.637.881-.539 1.273-1.469 1.273-2.693s-.392-2.155-1.273-2.694c-.637-.44-1.568-.638-2.841-.638h-4.997v6.662z"/></svg>